<svg width="500" height="500" viewBox="0 0 500 500" fill="none" xmlns="http://www.w3.org/2000/svg">
<g clip-path="url(#clip0_8_680)">
<path fill-rule="evenodd" clip-rule="evenodd" d="M250 500C388.1 500 500 388.1 500 250C500 111.9 388.1 0 250 0C111.9 0 0 111.9 0 250C0 388.1 111.9 500 250 500Z" fill="#0000FF"/>
<circle cx="249.5" cy="250.5" r="212.5" fill="#0000FF"/>
<circle cx="250" cy="250" r="200" fill="#0000FF"/>
</g>
<path d="M101.424 306.5H120.174V325.25H101.424V306.5ZM101.424 325.25H120.174V344H101.424V325.25ZM82.6738 325.25H101.424V344H82.6738V325.25ZM82.6738 306.5H101.424V325.25H82.6738V306.5ZM82.6738 287.75H101.424V306.5H82.6738V287.75ZM82.6738 269H101.424V287.75H82.6738V269ZM82.6738 250.25H101.424V269H82.6738V250.25ZM82.6738 231.5H101.424V250.25H82.6738V231.5ZM82.6738 212.75H101.424V231.5H82.6738V212.75ZM82.6738 194H101.424V212.75H82.6738V194ZM101.424 212.75H120.174V231.5H101.424V212.75ZM101.424 231.5H120.174V250.25H101.424V231.5ZM101.424 250.25H120.174V269H101.424V250.25ZM101.424 269H120.174V287.75H101.424V269ZM101.424 287.75H120.174V306.5H101.424V287.75ZM101.424 194H120.174V212.75H101.424V194ZM101.424 175.25H120.174V194H101.424V175.25ZM82.6738 156.5H101.424V175.25H82.6738V156.5ZM101.424 156.5H120.174V175.25H101.424V156.5ZM82.6738 175.25H101.424V194H82.6738V175.25ZM63.9238 156.5H82.6738V175.25H63.9238V156.5ZM63.9238 175.25H82.6738V194H63.9238V175.25ZM193.777 156.5H212.527V175.25H193.777V156.5ZM175.027 156.5H193.777V175.25H175.027V156.5ZM175.027 175.25H193.777V194H175.027V175.25ZM193.777 175.25H212.527V194H193.777V175.25ZM212.527 175.25H231.277V194H212.527V175.25ZM212.527 156.5H231.277V175.25H212.527V156.5ZM231.277 156.5H250.027V175.25H231.277V156.5ZM250.027 175.25H268.777V194H250.027V175.25ZM231.277 175.25H250.027V194H231.277V175.25ZM250.027 194H268.777V212.75H250.027V194ZM250.027 306.5H268.777V325.25H250.027V306.5ZM250.027 287.75H268.777V306.5H250.027V287.75ZM250.027 269H268.777V287.75H250.027V269ZM250.027 250.25H268.777V269H250.027V250.25ZM250.027 231.5H268.777V250.25H250.027V231.5ZM250.027 212.75H268.777V231.5H250.027V212.75ZM231.277 306.5H250.027V325.25H231.277V306.5ZM231.277 325.25H250.027V344H231.277V325.25ZM212.527 325.25H231.277V344H212.527V325.25ZM212.527 306.5H231.277V325.25H212.527V306.5ZM193.777 325.25H212.527V344H193.777V325.25ZM175.027 325.25H193.777V344H175.027V325.25ZM175.027 306.5H193.777V325.25H175.027V306.5ZM193.777 306.5H212.527V325.25H193.777V306.5ZM175.027 287.75H193.777V306.5H175.027V287.75ZM156.277 306.5H175.027V325.25H156.277V306.5ZM156.277 287.75H175.027V306.5H156.277V287.75ZM156.277 269H175.027V287.75H156.277V269ZM156.277 250.25H175.027V269H156.277V250.25ZM156.277 231.5H175.027V250.25H156.277V231.5ZM156.277 212.75H175.027V231.5H156.277V212.75ZM156.277 194H175.027V212.75H156.277V194ZM175.027 194H193.777V212.75H175.027V194ZM156.277 175.25H175.027V194H156.277V175.25ZM175.027 212.75H193.777V231.5H175.027V212.75ZM175.027 231.5H193.777V250.25H175.027V231.5ZM175.027 250.25H193.777V269H175.027V250.25ZM175.027 269H193.777V287.75H175.027V269ZM231.277 194H250.027V212.75H231.277V194ZM231.277 212.75H250.027V231.5H231.277V212.75ZM231.277 231.5H250.027V250.25H231.277V231.5ZM231.277 250.25H250.027V269H231.277V250.25ZM231.277 269H250.027V287.75H231.277V269ZM231.277 287.75H250.027V306.5H231.277V287.75ZM323.777 156.5H342.527V175.25H323.777V156.5ZM323.777 175.25H342.527V194H323.777V175.25ZM323.777 194H342.527V212.75H323.777V194ZM342.527 194H361.277V212.75H342.527V194ZM342.527 212.75H361.277V231.5H342.527V212.75ZM361.277 212.75H380.027V231.5H361.277V212.75ZM380.027 212.75H398.777V231.5H380.027V212.75ZM380.027 194H398.777V212.75H380.027V194ZM398.777 194H417.527V212.75H398.777V194ZM417.527 194H436.277V212.75H417.527V194ZM417.527 175.25H436.277V194H417.527V175.25ZM417.527 156.5H436.277V175.25H417.527V156.5ZM398.777 156.5H417.527V175.25H398.777V156.5ZM398.777 175.25H417.527V194H398.777V175.25ZM398.777 212.75H417.527V231.5H398.777V212.75ZM323.777 212.75H342.527V231.5H323.777V212.75ZM305.027 194H323.777V212.75H305.027V194ZM305.027 175.25H323.777V194H305.027V175.25ZM305.027 156.5H323.777V175.25H305.027V156.5ZM342.527 231.5H361.277V250.25H342.527V231.5ZM361.277 231.5H380.027V250.25H361.277V231.5ZM380.027 231.5H398.777V250.25H380.027V231.5ZM380.027 250.25H398.777V269H380.027V250.25ZM398.777 250.25H417.527V269H398.777V250.25ZM398.777 269H417.527V287.75H398.777V269ZM380.027 269H398.777V287.75H380.027V269ZM417.527 325.25H436.277V344H417.527V325.25ZM417.527 306.5H436.277V325.25H417.527V306.5ZM417.527 287.75H436.277V306.5H417.527V287.75ZM417.527 269H436.277V287.75H417.527V269ZM398.777 287.75H417.527V306.5H398.777V287.75ZM398.777 306.5H417.527V325.25H398.777V306.5ZM398.777 325.25H417.527V344H398.777V325.25ZM305.027 325.25H323.777V344H305.027V325.25ZM323.777 325.25H342.527V344H323.777V325.25ZM323.777 306.5H342.527V325.25H323.777V306.5ZM323.777 287.75H342.527V306.5H323.777V287.75ZM305.027 287.75H323.777V306.5H305.027V287.75ZM305.027 269H323.777V287.75H305.027V269ZM305.027 306.5H323.777V325.25H305.027V306.5ZM323.777 269H342.527V287.75H323.777V269ZM342.527 269H361.277V287.75H342.527V269ZM342.527 250.25H361.277V269H342.527V250.25ZM323.777 250.25H342.527V269H323.777V250.25ZM361.277 250.25H380.027V269H361.277V250.25Z" fill="white"/>
<defs>
<clipPath id="clip0_8_680">
<rect width="500" height="500" fill="white"/>
</clipPath>
</defs>
</svg>
