<svg width="500" height="500" viewBox="0 0 500 500" fill="none" xmlns="http://www.w3.org/2000/svg">
<g clip-path="url(#clip0_11_1263)">
<circle cx="250" cy="250" r="215" fill="white"/>
<path d="M170.947 249.335C170.2 262.292 180.187 273.385 193.16 274.131C193.627 274.131 194.093 274.131 194.56 274.131C207.627 274.131 218.173 263.597 218.08 250.547C218.08 237.496 207.533 226.963 194.467 227.056C181.96 227.056 171.6 236.844 170.947 249.335Z" fill="#0033AD"/>
<path d="M83.0267 243.276C78.8267 242.996 75.1867 246.259 75 250.454C74.8133 254.648 77.9867 258.284 82.1867 258.47C86.3867 258.75 89.9333 255.487 90.2133 251.293C90.4933 247.098 87.2267 243.555 83.0267 243.276Z" fill="#0033AD"/>
<path d="M169.453 112.678C173.186 110.813 174.68 106.152 172.813 102.424C170.946 98.6949 166.28 97.2034 162.546 99.0678C158.813 100.932 157.32 105.5 159.186 109.229C161.053 113.05 165.626 114.635 169.453 112.678Z" fill="#0033AD"/>
<path d="M193.347 154.346C199.134 151.456 201.467 144.372 198.574 138.592C195.68 132.813 188.587 130.482 182.8 133.372C177.014 136.262 174.68 143.346 177.574 149.126C180.467 154.905 187.56 157.236 193.347 154.346Z" fill="#0033AD"/>
<path d="M112.893 182.964C117.373 185.853 123.347 184.642 126.333 180.167C129.227 175.693 128.013 169.727 123.533 166.744C119.053 163.854 113.08 165.066 110.093 169.54C107.107 174.015 108.413 180.074 112.893 182.964Z" fill="#0033AD"/>
<path d="M127.173 239.081C120.64 238.708 115.133 243.648 114.76 250.174C114.387 256.699 119.333 262.199 125.867 262.572C132.4 262.945 137.907 258.004 138.28 251.479C138.653 245.047 133.707 239.454 127.173 239.081Z" fill="#0033AD"/>
<path d="M114.2 318.037C109.44 320.46 107.48 326.24 109.906 331.087C112.333 335.841 118.12 337.799 122.973 335.375C127.733 332.951 129.693 327.172 127.266 322.325C124.84 317.57 118.96 315.613 114.2 318.037Z" fill="#0033AD"/>
<path d="M159.933 214.751C166.373 218.946 174.96 217.175 179.066 210.743C183.266 204.311 181.493 195.735 175.053 191.633C168.613 187.438 160.026 189.209 155.92 195.641C151.72 201.98 153.493 210.556 159.933 214.751Z" fill="#0033AD"/>
<path d="M305.067 153.414C310.48 156.956 317.853 155.464 321.4 150.058C324.947 144.651 323.453 137.287 318.04 133.745C312.627 130.202 305.253 131.694 301.707 137.1C298.067 142.6 299.56 149.871 305.067 153.414Z" fill="#0033AD"/>
<path d="M329.147 111.932C332.694 114.262 337.36 113.237 339.694 109.695C342.027 106.152 341 101.491 337.454 99.161C333.907 96.8305 329.24 97.8559 326.907 101.305C324.667 104.847 325.694 109.601 329.147 111.932Z" fill="#0033AD"/>
<path d="M306.84 226.869C293.866 226.124 282.666 236.098 282.013 249.055C281.266 262.012 291.253 273.199 304.226 273.851C304.693 273.851 305.16 273.851 305.533 273.851C318.506 273.851 329.053 263.318 329.053 250.267C329.146 237.869 319.346 227.522 306.84 226.869Z" fill="#0033AD"/>
<path d="M201.093 213.073C205.107 220.997 213.227 226.031 222.187 226.031C235.16 226.031 245.707 215.497 245.707 202.446C245.707 198.811 244.867 195.175 243.187 191.82C237.307 180.167 223.12 175.506 211.547 181.379C199.88 187.345 195.213 201.514 201.093 213.073Z" fill="#0033AD"/>
<path d="M385.8 182.964C390.56 180.54 392.427 174.667 390 169.913C387.573 165.159 381.693 163.295 376.933 165.718C372.173 168.142 370.307 173.922 372.64 178.676C375.16 183.43 380.947 185.387 385.8 182.964Z" fill="#0033AD"/>
<path d="M326.067 190.421C319.254 193.87 316.454 202.167 319.907 208.972C323.36 215.777 331.667 218.573 338.48 215.124C345.294 211.675 348.094 203.379 344.64 196.574C341.187 189.769 332.88 187.065 326.067 190.421Z" fill="#0033AD"/>
<path d="M249.066 108.389C254.386 108.669 258.96 104.567 259.333 99.2541C259.706 93.9407 255.506 89.373 250.186 89.0001C244.866 88.7205 240.293 92.7288 239.92 98.0422C239.64 103.449 243.746 108.017 249.066 108.389Z" fill="#0033AD"/>
<path d="M248.973 169.261C256.627 169.727 263.16 163.854 263.533 156.21C264 148.566 258.12 142.041 250.467 141.668C242.813 141.202 236.28 147.075 235.907 154.719C235.533 162.363 241.32 168.888 248.973 169.261Z" fill="#0033AD"/>
<path d="M173.934 310.579C180.747 307.13 183.547 298.834 180.094 292.029C176.64 285.224 168.334 282.427 161.52 285.876C154.707 289.325 151.907 297.622 155.36 304.427C158.814 311.232 167.12 314.028 173.934 310.579Z" fill="#0033AD"/>
<path d="M257.934 189.489C250.84 200.395 253.827 214.937 264.747 222.022C275.667 229.106 290.227 226.124 297.32 215.217C304.414 204.311 301.427 189.769 290.507 182.684C286.68 180.167 282.2 178.862 277.627 178.862C269.694 178.862 262.32 182.87 257.934 189.489Z" fill="#0033AD"/>
<path d="M298.906 287.927C293.026 276.275 278.84 271.614 267.266 277.487C255.6 283.359 250.933 297.528 256.813 309.087C262.693 320.74 276.88 325.401 288.453 319.528C300.026 313.748 304.786 299.766 299 288.113C299 288.02 299 288.02 298.906 287.927Z" fill="#0033AD"/>
<path d="M340.067 286.249C333.627 282.054 325.04 283.825 320.933 290.258C316.733 296.69 318.507 305.266 324.947 309.367C331.387 313.562 339.973 311.791 344.08 305.359C348.28 299.02 346.507 290.444 340.067 286.249Z" fill="#0033AD"/>
<path d="M385.24 250.919C385.613 244.394 380.667 238.894 374.133 238.521C367.6 238.149 362.093 243.089 361.72 249.614C361.347 256.14 366.293 261.64 372.827 262.012C379.267 262.385 384.867 257.352 385.24 250.919Z" fill="#0033AD"/>
<path d="M417.814 242.53C413.614 242.25 409.974 245.513 409.787 249.708C409.6 253.902 412.774 257.538 416.974 257.724C421.174 258.004 424.72 254.741 425 250.547C425.187 246.352 422.014 242.81 417.814 242.53Z" fill="#0033AD"/>
<path d="M387.106 318.036C382.626 315.147 376.653 316.359 373.666 320.833C370.773 325.307 371.986 331.273 376.466 334.256C380.946 337.146 386.92 335.934 389.906 331.46C392.893 326.985 391.586 320.926 387.106 318.036Z" fill="#0033AD"/>
<path d="M170.76 389.068C167.214 386.738 162.547 387.763 160.214 391.212C157.88 394.755 158.907 399.416 162.36 401.746C165.907 404.077 170.574 403.051 172.907 399.602C175.334 396.153 174.307 391.399 170.76 389.068Z" fill="#0033AD"/>
<path d="M330.546 388.323C326.813 390.187 325.32 394.848 327.186 398.577C329.053 402.305 333.72 403.797 337.453 401.933C341.186 400.068 342.68 395.5 340.813 391.772C338.946 387.95 334.373 386.365 330.546 388.323Z" fill="#0033AD"/>
<path d="M242.066 311.511C249.16 300.605 246.173 286.063 235.253 278.885C224.333 271.8 209.773 274.783 202.586 285.69C195.4 296.596 198.48 311.138 209.4 318.316C213.226 320.833 217.706 322.138 222.28 322.138C230.306 322.231 237.68 318.223 242.066 311.511Z" fill="#0033AD"/>
<path d="M194.933 347.587C189.52 344.044 182.146 345.536 178.6 350.942C175.053 356.349 176.546 363.713 181.96 367.256C187.373 370.798 194.746 369.306 198.293 363.9C201.933 358.493 200.44 351.129 194.933 347.587Z" fill="#0033AD"/>
<path d="M249.907 392.611C244.587 392.331 240.014 396.433 239.64 401.746C239.267 407.06 243.467 411.627 248.787 412C254.107 412.28 258.68 408.271 259.054 402.958C259.334 397.551 255.227 392.984 249.907 392.611Z" fill="#0033AD"/>
<path d="M250 331.74C242.347 331.273 235.813 337.146 235.44 344.79C234.973 352.434 240.853 358.959 248.507 359.332C256.16 359.705 262.693 353.925 263.067 346.282C263.533 338.731 257.653 332.112 250 331.74Z" fill="#0033AD"/>
<path d="M306.653 346.654C300.867 349.637 298.533 356.722 301.52 362.501C304.507 368.281 311.6 370.611 317.387 367.628C323.173 364.739 325.507 357.654 322.613 351.875C319.627 346.095 312.533 343.671 306.653 346.654Z" fill="#0033AD"/>
<path d="M250 0C388.071 0 500 111.929 500 250C500 388.071 388.071 500 250 500C111.929 500 0 388.071 0 250C0 111.929 111.929 0 250 0ZM249.5 38C132.139 38 37 133.139 37 250.5C37 367.861 132.139 463 249.5 463C366.861 463 462 367.861 462 250.5C462 133.139 366.861 38 249.5 38Z" fill="#0000FF"/>
<path d="M109 300C164.228 300 209 344.772 209 400C209 435.449 190.554 466.589 162.737 484.348C99.7039 460.867 48.6979 412.683 21.4922 351.566C38.5488 320.815 71.3432 300 109 300Z" fill="#0000FF"/>
<path d="M71.8381 362.031L76.5732 366.766L71.8381 371.501L67.103 366.766L71.8381 362.031ZM67.103 366.766L71.8381 371.501L67.103 376.236L62.3679 371.501L67.103 366.766ZM62.3679 362.031L67.103 366.766L62.3679 371.501L57.6328 366.766L62.3679 362.031ZM67.103 357.296L71.8381 362.031L67.103 366.766L62.3679 362.031L67.103 357.296ZM71.8381 352.561L76.5732 357.296L71.8381 362.031L67.103 357.296L71.8381 352.561ZM76.5732 347.826L81.3083 352.561L76.5732 357.296L71.8381 352.561L76.5732 347.826ZM81.3083 343.09L86.0434 347.826L81.3083 352.561L76.5732 347.826L81.3083 343.09ZM86.0434 338.355L90.7784 343.09L86.0434 347.826L81.3083 343.09L86.0434 338.355ZM90.7784 333.62L95.5135 338.355L90.7784 343.09L86.0434 338.355L90.7784 333.62ZM95.5135 328.885L100.249 333.62L95.5135 338.355L90.7784 333.62L95.5135 328.885ZM95.5135 338.355L100.249 343.09L95.5135 347.826L90.7784 343.09L95.5135 338.355ZM90.7784 343.09L95.5135 347.826L90.7784 352.561L86.0434 347.826L90.7784 343.09ZM86.0434 347.826L90.7784 352.561L86.0434 357.296L81.3083 352.561L86.0434 347.826ZM81.3083 352.561L86.0434 357.296L81.3083 362.031L76.5732 357.296L81.3083 352.561ZM76.5732 357.296L81.3083 362.031L76.5732 366.766L71.8381 362.031L76.5732 357.296ZM100.249 333.62L104.984 338.355L100.249 343.09L95.5135 338.355L100.249 333.62ZM104.984 328.885L109.719 333.62L104.984 338.355L100.249 333.62L104.984 328.885ZM104.984 319.415L109.719 324.15L104.984 328.885L100.249 324.15L104.984 319.415ZM109.719 324.15L114.454 328.885L109.719 333.62L104.984 328.885L109.719 324.15ZM100.249 324.15L104.984 328.885L100.249 333.62L95.5135 328.885L100.249 324.15ZM100.249 314.68L104.984 319.415L100.249 324.15L95.5135 319.415L100.249 314.68ZM95.5135 319.415L100.249 324.15L95.5135 328.885L90.7784 324.15L95.5135 319.415Z" fill="white"/>
<path d="M133.042 347.473L137.777 352.208L133.042 356.943L128.306 352.208L133.042 347.473ZM128.306 342.738L133.042 347.473L128.306 352.208L123.571 347.473L128.306 342.738ZM123.571 347.473L128.306 352.208L123.571 356.943L118.836 352.208L123.571 347.473ZM128.306 352.208L133.042 356.943L128.306 361.678L123.571 356.943L128.306 352.208ZM133.042 356.943L137.777 361.678L133.042 366.413L128.306 361.678L133.042 356.943ZM137.777 352.208L142.512 356.943L137.777 361.678L133.042 356.943L137.777 352.208ZM142.512 356.943L147.247 361.678L142.512 366.413L137.777 361.678L142.512 356.943ZM142.512 366.413L147.247 371.148L142.512 375.883L137.777 371.148L142.512 366.413ZM137.777 361.678L142.512 366.413L137.777 371.148L133.042 366.413L137.777 361.678ZM137.777 371.148L142.512 375.883L137.777 380.619L133.042 375.883L137.777 371.148ZM109.366 399.559L114.101 404.294L109.366 409.029L104.631 404.294L109.366 399.559ZM114.101 394.824L118.836 399.559L114.101 404.294L109.366 399.559L114.101 394.824ZM118.836 390.089L123.571 394.824L118.836 399.559L114.101 394.824L118.836 390.089ZM123.571 385.354L128.306 390.089L123.571 394.824L118.836 390.089L123.571 385.354ZM128.306 380.619L133.042 385.354L128.306 390.089L123.571 385.354L128.306 380.619ZM133.042 375.883L137.777 380.619L133.042 385.354L128.306 380.619L133.042 375.883ZM104.631 394.824L109.366 399.559L104.631 404.294L99.896 399.559L104.631 394.824ZM99.896 399.559L104.631 404.294L99.896 409.029L95.1609 404.294L99.896 399.559ZM95.1609 394.824L99.896 399.559L95.1609 404.294L90.4258 399.559L95.1609 394.824ZM99.896 390.089L104.631 394.824L99.896 399.559L95.1609 394.824L99.896 390.089ZM90.4258 390.089L95.1609 394.824L90.4258 399.559L85.6907 394.824L90.4258 390.089ZM85.6907 385.354L90.4258 390.089L85.6907 394.824L80.9556 390.089L85.6907 385.354ZM90.4258 380.619L95.1609 385.354L90.4258 390.089L85.6907 385.354L90.4258 380.619ZM95.1609 385.354L99.896 390.089L95.1609 394.824L90.4258 390.089L95.1609 385.354ZM95.1609 375.883L99.896 380.619L95.1609 385.354L90.4258 380.619L95.1609 375.883ZM85.6907 375.883L90.4258 380.619L85.6907 385.354L80.9556 380.619L85.6907 375.883ZM90.4258 371.148L95.1609 375.883L90.4258 380.619L85.6907 375.883L90.4258 371.148ZM95.1609 366.413L99.896 371.148L95.1609 375.883L90.4258 371.148L95.1609 366.413ZM99.896 361.678L104.631 366.413L99.896 371.148L95.1609 366.413L99.896 361.678ZM104.631 356.943L109.366 361.678L104.631 366.413L99.896 361.678L104.631 356.943ZM109.366 352.208L114.101 356.943L109.366 361.678L104.631 356.943L109.366 352.208ZM114.101 347.473L118.836 352.208L114.101 356.943L109.366 352.208L114.101 347.473ZM118.836 352.208L123.571 356.943L118.836 361.678L114.101 356.943L118.836 352.208ZM118.836 342.738L123.571 347.473L118.836 352.208L114.101 347.473L118.836 342.738ZM114.101 356.943L118.836 361.678L114.101 366.413L109.366 361.678L114.101 356.943ZM109.366 361.678L114.101 366.413L109.366 371.148L104.631 366.413L109.366 361.678ZM104.631 366.413L109.366 371.148L104.631 375.883L99.896 371.148L104.631 366.413ZM99.896 371.148L104.631 375.883L99.896 380.619L95.1609 375.883L99.896 371.148ZM133.042 366.413L137.777 371.148L133.042 375.883L128.306 371.148L133.042 366.413ZM128.306 371.148L133.042 375.883L128.306 380.619L123.571 375.883L128.306 371.148ZM123.571 375.883L128.306 380.619L123.571 385.354L118.836 380.619L123.571 375.883ZM118.836 380.619L123.571 385.354L118.836 390.089L114.101 385.354L118.836 380.619ZM114.101 385.354L118.836 390.089L114.101 394.824L109.366 390.089L114.101 385.354ZM109.366 390.089L114.101 394.824L109.366 399.559L104.631 394.824L109.366 390.089Z" fill="white"/>
<path d="M165.872 380.303L170.607 385.038L165.872 389.773L161.136 385.038L165.872 380.303ZM161.136 385.038L165.872 389.773L161.136 394.508L156.401 389.773L161.136 385.038ZM156.401 389.773L161.136 394.508L156.401 399.243L151.666 394.508L156.401 389.773ZM161.136 394.508L165.872 399.243L161.136 403.978L156.401 399.243L161.136 394.508ZM156.401 399.243L161.136 403.978L156.401 408.713L151.666 403.978L156.401 399.243ZM161.136 403.978L165.872 408.713L161.136 413.448L156.401 408.713L161.136 403.978ZM165.872 408.713L170.607 413.448L165.872 418.184L161.136 413.448L165.872 408.713ZM170.607 403.978L175.342 408.713L170.607 413.448L165.872 408.713L170.607 403.978ZM175.342 408.713L180.077 413.448L175.342 418.184L170.607 413.448L175.342 408.713ZM180.077 413.448L184.812 418.184L180.077 422.919L175.342 418.184L180.077 413.448ZM184.812 408.713L189.547 413.448L184.812 418.184L180.077 413.448L184.812 408.713ZM189.547 403.978L194.282 408.713L189.547 413.448L184.812 408.713L189.547 403.978ZM184.812 399.243L189.547 403.978L184.812 408.713L180.077 403.978L184.812 399.243ZM180.077 403.978L184.812 408.713L180.077 413.448L175.342 408.713L180.077 403.978ZM170.607 413.448L175.342 418.184L170.607 422.919L165.872 418.184L170.607 413.448ZM151.666 394.508L156.401 399.243L151.666 403.978L146.931 399.243L151.666 394.508ZM151.666 385.038L156.401 389.773L151.666 394.508L146.931 389.773L151.666 385.038ZM156.401 380.303L161.136 385.038L156.401 389.773L151.666 385.038L156.401 380.303ZM161.136 375.568L165.872 380.303L161.136 385.038L156.401 380.303L161.136 375.568ZM151.666 403.978L156.401 408.713L151.666 413.448L146.931 408.713L151.666 403.978ZM156.401 408.713L161.136 413.448L156.401 418.184L151.666 413.448L156.401 408.713ZM161.136 413.448L165.872 418.184L161.136 422.919L156.401 418.184L161.136 413.448ZM156.401 418.184L161.136 422.919L156.401 427.654L151.666 422.919L156.401 418.184ZM161.136 422.919L165.872 427.654L161.136 432.389L156.401 427.654L161.136 422.919ZM156.401 427.654L161.136 432.389L156.401 437.124L151.666 432.389L156.401 427.654ZM151.666 422.919L156.401 427.654L151.666 432.389L146.931 427.654L151.666 422.919ZM146.931 446.594L151.666 451.329L146.931 456.064L142.196 451.329L146.931 446.594ZM151.666 441.859L156.401 446.594L151.666 451.329L146.931 446.594L151.666 441.859ZM156.401 437.124L161.136 441.859L156.401 446.594L151.666 441.859L156.401 437.124ZM161.136 432.389L165.872 437.124L161.136 441.859L156.401 437.124L161.136 432.389ZM151.666 432.389L156.401 437.124L151.666 441.859L146.931 437.124L151.666 432.389ZM146.931 437.124L151.666 441.859L146.931 446.594L142.196 441.859L146.931 437.124ZM142.196 441.859L146.931 446.594L142.196 451.329L137.461 446.594L142.196 441.859ZM118.521 418.184L123.256 422.919L118.521 427.654L113.786 422.919L118.521 418.184ZM123.256 422.919L127.991 427.654L123.256 432.389L118.521 427.654L123.256 422.919ZM127.991 418.184L132.726 422.919L127.991 427.654L123.256 422.919L127.991 418.184ZM132.726 413.448L137.461 418.184L132.726 422.919L127.991 418.184L132.726 413.448ZM127.991 408.713L132.726 413.448L127.991 418.184L123.256 413.448L127.991 408.713ZM132.726 403.978L137.461 408.713L132.726 413.448L127.991 408.713L132.726 403.978ZM123.256 413.448L127.991 418.184L123.256 422.919L118.521 418.184L123.256 413.448ZM137.461 408.713L142.196 413.448L137.461 418.184L132.726 413.448L137.461 408.713ZM142.196 413.448L146.931 418.184L142.196 422.919L137.461 418.184L142.196 413.448ZM146.931 408.713L151.666 413.448L146.931 418.184L142.196 413.448L146.931 408.713ZM142.196 403.978L146.931 408.713L142.196 413.448L137.461 408.713L142.196 403.978ZM151.666 413.448L156.401 418.184L151.666 422.919L146.931 418.184L151.666 413.448Z" fill="white"/>
</g>
<defs>
<clipPath id="clip0_11_1263">
<rect width="500" height="500" fill="white"/>
</clipPath>
</defs>
</svg>
