<svg width="500" height="500" viewBox="0 0 500 500" fill="none" xmlns="http://www.w3.org/2000/svg">
<g clip-path="url(#clip0_11_2001)">
<circle cx="250" cy="250" r="215" fill="white"/>
<g clip-path="url(#clip1_11_2001)">
<path d="M256.048 144.832C252.592 144.32 252.4 144.192 254.064 144C257.2 143.488 264.496 144.192 269.616 145.344C281.52 148.16 292.208 155.392 303.6 168.128L306.544 171.584L310.832 170.944C329.136 168 347.952 170.304 363.696 177.536C367.984 179.52 374.768 183.488 375.6 184.448C375.92 184.768 376.432 186.944 376.752 189.056C377.904 196.8 377.392 202.624 374.96 207.04C373.616 209.536 373.616 210.176 374.448 212.352C375.088 214.016 377.072 215.168 378.928 215.168C382.896 215.168 386.992 208.896 388.976 200.128L389.808 196.672L391.28 198.336C399.728 207.744 406.32 220.8 407.28 230.016L407.6 232.512L406.128 230.336C403.632 226.56 401.328 224.064 398.192 221.888C392.56 218.112 386.608 216.96 370.928 216.128C356.72 215.296 348.656 214.144 340.72 211.52C327.152 207.04 320.24 201.28 304.24 179.968C297.136 170.56 292.656 165.44 288.24 161.152C278.512 151.744 268.72 146.816 256.048 144.832Z" fill="#FF007A"/>
<path d="M379.056 165.76C379.376 159.488 380.208 155.328 382 151.552C382.64 150.08 383.344 148.736 383.472 148.736C383.664 148.736 383.28 149.888 382.832 151.232C381.488 154.88 381.36 160 382.192 165.76C383.344 173.184 383.856 174.208 391.792 182.272C395.44 186.048 399.728 190.848 401.392 192.832L404.208 196.48L401.392 193.856C397.936 190.528 390 184.256 388.208 183.424C387.056 182.784 386.864 182.784 386.032 183.616C385.392 184.256 385.2 185.28 385.2 190.08C385.008 197.504 384.048 202.112 381.552 206.912C380.208 209.408 380.08 208.896 381.232 206.08C382.064 203.904 382.192 202.944 382.192 195.84C382.192 181.504 380.528 177.984 370.48 172.224C367.984 170.752 363.696 168.576 361.264 167.424C358.64 166.272 356.656 165.248 356.784 165.248C357.104 164.928 366.832 167.744 370.672 169.344C376.432 171.648 377.456 171.84 378.096 171.648C378.544 171.264 378.864 169.92 379.056 165.76Z" fill="#FF007A"/>
<path d="M262.832 190.4C255.92 180.8 251.44 165.952 252.4 154.88L252.72 151.424L254.384 151.744C257.328 152.256 262.448 154.24 264.944 155.712C271.536 159.68 274.544 165.12 277.296 178.688C278.128 182.656 279.28 187.264 279.792 188.736C280.624 191.232 283.76 196.992 286.384 200.64C288.176 203.264 287.024 204.608 282.928 204.288C276.656 203.584 268.272 197.824 262.832 190.4Z" fill="#FF007A"/>
<path d="M370.608 262.208C337.904 249.024 326.384 237.632 326.384 218.304C326.384 215.488 326.576 213.184 326.576 213.184C326.768 213.184 327.92 214.144 329.392 215.36C335.984 220.672 343.408 222.976 364.08 225.92C376.112 227.712 383.088 229.056 389.36 231.232C409.328 237.824 421.744 251.392 424.688 269.696C425.52 275.008 425.008 285.056 423.728 290.304C422.576 294.4 419.248 302.016 418.416 302.208C418.224 302.208 417.904 301.376 417.904 300.032C417.584 293.12 414.128 286.464 408.304 281.344C401.328 275.456 392.432 270.976 370.608 262.208Z" fill="#FF007A"/>
<path d="M347.504 267.648C347.184 265.152 346.352 262.016 345.84 260.736L345.008 258.24L346.48 260.032C348.656 262.528 350.256 265.472 351.792 269.632C352.944 272.768 352.944 273.728 352.944 278.848C352.944 283.776 352.752 284.928 351.792 287.744C350.128 292.224 348.144 295.36 344.88 298.816C338.928 304.896 331.184 308.224 320.112 309.696C318.128 309.888 312.496 310.336 307.568 310.656C295.216 311.296 286.96 312.64 279.472 315.264C278.512 315.584 277.488 315.904 277.296 315.776C276.976 315.456 282.096 312.448 286.192 310.464C291.952 307.648 297.904 306.176 310.96 303.872C317.424 302.912 324.016 301.568 325.68 300.928C342.064 295.872 350.128 283.2 347.504 267.648Z" fill="#FF007A"/>
<path d="M362.544 294.272C358.256 284.864 357.232 275.968 359.6 267.52C359.92 266.688 360.24 265.856 360.56 265.856C360.88 265.856 361.904 266.368 362.864 267.008C364.848 268.352 368.944 270.656 379.568 276.416C392.944 283.712 400.56 289.28 405.808 295.744C410.416 301.376 413.232 307.776 414.576 315.712C415.408 320.192 414.896 330.88 413.744 335.36C410.096 349.376 401.84 360.64 389.808 367.04C388.016 368 386.48 368.704 386.352 368.704C386.224 368.704 386.864 367.04 387.824 365.056C391.792 356.608 392.304 348.544 389.296 339.456C387.504 333.824 383.664 327.104 376.112 315.648C366.96 302.528 364.848 299.008 362.544 294.272Z" fill="#FF007A"/>
<path d="M239.536 344.768C251.76 334.528 266.8 327.296 280.624 324.928C286.576 323.968 296.496 324.288 301.936 325.76C310.704 328.064 318.64 333.056 322.736 339.136C326.704 345.088 328.496 350.208 330.352 361.6C330.992 366.08 331.824 370.688 332.016 371.648C333.36 377.6 335.984 382.208 339.312 384.704C344.432 388.48 353.328 388.672 362.096 385.344C363.568 384.832 364.912 384.384 364.912 384.512C365.232 384.832 360.816 387.84 357.808 389.312C353.712 391.488 350.384 392.128 345.904 392.128C337.968 392.128 331.184 388.032 325.744 379.776C324.592 378.112 322.288 373.312 320.304 368.896C314.544 355.52 311.536 351.552 304.752 347.072C298.8 343.296 291.184 342.464 285.424 345.28C277.808 348.928 275.824 358.656 281.136 364.608C283.312 367.104 287.216 369.088 290.544 369.536C296.624 370.368 301.936 365.568 301.936 359.488C301.936 355.52 300.464 353.216 296.496 351.424C291.184 349.12 285.424 351.744 285.616 356.864C285.616 359.04 286.576 360.32 288.752 361.344C290.096 361.984 290.096 361.984 289.072 361.856C284.272 360.896 283.12 354.944 286.896 351.104C291.504 346.496 301.232 348.48 304.56 354.88C305.904 357.504 306.032 362.816 304.88 366.08C302.064 373.376 294.128 377.152 286.064 374.976C280.624 373.504 278.32 372.032 271.728 365.248C260.144 353.344 255.728 351.04 239.216 348.544L236.08 348.032L239.536 344.768Z" fill="#FF007A"/>
<path fill-rule="evenodd" clip-rule="evenodd" d="M152.688 79.104C191.152 125.824 250.416 198.464 253.424 202.432C255.92 205.76 254.896 208.896 250.8 211.2C248.496 212.544 243.696 213.824 241.392 213.824C238.768 213.824 235.632 212.48 233.456 210.368C231.984 208.896 225.52 199.488 210.992 176.832C199.92 159.488 190.512 145.152 190.384 144.96C189.744 144.64 189.744 144.64 209.84 180.608C222.576 203.2 226.672 211.328 226.672 212.288C226.672 214.464 226.032 215.616 223.344 218.56C218.864 223.488 216.88 229.12 215.408 240.832C213.744 253.888 209.328 263.104 196.592 278.784C189.168 288 188.016 289.664 186.16 293.504C183.856 298.112 183.216 300.8 182.832 306.688C182.512 312.96 183.152 316.928 185.008 322.88C186.672 328.192 188.464 331.648 192.944 338.432C196.72 344.384 199.024 348.864 199.024 350.464C199.024 351.808 199.344 351.808 205.296 350.464C219.504 347.136 231.216 341.568 237.68 334.592C241.648 330.304 242.608 328 242.608 322.048C242.608 318.272 242.416 317.44 241.456 315.136C239.792 311.488 236.656 308.544 229.872 303.936C220.976 297.856 217.136 292.864 216.176 286.272C215.344 280.64 216.368 276.864 221.296 266.432C226.416 255.68 227.76 251.264 228.592 240.32C229.104 233.408 229.936 230.592 231.92 228.416C234.096 226.112 235.888 225.28 241.008 224.64C249.456 223.488 254.896 221.312 259.184 217.216C262.96 213.76 264.624 210.304 264.816 205.184L265.008 201.408L262.832 199.104C255.024 190.208 147.568 72 147.056 72C146.864 72 149.552 75.136 152.688 79.104ZM203.376 313.92C205.168 310.784 204.208 306.816 201.2 304.832C198.384 303.04 194.096 303.872 194.096 306.304C194.096 306.944 194.416 307.648 195.44 307.968C196.912 308.8 197.104 309.632 195.952 311.424C194.8 313.216 194.8 314.88 196.272 316.032C198.576 317.888 201.712 316.864 203.376 313.92Z" fill="#FF007A"/>
<path fill-rule="evenodd" clip-rule="evenodd" d="M270.256 227.072C266.288 228.224 262.512 232.512 261.36 236.8C260.72 239.424 261.04 244.224 262.192 245.696C263.984 248 265.648 248.64 270.256 248.64C279.344 248.64 287.088 244.672 287.92 239.872C288.752 235.904 285.296 230.464 280.496 227.968C278 226.688 272.88 226.24 270.256 227.072ZM280.816 235.328C282.16 233.344 281.648 231.232 279.152 229.696C274.672 226.88 267.952 229.184 267.952 233.472C267.952 235.648 271.408 237.952 274.736 237.952C276.848 237.952 279.792 236.608 280.816 235.328Z" fill="#FF007A"/>
</g>
<path d="M250 0C388.071 0 500 111.929 500 250C500 388.071 388.071 500 250 500C111.929 500 0 388.071 0 250C0 111.929 111.929 0 250 0ZM249.5 38C132.139 38 37 133.139 37 250.5C37 367.861 132.139 463 249.5 463C366.861 463 462 367.861 462 250.5C462 133.139 366.861 38 249.5 38Z" fill="#0000FF"/>
<path d="M109 300C164.228 300 209 344.772 209 400C209 435.449 190.554 466.589 162.737 484.348C99.7039 460.867 48.6979 412.683 21.4922 351.566C38.5488 320.815 71.3432 300 109 300Z" fill="#0000FF"/>
<path d="M71.8376 362.031L76.5727 366.766L71.8376 371.501L67.1025 366.766L71.8376 362.031ZM67.1025 366.766L71.8376 371.501L67.1025 376.236L62.3674 371.501L67.1025 366.766ZM62.3674 362.031L67.1025 366.766L62.3674 371.501L57.6323 366.766L62.3674 362.031ZM67.1025 357.296L71.8376 362.031L67.1025 366.766L62.3674 362.031L67.1025 357.296ZM71.8376 352.561L76.5727 357.296L71.8376 362.031L67.1025 357.296L71.8376 352.561ZM76.5727 347.826L81.3078 352.561L76.5727 357.296L71.8376 352.561L76.5727 347.826ZM81.3078 343.09L86.0429 347.826L81.3078 352.561L76.5727 347.826L81.3078 343.09ZM86.0429 338.355L90.778 343.09L86.0429 347.826L81.3078 343.09L86.0429 338.355ZM90.778 333.62L95.513 338.355L90.778 343.09L86.0429 338.355L90.778 333.62ZM95.513 328.885L100.248 333.62L95.513 338.355L90.778 333.62L95.513 328.885ZM95.513 338.355L100.248 343.09L95.513 347.826L90.778 343.09L95.513 338.355ZM90.778 343.09L95.513 347.826L90.778 352.561L86.0429 347.826L90.778 343.09ZM86.0429 347.826L90.778 352.561L86.0429 357.296L81.3078 352.561L86.0429 347.826ZM81.3078 352.561L86.0429 357.296L81.3078 362.031L76.5727 357.296L81.3078 352.561ZM76.5727 357.296L81.3078 362.031L76.5727 366.766L71.8376 362.031L76.5727 357.296ZM100.248 333.62L104.983 338.355L100.248 343.09L95.513 338.355L100.248 333.62ZM104.983 328.885L109.718 333.62L104.983 338.355L100.248 333.62L104.983 328.885ZM104.983 319.415L109.718 324.15L104.983 328.885L100.248 324.15L104.983 319.415ZM109.718 324.15L114.453 328.885L109.718 333.62L104.983 328.885L109.718 324.15ZM100.248 324.15L104.983 328.885L100.248 333.62L95.513 328.885L100.248 324.15ZM100.248 314.68L104.983 319.415L100.248 324.15L95.513 319.415L100.248 314.68ZM95.513 319.415L100.248 324.15L95.513 328.885L90.778 324.15L95.513 319.415Z" fill="white"/>
<path d="M133.041 347.473L137.776 352.208L133.041 356.943L128.306 352.208L133.041 347.473ZM128.306 342.738L133.041 347.473L128.306 352.208L123.571 347.473L128.306 342.738ZM123.571 347.473L128.306 352.208L123.571 356.943L118.836 352.208L123.571 347.473ZM128.306 352.208L133.041 356.943L128.306 361.678L123.571 356.943L128.306 352.208ZM133.041 356.943L137.776 361.678L133.041 366.413L128.306 361.678L133.041 356.943ZM137.776 352.208L142.511 356.943L137.776 361.678L133.041 356.943L137.776 352.208ZM142.511 356.943L147.246 361.678L142.511 366.413L137.776 361.678L142.511 356.943ZM142.511 366.413L147.246 371.148L142.511 375.883L137.776 371.148L142.511 366.413ZM137.776 361.678L142.511 366.413L137.776 371.148L133.041 366.413L137.776 361.678ZM137.776 371.148L142.511 375.883L137.776 380.619L133.041 375.883L137.776 371.148ZM109.366 399.559L114.101 404.294L109.366 409.029L104.631 404.294L109.366 399.559ZM114.101 394.824L118.836 399.559L114.101 404.294L109.366 399.559L114.101 394.824ZM118.836 390.089L123.571 394.824L118.836 399.559L114.101 394.824L118.836 390.089ZM123.571 385.354L128.306 390.089L123.571 394.824L118.836 390.089L123.571 385.354ZM128.306 380.619L133.041 385.354L128.306 390.089L123.571 385.354L128.306 380.619ZM133.041 375.883L137.776 380.619L133.041 385.354L128.306 380.619L133.041 375.883ZM104.631 394.824L109.366 399.559L104.631 404.294L99.8955 399.559L104.631 394.824ZM99.8955 399.559L104.631 404.294L99.8955 409.029L95.1604 404.294L99.8955 399.559ZM95.1604 394.824L99.8955 399.559L95.1604 404.294L90.4253 399.559L95.1604 394.824ZM99.8955 390.089L104.631 394.824L99.8955 399.559L95.1604 394.824L99.8955 390.089ZM90.4253 390.089L95.1604 394.824L90.4253 399.559L85.6902 394.824L90.4253 390.089ZM85.6902 385.354L90.4253 390.089L85.6902 394.824L80.9551 390.089L85.6902 385.354ZM90.4253 380.619L95.1604 385.354L90.4253 390.089L85.6902 385.354L90.4253 380.619ZM95.1604 385.354L99.8955 390.089L95.1604 394.824L90.4253 390.089L95.1604 385.354ZM95.1604 375.883L99.8955 380.619L95.1604 385.354L90.4253 380.619L95.1604 375.883ZM85.6902 375.883L90.4253 380.619L85.6902 385.354L80.9551 380.619L85.6902 375.883ZM90.4253 371.148L95.1604 375.883L90.4253 380.619L85.6902 375.883L90.4253 371.148ZM95.1604 366.413L99.8955 371.148L95.1604 375.883L90.4253 371.148L95.1604 366.413ZM99.8955 361.678L104.631 366.413L99.8955 371.148L95.1604 366.413L99.8955 361.678ZM104.631 356.943L109.366 361.678L104.631 366.413L99.8955 361.678L104.631 356.943ZM109.366 352.208L114.101 356.943L109.366 361.678L104.631 356.943L109.366 352.208ZM114.101 347.473L118.836 352.208L114.101 356.943L109.366 352.208L114.101 347.473ZM118.836 352.208L123.571 356.943L118.836 361.678L114.101 356.943L118.836 352.208ZM118.836 342.738L123.571 347.473L118.836 352.208L114.101 347.473L118.836 342.738ZM114.101 356.943L118.836 361.678L114.101 366.413L109.366 361.678L114.101 356.943ZM109.366 361.678L114.101 366.413L109.366 371.148L104.631 366.413L109.366 361.678ZM104.631 366.413L109.366 371.148L104.631 375.883L99.8955 371.148L104.631 366.413ZM99.8955 371.148L104.631 375.883L99.8955 380.619L95.1604 375.883L99.8955 371.148ZM133.041 366.413L137.776 371.148L133.041 375.883L128.306 371.148L133.041 366.413ZM128.306 371.148L133.041 375.883L128.306 380.619L123.571 375.883L128.306 371.148ZM123.571 375.883L128.306 380.619L123.571 385.354L118.836 380.619L123.571 375.883ZM118.836 380.619L123.571 385.354L118.836 390.089L114.101 385.354L118.836 380.619ZM114.101 385.354L118.836 390.089L114.101 394.824L109.366 390.089L114.101 385.354ZM109.366 390.089L114.101 394.824L109.366 399.559L104.631 394.824L109.366 390.089Z" fill="white"/>
<path d="M165.871 380.303L170.606 385.038L165.871 389.773L161.136 385.038L165.871 380.303ZM161.136 385.038L165.871 389.773L161.136 394.508L156.401 389.773L161.136 385.038ZM156.401 389.773L161.136 394.508L156.401 399.243L151.666 394.508L156.401 389.773ZM161.136 394.508L165.871 399.243L161.136 403.978L156.401 399.243L161.136 394.508ZM156.401 399.243L161.136 403.978L156.401 408.713L151.666 403.978L156.401 399.243ZM161.136 403.978L165.871 408.713L161.136 413.448L156.401 408.713L161.136 403.978ZM165.871 408.713L170.606 413.448L165.871 418.184L161.136 413.448L165.871 408.713ZM170.606 403.978L175.341 408.713L170.606 413.448L165.871 408.713L170.606 403.978ZM175.341 408.713L180.076 413.448L175.341 418.184L170.606 413.448L175.341 408.713ZM180.076 413.448L184.811 418.184L180.076 422.919L175.341 418.184L180.076 413.448ZM184.811 408.713L189.547 413.448L184.811 418.184L180.076 413.448L184.811 408.713ZM189.547 403.978L194.282 408.713L189.547 413.448L184.811 408.713L189.547 403.978ZM184.811 399.243L189.547 403.978L184.811 408.713L180.076 403.978L184.811 399.243ZM180.076 403.978L184.811 408.713L180.076 413.448L175.341 408.713L180.076 403.978ZM170.606 413.448L175.341 418.184L170.606 422.919L165.871 418.184L170.606 413.448ZM151.666 394.508L156.401 399.243L151.666 403.978L146.931 399.243L151.666 394.508ZM151.666 385.038L156.401 389.773L151.666 394.508L146.931 389.773L151.666 385.038ZM156.401 380.303L161.136 385.038L156.401 389.773L151.666 385.038L156.401 380.303ZM161.136 375.568L165.871 380.303L161.136 385.038L156.401 380.303L161.136 375.568ZM151.666 403.978L156.401 408.713L151.666 413.448L146.931 408.713L151.666 403.978ZM156.401 408.713L161.136 413.448L156.401 418.184L151.666 413.448L156.401 408.713ZM161.136 413.448L165.871 418.184L161.136 422.919L156.401 418.184L161.136 413.448ZM156.401 418.184L161.136 422.919L156.401 427.654L151.666 422.919L156.401 418.184ZM161.136 422.919L165.871 427.654L161.136 432.389L156.401 427.654L161.136 422.919ZM156.401 427.654L161.136 432.389L156.401 437.124L151.666 432.389L156.401 427.654ZM151.666 422.919L156.401 427.654L151.666 432.389L146.931 427.654L151.666 422.919ZM146.931 446.594L151.666 451.329L146.931 456.064L142.196 451.329L146.931 446.594ZM151.666 441.859L156.401 446.594L151.666 451.329L146.931 446.594L151.666 441.859ZM156.401 437.124L161.136 441.859L156.401 446.594L151.666 441.859L156.401 437.124ZM161.136 432.389L165.871 437.124L161.136 441.859L156.401 437.124L161.136 432.389ZM151.666 432.389L156.401 437.124L151.666 441.859L146.931 437.124L151.666 432.389ZM146.931 437.124L151.666 441.859L146.931 446.594L142.196 441.859L146.931 437.124ZM142.196 441.859L146.931 446.594L142.196 451.329L137.461 446.594L142.196 441.859ZM118.52 418.184L123.255 422.919L118.52 427.654L113.785 422.919L118.52 418.184ZM123.255 422.919L127.99 427.654L123.255 432.389L118.52 427.654L123.255 422.919ZM127.99 418.184L132.725 422.919L127.99 427.654L123.255 422.919L127.99 418.184ZM132.725 413.448L137.461 418.184L132.725 422.919L127.99 418.184L132.725 413.448ZM127.99 408.713L132.725 413.448L127.99 418.184L123.255 413.448L127.99 408.713ZM132.725 403.978L137.461 408.713L132.725 413.448L127.99 408.713L132.725 403.978ZM123.255 413.448L127.99 418.184L123.255 422.919L118.52 418.184L123.255 413.448ZM137.461 408.713L142.196 413.448L137.461 418.184L132.725 413.448L137.461 408.713ZM142.196 413.448L146.931 418.184L142.196 422.919L137.461 418.184L142.196 413.448ZM146.931 408.713L151.666 413.448L146.931 418.184L142.196 413.448L146.931 408.713ZM142.196 403.978L146.931 408.713L142.196 413.448L137.461 408.713L142.196 403.978ZM151.666 413.448L156.401 418.184L151.666 422.919L146.931 418.184L151.666 413.448Z" fill="white"/>
</g>
<defs>
<clipPath id="clip0_11_2001">
<rect width="500" height="500" fill="white"/>
</clipPath>
<clipPath id="clip1_11_2001">
<rect width="320" height="320" fill="white" transform="translate(126 72)"/>
</clipPath>
</defs>
</svg>
