<svg width="500" height="500" viewBox="0 0 500 500" fill="none" xmlns="http://www.w3.org/2000/svg">
<g clip-path="url(#clip0_11_1941)">
<circle cx="250" cy="250" r="215" fill="white"/>
<g clip-path="url(#clip1_11_1941)">
<path d="M465 250.113C465 131.157 368.843 35 250.113 35C131.383 35 35 131.157 35 250.113C35 369.068 131.157 465.226 250.113 465.226C369.068 465.226 465 368.843 465 250.113Z" fill="#9391F7"/>
<path d="M209.934 260.496C228.443 257.562 240.858 240.181 237.924 221.672C234.989 203.163 217.609 190.748 199.099 193.682C180.59 196.617 168.175 213.997 171.11 232.507C174.27 251.016 191.651 263.43 209.934 260.496ZM298.417 260.496C316.926 257.562 329.341 240.181 326.406 221.672C323.472 203.163 306.091 190.748 287.582 193.682C269.073 196.617 256.658 213.997 259.593 232.507C262.527 251.016 279.908 263.43 298.417 260.496Z" fill="white"/>
<path d="M248.758 87.5931C156.89 87.5931 82.4014 163.436 82.4014 256.884H124.837C124.837 186.685 179.913 130.029 248.533 130.029C317.378 130.029 372.228 186.911 372.228 256.884H414.664C415.115 163.436 340.627 87.5931 248.758 87.5931Z" fill="white"/>
</g>
<path d="M250 0C388.071 0 500 111.929 500 250C500 388.071 388.071 500 250 500C111.929 500 0 388.071 0 250C0 111.929 111.929 0 250 0ZM249.5 38C132.139 38 37 133.139 37 250.5C37 367.861 132.139 463 249.5 463C366.861 463 462 367.861 462 250.5C462 133.139 366.861 38 249.5 38Z" fill="#0000FF"/>
<path d="M109 300C164.228 300 209 344.772 209 400C209 435.449 190.554 466.589 162.737 484.348C99.7039 460.867 48.6979 412.683 21.4922 351.566C38.5488 320.815 71.3432 300 109 300Z" fill="#0000FF"/>
<path d="M71.8381 362.031L76.5732 366.766L71.8381 371.501L67.103 366.766L71.8381 362.031ZM67.103 366.766L71.8381 371.501L67.103 376.236L62.3679 371.501L67.103 366.766ZM62.3679 362.031L67.103 366.766L62.3679 371.501L57.6328 366.766L62.3679 362.031ZM67.103 357.296L71.8381 362.031L67.103 366.766L62.3679 362.031L67.103 357.296ZM71.8381 352.561L76.5732 357.296L71.8381 362.031L67.103 357.296L71.8381 352.561ZM76.5732 347.826L81.3083 352.561L76.5732 357.296L71.8381 352.561L76.5732 347.826ZM81.3083 343.09L86.0434 347.826L81.3083 352.561L76.5732 347.826L81.3083 343.09ZM86.0434 338.355L90.7784 343.09L86.0434 347.826L81.3083 343.09L86.0434 338.355ZM90.7784 333.62L95.5135 338.355L90.7784 343.09L86.0434 338.355L90.7784 333.62ZM95.5135 328.885L100.249 333.62L95.5135 338.355L90.7784 333.62L95.5135 328.885ZM95.5135 338.355L100.249 343.09L95.5135 347.826L90.7784 343.09L95.5135 338.355ZM90.7784 343.09L95.5135 347.826L90.7784 352.561L86.0434 347.826L90.7784 343.09ZM86.0434 347.826L90.7784 352.561L86.0434 357.296L81.3083 352.561L86.0434 347.826ZM81.3083 352.561L86.0434 357.296L81.3083 362.031L76.5732 357.296L81.3083 352.561ZM76.5732 357.296L81.3083 362.031L76.5732 366.766L71.8381 362.031L76.5732 357.296ZM100.249 333.62L104.984 338.355L100.249 343.09L95.5135 338.355L100.249 333.62ZM104.984 328.885L109.719 333.62L104.984 338.355L100.249 333.62L104.984 328.885ZM104.984 319.415L109.719 324.15L104.984 328.885L100.249 324.15L104.984 319.415ZM109.719 324.15L114.454 328.885L109.719 333.62L104.984 328.885L109.719 324.15ZM100.249 324.15L104.984 328.885L100.249 333.62L95.5135 328.885L100.249 324.15ZM100.249 314.68L104.984 319.415L100.249 324.15L95.5135 319.415L100.249 314.68ZM95.5135 319.415L100.249 324.15L95.5135 328.885L90.7784 324.15L95.5135 319.415Z" fill="white"/>
<path d="M133.042 347.473L137.777 352.208L133.042 356.943L128.306 352.208L133.042 347.473ZM128.306 342.738L133.042 347.473L128.306 352.208L123.571 347.473L128.306 342.738ZM123.571 347.473L128.306 352.208L123.571 356.943L118.836 352.208L123.571 347.473ZM128.306 352.208L133.042 356.943L128.306 361.678L123.571 356.943L128.306 352.208ZM133.042 356.943L137.777 361.678L133.042 366.413L128.306 361.678L133.042 356.943ZM137.777 352.208L142.512 356.943L137.777 361.678L133.042 356.943L137.777 352.208ZM142.512 356.943L147.247 361.678L142.512 366.413L137.777 361.678L142.512 356.943ZM142.512 366.413L147.247 371.148L142.512 375.883L137.777 371.148L142.512 366.413ZM137.777 361.678L142.512 366.413L137.777 371.148L133.042 366.413L137.777 361.678ZM137.777 371.148L142.512 375.883L137.777 380.619L133.042 375.883L137.777 371.148ZM109.366 399.559L114.101 404.294L109.366 409.029L104.631 404.294L109.366 399.559ZM114.101 394.824L118.836 399.559L114.101 404.294L109.366 399.559L114.101 394.824ZM118.836 390.089L123.571 394.824L118.836 399.559L114.101 394.824L118.836 390.089ZM123.571 385.354L128.306 390.089L123.571 394.824L118.836 390.089L123.571 385.354ZM128.306 380.619L133.042 385.354L128.306 390.089L123.571 385.354L128.306 380.619ZM133.042 375.883L137.777 380.619L133.042 385.354L128.306 380.619L133.042 375.883ZM104.631 394.824L109.366 399.559L104.631 404.294L99.896 399.559L104.631 394.824ZM99.896 399.559L104.631 404.294L99.896 409.029L95.1609 404.294L99.896 399.559ZM95.1609 394.824L99.896 399.559L95.1609 404.294L90.4258 399.559L95.1609 394.824ZM99.896 390.089L104.631 394.824L99.896 399.559L95.1609 394.824L99.896 390.089ZM90.4258 390.089L95.1609 394.824L90.4258 399.559L85.6907 394.824L90.4258 390.089ZM85.6907 385.354L90.4258 390.089L85.6907 394.824L80.9556 390.089L85.6907 385.354ZM90.4258 380.619L95.1609 385.354L90.4258 390.089L85.6907 385.354L90.4258 380.619ZM95.1609 385.354L99.896 390.089L95.1609 394.824L90.4258 390.089L95.1609 385.354ZM95.1609 375.883L99.896 380.619L95.1609 385.354L90.4258 380.619L95.1609 375.883ZM85.6907 375.883L90.4258 380.619L85.6907 385.354L80.9556 380.619L85.6907 375.883ZM90.4258 371.148L95.1609 375.883L90.4258 380.619L85.6907 375.883L90.4258 371.148ZM95.1609 366.413L99.896 371.148L95.1609 375.883L90.4258 371.148L95.1609 366.413ZM99.896 361.678L104.631 366.413L99.896 371.148L95.1609 366.413L99.896 361.678ZM104.631 356.943L109.366 361.678L104.631 366.413L99.896 361.678L104.631 356.943ZM109.366 352.208L114.101 356.943L109.366 361.678L104.631 356.943L109.366 352.208ZM114.101 347.473L118.836 352.208L114.101 356.943L109.366 352.208L114.101 347.473ZM118.836 352.208L123.571 356.943L118.836 361.678L114.101 356.943L118.836 352.208ZM118.836 342.738L123.571 347.473L118.836 352.208L114.101 347.473L118.836 342.738ZM114.101 356.943L118.836 361.678L114.101 366.413L109.366 361.678L114.101 356.943ZM109.366 361.678L114.101 366.413L109.366 371.148L104.631 366.413L109.366 361.678ZM104.631 366.413L109.366 371.148L104.631 375.883L99.896 371.148L104.631 366.413ZM99.896 371.148L104.631 375.883L99.896 380.619L95.1609 375.883L99.896 371.148ZM133.042 366.413L137.777 371.148L133.042 375.883L128.306 371.148L133.042 366.413ZM128.306 371.148L133.042 375.883L128.306 380.619L123.571 375.883L128.306 371.148ZM123.571 375.883L128.306 380.619L123.571 385.354L118.836 380.619L123.571 375.883ZM118.836 380.619L123.571 385.354L118.836 390.089L114.101 385.354L118.836 380.619ZM114.101 385.354L118.836 390.089L114.101 394.824L109.366 390.089L114.101 385.354ZM109.366 390.089L114.101 394.824L109.366 399.559L104.631 394.824L109.366 390.089Z" fill="white"/>
<path d="M165.872 380.303L170.607 385.038L165.872 389.773L161.136 385.038L165.872 380.303ZM161.136 385.038L165.872 389.773L161.136 394.508L156.401 389.773L161.136 385.038ZM156.401 389.773L161.136 394.508L156.401 399.243L151.666 394.508L156.401 389.773ZM161.136 394.508L165.872 399.243L161.136 403.978L156.401 399.243L161.136 394.508ZM156.401 399.243L161.136 403.978L156.401 408.713L151.666 403.978L156.401 399.243ZM161.136 403.978L165.872 408.713L161.136 413.448L156.401 408.713L161.136 403.978ZM165.872 408.713L170.607 413.448L165.872 418.184L161.136 413.448L165.872 408.713ZM170.607 403.978L175.342 408.713L170.607 413.448L165.872 408.713L170.607 403.978ZM175.342 408.713L180.077 413.448L175.342 418.184L170.607 413.448L175.342 408.713ZM180.077 413.448L184.812 418.184L180.077 422.919L175.342 418.184L180.077 413.448ZM184.812 408.713L189.547 413.448L184.812 418.184L180.077 413.448L184.812 408.713ZM189.547 403.978L194.282 408.713L189.547 413.448L184.812 408.713L189.547 403.978ZM184.812 399.243L189.547 403.978L184.812 408.713L180.077 403.978L184.812 399.243ZM180.077 403.978L184.812 408.713L180.077 413.448L175.342 408.713L180.077 403.978ZM170.607 413.448L175.342 418.184L170.607 422.919L165.872 418.184L170.607 413.448ZM151.666 394.508L156.401 399.243L151.666 403.978L146.931 399.243L151.666 394.508ZM151.666 385.038L156.401 389.773L151.666 394.508L146.931 389.773L151.666 385.038ZM156.401 380.303L161.136 385.038L156.401 389.773L151.666 385.038L156.401 380.303ZM161.136 375.568L165.872 380.303L161.136 385.038L156.401 380.303L161.136 375.568ZM151.666 403.978L156.401 408.713L151.666 413.448L146.931 408.713L151.666 403.978ZM156.401 408.713L161.136 413.448L156.401 418.184L151.666 413.448L156.401 408.713ZM161.136 413.448L165.872 418.184L161.136 422.919L156.401 418.184L161.136 413.448ZM156.401 418.184L161.136 422.919L156.401 427.654L151.666 422.919L156.401 418.184ZM161.136 422.919L165.872 427.654L161.136 432.389L156.401 427.654L161.136 422.919ZM156.401 427.654L161.136 432.389L156.401 437.124L151.666 432.389L156.401 427.654ZM151.666 422.919L156.401 427.654L151.666 432.389L146.931 427.654L151.666 422.919ZM146.931 446.594L151.666 451.329L146.931 456.064L142.196 451.329L146.931 446.594ZM151.666 441.859L156.401 446.594L151.666 451.329L146.931 446.594L151.666 441.859ZM156.401 437.124L161.136 441.859L156.401 446.594L151.666 441.859L156.401 437.124ZM161.136 432.389L165.872 437.124L161.136 441.859L156.401 437.124L161.136 432.389ZM151.666 432.389L156.401 437.124L151.666 441.859L146.931 437.124L151.666 432.389ZM146.931 437.124L151.666 441.859L146.931 446.594L142.196 441.859L146.931 437.124ZM142.196 441.859L146.931 446.594L142.196 451.329L137.461 446.594L142.196 441.859ZM118.521 418.184L123.256 422.919L118.521 427.654L113.786 422.919L118.521 418.184ZM123.256 422.919L127.991 427.654L123.256 432.389L118.521 427.654L123.256 422.919ZM127.991 418.184L132.726 422.919L127.991 427.654L123.256 422.919L127.991 418.184ZM132.726 413.448L137.461 418.184L132.726 422.919L127.991 418.184L132.726 413.448ZM127.991 408.713L132.726 413.448L127.991 418.184L123.256 413.448L127.991 408.713ZM132.726 403.978L137.461 408.713L132.726 413.448L127.991 408.713L132.726 403.978ZM123.256 413.448L127.991 418.184L123.256 422.919L118.521 418.184L123.256 413.448ZM137.461 408.713L142.196 413.448L137.461 418.184L132.726 413.448L137.461 408.713ZM142.196 413.448L146.931 418.184L142.196 422.919L137.461 418.184L142.196 413.448ZM146.931 408.713L151.666 413.448L146.931 418.184L142.196 413.448L146.931 408.713ZM142.196 403.978L146.931 408.713L142.196 413.448L137.461 408.713L142.196 403.978ZM151.666 413.448L156.401 418.184L151.666 422.919L146.931 418.184L151.666 413.448Z" fill="white"/>
</g>
<defs>
<clipPath id="clip0_11_1941">
<rect width="500" height="500" fill="white"/>
</clipPath>
<clipPath id="clip1_11_1941">
<rect width="430" height="430" fill="white" transform="translate(35 35)"/>
</clipPath>
</defs>
</svg>
