<svg width="500" height="500" viewBox="0 0 500 500" fill="none" xmlns="http://www.w3.org/2000/svg">
<g clip-path="url(#clip0_11_2038)">
<circle cx="250" cy="250" r="215" fill="white"/>
<g clip-path="url(#clip1_11_2038)">
<path d="M250 465C368.741 465 465 368.741 465 250C465 131.259 368.741 35 250 35C131.259 35 35 131.259 35 250C35 368.741 131.259 465 250 465Z" fill="#3D8130"/>
<path d="M331.885 320.043L331.801 319.959L331.885 320.043Z" fill="#3D8130"/>
<path d="M162.74 205.488L153.082 224.301L143.088 244.037L136.033 262.514L131.33 282.166L128.391 303.666L126.627 322.227L124.611 334.404L126.627 343.895L130.07 352.041L136.453 363.295L151.234 372.533L162.152 376.816C164.84 377.656 167.695 378.496 170.131 379.252L183.064 381.604L201.541 382.443H216.826C218.59 382.443 234.043 381.604 234.127 381.52L253.779 381.855L272.76 379.504L280.99 376.061L286.617 369.342L286.869 360.439C286.533 359.684 285.441 356.828 285.105 355.736C284.854 354.98 281.074 350.529 277.631 346.666L277.547 346.582C276.035 344.398 273.6 340.619 273.6 339.359C273.6 338.1 275.111 334.404 275.447 333.732L275.615 333.396L283.51 331.129L288.717 334.908L293.42 332.305L298.711 327.014L307.949 320.211L316.348 315.424L322.982 314.164L331.717 320.127L331.129 319.455L334.74 316.264L338.1 310.721V304.926L337.428 303.246L333.145 306.689L325.502 308.873H325.334L313.576 308.621L296.527 310.385L291.152 310.973L287.037 310.385L276.035 308.873L263.605 306.521L243.533 303.246H243.449L224.217 295.268L207.336 285.525L197.006 278.555L195.998 273.6L197.342 268.98L201.457 265.957L211.031 268.141L231.943 274.607C242.189 276.707 257.811 279.814 258.818 279.898C259.322 279.898 261.338 280.234 266.377 281.074C271.752 281.914 279.143 283.174 280.654 283.174C283.258 283.174 303.33 284.266 304.506 284.35C305.598 284.35 321.891 284.014 323.654 284.014C324.83 284.014 331.129 281.914 334.908 280.57L340.619 273.768L346.078 264.277C346.414 261.506 346.078 258.734 345.07 256.131C343.727 252.604 341.207 249.58 338.016 247.564C336.336 250.756 334.152 252.771 331.633 253.695C330.709 254.031 329.617 254.199 328.609 254.199C327.098 254.199 325.586 253.863 324.326 253.191L325.166 251.68C327.014 252.604 329.113 252.771 331.129 252.1C333.396 251.26 335.328 249.244 336.84 246.137C334.992 246.809 332.977 247.229 330.961 247.229C329.701 247.229 328.441 247.145 327.182 246.809L327.35 245.969L327.518 245.129C327.602 245.129 334.068 246.725 338.939 242.945C342.383 240.342 344.314 235.639 344.65 229.172L339.023 235.807L332.221 238.914C329.197 239.67 319.119 242.189 318.195 242.189C317.859 242.189 316.516 242.021 313.24 241.434C309.125 240.762 302.994 239.838 301.398 239.838C298.543 239.838 294.512 236.73 294.092 236.395L293.588 236.059L296.779 226.736L305.598 216.742L314.92 210.107H326.51L337.428 211.283L342.131 216.658L344.398 220.018V210.947L335.328 207.672C334.32 207.504 325.334 206.244 323.15 206.244C321.051 206.244 312.988 207.504 311.645 207.672L299.971 215.23L299.047 213.803L310.973 206.076H311.141C311.561 205.992 320.631 204.564 323.066 204.564C325.418 204.564 335.16 205.992 335.58 206.076L335.748 206.16L345.574 209.771L346.498 210.275L346.582 209.604L341.963 205.572L333.648 201.541L323.57 200.701L311.98 202.717L307.361 204.732L306.689 203.137L311.561 201.037L323.486 198.937L334.068 199.861L334.488 200.113L331.297 195.158L322.311 187.264L322.395 187.18L287.457 188.187C287.457 188.187 282.922 188.775 277.715 189.447L282.67 196.586L285.189 201.037L283.93 205.488L282.25 204.984L283.342 201.205L281.158 197.426L275.867 189.783L276.203 189.531C269.652 190.371 262.682 191.211 262.262 191.211C261.506 191.211 233.455 193.311 232.279 193.311C229.928 193.143 227.576 192.891 225.309 192.387C224.889 192.135 206.16 185.332 205.488 184.912C204.816 184.492 198.266 178.193 198.266 178.193L185.5 174.246L174.33 188.02L162.74 205.488ZM299.047 244.037C300.727 244.793 302.238 245.717 303.834 246.641L313.408 247.732L318.867 246.557L319.203 248.236L313.492 249.412L306.857 248.656C309.713 250.756 312.316 253.107 314.668 255.795C316.348 257.727 317.859 259.826 319.119 262.01L317.607 262.85C316.096 260.33 314.332 257.895 312.232 255.795C309.461 252.939 306.354 250.336 302.994 248.236L298.123 245.465L299.047 244.037ZM203.053 212.627L210.695 205.32L217.33 199.861L226.82 198.014L236.814 197.678H247.48L256.299 198.014L274.187 198.35L279.814 201.793L286.701 208.092L290.648 212.963L292.496 222.873L290.816 223.209L289.053 213.719L285.441 209.184L278.807 203.137L273.768 200.029L259.742 199.777L265.873 203.137C269.148 204.816 274.775 207.84 275.363 209.1C275.783 209.771 280.234 214.139 284.35 218.002L284.434 218.086L290.732 226.232L291.656 232.951L289.977 233.203L289.137 226.988L283.174 219.262C281.074 217.33 274.523 211.115 273.936 209.939C273.432 209.268 269.064 206.748 265.201 204.732L256.215 199.777L247.564 199.525H236.982L227.072 199.777L218.254 201.457L211.955 206.58L204.816 213.467L204.061 218.002L205.572 219.346L209.352 217.33L215.566 209.604L226.82 205.32L241.434 203.809L253.779 204.984L269.82 213.299L276.455 217.246L282.838 225.729L285.777 234.967L290.061 237.738V241.518L286.113 245.129L279.059 248.068L276.035 250.588L272.844 255.795L271.248 258.398L271.08 258.482C268.98 259.574 265.285 261.506 264.277 261.506C263.521 261.674 258.818 263.773 254.619 265.873L254.199 265.957C253.863 266.041 246.473 268.309 244.625 268.645L244.373 266.965C245.969 266.713 252.939 264.613 253.611 264.361C257.811 262.346 263.018 259.91 263.941 259.91C265.957 259.154 267.889 258.23 269.82 257.139L270.576 255.879L274.439 249.58L275.363 248.824C272.676 248.572 269.148 248.152 268.225 247.648C267.805 247.48 265.285 247.145 252.1 247.145C248.824 247.145 241.098 245.381 240.006 245.045C239.166 244.793 231.271 242.441 231.188 242.441L231.02 242.357L230.852 242.189C230.768 242.105 223.461 235.135 218.086 232.027L218.926 230.516C224.133 233.539 230.768 239.754 231.943 240.846C233.203 241.182 239.754 243.197 240.594 243.449C241.518 243.785 249.076 245.465 252.1 245.465C267.973 245.465 268.645 245.885 269.064 246.221C269.652 246.557 273.432 246.977 276.623 247.229L276.539 247.816L277.799 246.725L284.854 243.785L287.961 240.93V238.83L285.777 237.402L285.861 237.654L278.555 240.342L268.477 241.518C267.973 241.518 265.789 241.602 263.354 241.602C260.498 241.602 257.391 241.518 256.467 241.182C255.123 240.762 246.641 238.914 242.441 237.99H242.357L242.273 237.906C236.982 235.051 230.432 231.439 229.928 230.516C229.508 230.012 226.232 228.332 223.461 226.988H223.377L214.055 221.529L212.795 221.781L212.627 220.689L209.688 219.01L205.152 221.445L201.961 218.674L203.053 212.627ZM206.916 252.855L207.336 254.535L201.625 255.879L198.77 256.551L198.602 255.879L198.35 254.871L206.916 252.855ZM210.527 260.834L210.107 262.514C208.176 262.094 206.16 262.178 204.229 262.514C201.037 263.102 196.334 264.949 191.799 270.156L190.539 269.064C199.861 258.146 210.107 260.666 210.527 260.834Z" fill="#3D8130"/>
<path d="M222.033 218.338C222.537 218.254 234.463 216.826 235.975 216.826C236.563 216.826 238.242 216.994 240.426 217.162C243.365 217.414 248.32 217.834 249.076 217.75C250.252 217.414 262.01 216.406 263.354 216.238L270.324 215.734L268.896 214.895L253.191 206.748L241.35 205.572L227.072 207L216.49 211.031L211.115 217.75L214.559 219.766L222.033 218.338Z" fill="#3D8130"/>
<path d="M263.438 218.002C258.23 218.506 250.252 219.262 249.412 219.43C248.656 219.598 245.969 219.43 240.258 218.926C238.326 218.758 236.479 218.59 235.975 218.59C234.799 218.59 225.729 219.682 222.285 220.018L216.742 221.025L224.301 225.477C226.652 226.568 230.684 228.584 231.355 229.592C232.027 230.264 237.738 233.539 243.029 236.395C244.373 236.646 255.459 239.082 257.139 239.67C258.314 240.09 264.781 240.006 268.561 239.922L278.471 238.746L284.434 236.479L284.098 236.311L281.074 226.736L275.111 218.758L271.584 216.658L271.668 217.498L263.438 218.002Z" fill="#3D8130"/>
<path d="M341.039 217.33L336.84 212.627L326.594 211.451H315.676L306.857 217.75L298.459 227.24L295.771 235.051C297.115 236.059 299.803 237.738 301.566 237.738C303.33 237.738 309.041 238.662 313.66 239.418C315.844 239.754 318.027 240.09 318.363 240.09C319.119 240.006 327.014 238.074 331.885 236.898L338.1 234.043L343.055 228.332L342.635 225.645L327.35 219.43L307.781 218.842L307.865 217.162L327.77 217.75L344.23 224.469L344.902 228.752C344.902 228.5 344.902 228.248 344.902 227.996V223.293L341.039 217.33Z" fill="#3D8130"/>
<path d="M322.73 315.844L317.02 316.936L308.957 321.555L299.887 328.273L297.367 330.793L303.078 334.824L303.498 338.016L299.635 341.879L298.459 340.703L301.734 337.428L301.566 335.832L296.191 332.053L294.596 333.648L291.236 335.496L290.312 340.031L295.016 344.146L301.818 343.895C303.078 342.971 305.178 341.627 306.186 341.543C307.193 340.955 308.201 340.283 309.125 339.527C311.393 337.764 312.316 337.176 312.988 337.176C315.004 336.168 316.936 335.076 318.783 333.816L319.035 333.648L327.266 334.572L330.121 337.428L329.533 338.016C327.77 339.947 325.754 342.467 325.67 343.055C325.67 343.475 325.586 343.895 325.418 344.23L327.35 343.139L336.42 336.672L337.428 338.1L328.189 344.65L323.906 347.002C323.738 347.254 323.57 347.506 323.486 347.59L323.15 347.338L316.6 350.949L312.064 357.5L310.469 361.363L313.744 365.982L317.355 370.098L321.639 370.602L325.586 369.762L325.502 368.922L329.869 362.035L338.1 354.057L339.275 355.316L331.129 363.211L327.182 369.342L327.434 373.961L331.633 376.816L337.176 377.404L340.283 376.48L339.695 375.557L340.115 375.053C340.283 374.801 344.818 369.678 345.742 368.838C346.414 368.166 350.277 363.715 352.209 361.531L353.469 362.623C353.217 362.875 347.842 369.174 346.918 370.014C346.246 370.686 342.971 374.297 341.795 375.641L344.734 380.008H349.689L353.973 378.076L357.5 372.869L362.203 367.83L363.463 369.006L358.76 373.961L355.148 379.42L350.025 381.687H343.811L341.207 377.824L337.26 379L330.961 378.412L325.754 374.801L325.586 371.441L321.639 372.281L316.432 371.609L312.484 367.074L306.605 363.547L300.475 356.744L298.963 346.162L300.643 345.91L301.902 354.98L309.209 349.186L317.104 341.627L321.639 335.412L319.455 335.16C317.02 336.756 314.164 338.52 313.156 338.688C312.148 339.275 311.141 339.947 310.217 340.703C307.865 342.467 306.941 343.055 306.354 343.055C305.094 343.643 303.834 344.398 302.742 345.238L302.49 345.406L294.512 345.742L288.549 340.451L289.389 336.42L288.801 336.756L283.426 332.893L277.127 334.74C276.455 336.252 275.951 337.764 275.615 339.359C275.699 340.031 277.547 343.139 279.227 345.574C281.494 348.094 286.701 354.057 287.037 355.316C287.289 356.24 288.381 358.928 288.801 359.936L288.885 360.104L288.633 371.525L291.908 376.396C293.588 377.404 305.934 384.627 307.361 385.467C308.369 386.055 317.271 388.574 322.73 390.086L341.123 391.85L355.904 389.834L368.586 384.039L375.473 377.404L373.877 371.525L365.395 355.736L359.264 346.414L348.598 334.824L332.893 326.174L330.541 321.135L322.73 315.844Z" fill="#3D8130"/>
<path d="M336.084 281.83L335.832 281.914C334.152 282.502 325.586 285.525 323.738 285.525C321.975 285.525 304.758 285.777 304.59 285.861C304.338 285.861 283.342 284.686 280.738 284.686C279.059 284.686 272.256 283.594 266.209 282.586C262.85 281.998 259.406 281.494 258.902 281.494C257.727 281.494 235.975 277.043 231.607 276.203H231.523L210.611 269.736L201.877 267.805L198.854 270.072L197.846 273.684L198.602 277.547L208.344 284.098L225.057 293.756L244.037 301.65L263.941 304.842L276.371 307.193L291.236 309.209L313.576 306.857H313.66L325.334 307.109L332.389 305.094L338.352 300.307L343.223 292.832L344.314 289.389L342.719 285.525C335.664 291.908 334.908 292.16 334.488 292.244L327.266 294.008L307.193 294.932H307.109L286.113 293.756L265.285 289.977L248.488 290.312H248.404L230.936 285.861L215.482 280.486L207.252 275.447L208.176 274.02L216.322 278.975L231.523 284.266L248.74 288.633L265.537 288.297H265.621L286.449 292.076L307.277 293.252L327.182 292.412L334.152 290.648C334.572 290.48 336.924 288.633 341.879 284.098C342.551 283.51 342.971 283.09 343.139 282.922L349.521 274.187L351.705 270.072C351.369 268.645 351.033 267.301 350.865 265.873C350.025 264.529 349.102 263.354 348.01 262.178C348.01 262.934 348.01 263.689 347.842 264.445V264.613L342.047 274.607L336.084 281.83Z" fill="#983B1F"/>
<path d="M375.221 370.938L366.654 354.98L360.439 345.49L349.689 333.48L334.152 324.998L331.885 320.127L331.465 320.379C331.465 320.379 332.893 325.586 333.9 326.09C334.908 326.594 348.346 333.48 349.018 333.816C349.689 334.152 361.363 348.094 361.363 348.094L370.77 364.471L376.396 377.068C376.396 377.068 369.174 384.459 368.754 384.543C368.334 384.627 354.393 391.43 353.973 391.43C353.553 391.43 340.031 392.941 339.275 392.773C338.52 392.521 321.891 391.094 320.631 391.01C319.287 390.926 303.918 384.795 303.918 384.795L290.648 376.816L286.869 370.938L281.578 376.9C281.578 376.9 274.104 380.68 273.096 380.68C272.088 380.68 253.779 383.115 252.352 383.115H215.482C215.482 383.115 179.033 382.443 177.438 381.687C176.934 381.436 173.994 380.512 170.131 379.252L167.023 378.664L162.152 376.816C156.189 374.969 150.814 373.373 150.814 373.373L135.781 363.631C135.781 363.631 129.482 352.713 129.23 352.125C128.979 351.537 125.115 342.383 125.115 341.963C125.115 341.543 123.771 334.236 123.771 334.236L126.459 317.523L127.635 299.971L130.49 280.822C130.49 280.822 135.277 261.59 135.361 260.75C135.445 259.826 143.172 240.846 143.172 240.846L151.318 226.148L162.068 203.977L173.91 187.264L185.416 173.574L186.172 173.826L184.828 172.734L173.658 186.592L161.229 204.648L151.486 223.629L141.492 243.281L134.354 261.926L129.566 281.746L126.627 303.414L124.863 321.975L122.764 334.488L124.863 344.398L128.475 352.797L135.109 364.555L150.311 374.129L166.352 380.428L182.729 383.451L201.457 384.375H216.742C218.506 384.375 233.203 383.535 234.127 383.451L253.863 383.787H253.947L273.18 381.436H273.264L282.082 377.74L286.617 372.281L290.396 377.908L290.564 377.992C290.732 378.076 304.758 386.223 306.186 387.146C307.697 388.07 320.547 391.598 322.059 391.934L340.871 393.697L355.988 391.598H356.072L369.174 385.635L369.342 385.551L377.152 377.992L375.221 370.938Z" fill="black"/>
<path d="M173.91 187.264L162.068 203.977L151.318 226.148L143.172 240.846C143.172 240.846 135.445 259.826 135.361 260.75C135.277 261.674 130.49 280.822 130.49 280.822L127.635 299.971L126.459 317.523L123.771 334.236C123.771 334.236 125.115 341.543 125.115 341.963C125.115 342.383 128.979 351.537 129.23 352.125C129.482 352.713 135.781 363.631 135.781 363.631L150.814 373.373C150.814 373.373 156.189 374.969 162.152 376.816L151.234 372.533L136.453 363.295L130.07 352.041L126.627 343.895L124.611 334.404L126.627 322.227L128.391 303.666L131.33 282.166L136.033 262.514L143.088 244.037L153.082 224.301L162.74 205.488L175.086 187.6L186.256 173.826L185.5 173.574L173.91 187.264Z" fill="black"/>
<path d="M323.066 314.08L316.432 315.34L308.033 320.127L298.795 326.93L293.504 332.221L288.801 334.824L283.594 331.045L275.699 333.313L275.531 333.648C275.195 334.404 273.684 338.016 273.684 339.275C273.684 340.535 276.203 344.398 277.631 346.498L277.715 346.582C281.158 350.445 284.937 354.896 285.189 355.652C285.441 356.744 286.617 359.6 286.953 360.355L286.701 369.258L281.074 375.977L272.844 379.42L253.863 381.771L234.211 381.436C234.043 381.436 218.59 382.359 216.91 382.359H201.625L183.148 381.52L170.215 379.168C173.994 380.344 177.018 381.352 177.521 381.604C179.033 382.359 215.566 383.031 215.566 383.031H252.436C253.863 383.031 272.256 380.596 273.18 380.596C274.188 380.596 281.662 376.816 281.662 376.816L286.953 370.854L290.732 376.732L304.002 384.711C304.002 384.711 319.371 390.758 320.715 390.926C322.059 391.01 338.604 392.438 339.359 392.689C340.115 392.941 353.637 391.346 354.057 391.346C354.477 391.346 368.418 384.627 368.838 384.459C369.258 384.375 376.48 376.984 376.48 376.984L370.854 364.387L361.447 348.01C361.447 348.01 349.773 334.068 349.102 333.732C348.43 333.397 334.992 326.51 333.984 326.006C332.977 325.502 331.549 320.295 331.549 320.295L331.969 320.043V319.959L323.066 314.08ZM332.809 326.174L348.514 334.824L359.012 346.414L365.143 355.736L373.625 371.525L375.221 377.404L368.334 384.039L355.652 389.834L340.871 391.85L322.479 390.086C317.02 388.574 308.117 386.055 307.109 385.467C305.682 384.627 293.336 377.404 291.656 376.396L288.381 371.525L288.633 360.104V360.02C288.213 359.012 287.121 356.324 286.869 355.4C286.533 354.141 281.326 348.178 279.059 345.658C277.379 343.139 275.447 340.031 275.447 339.443C275.783 337.848 276.287 336.336 276.959 334.824L283.258 332.977L288.633 336.84L289.221 336.504L288.381 340.535L294.344 345.826L302.322 345.49L302.574 345.322C303.666 344.482 304.926 343.727 306.186 343.139C306.857 343.139 307.697 342.551 310.049 340.787C310.973 340.031 311.98 339.359 312.988 338.772C313.996 338.688 316.936 336.84 319.287 335.244L321.471 335.496L316.936 341.711L309.041 349.27L301.734 355.064L300.475 345.994L298.795 346.246L300.307 356.828L306.438 363.631L312.316 367.158L316.264 371.693L321.471 372.365L325.418 371.525L325.586 374.885L330.793 378.496L337.092 379.084L341.039 377.908L343.643 381.771H349.857L354.98 379.504L358.592 374.045L363.295 369.09L362.035 367.914L357.332 372.953L353.805 378.16L349.521 380.092H344.566L341.627 375.725C342.803 374.381 346.078 370.77 346.75 370.098C347.674 369.174 353.049 362.959 353.301 362.707L352.041 361.615C350.109 363.883 346.246 368.25 345.574 368.922C344.65 369.846 340.115 374.969 339.947 375.137L339.527 375.641L340.115 376.564L337.008 377.488L331.465 376.9L327.266 374.045L327.014 369.426L330.961 363.295L339.107 355.4L337.932 354.141L329.701 362.119L325.334 369.006L325.418 369.846L321.471 370.686L317.188 370.182L313.576 366.066L310.301 361.447L311.896 357.584L316.432 351.033L322.982 347.422L323.318 347.674C323.402 347.506 323.57 347.338 323.738 347.086L328.021 344.734L337.26 338.184L336.252 336.756L327.182 343.223L325.25 344.314C325.418 343.979 325.502 343.559 325.502 343.139C325.586 342.467 327.602 340.031 329.365 338.1L329.953 337.512L327.098 334.656L318.867 333.732L318.615 333.9C316.768 335.16 314.836 336.336 312.82 337.26C312.148 337.26 311.225 337.932 308.957 339.611C308.033 340.367 307.025 341.039 306.018 341.627C305.01 341.711 302.994 343.055 301.65 343.979L294.848 344.23L290.145 340.115L291.068 335.58L294.428 333.732L296.023 332.137L301.398 335.916L301.566 337.512L298.291 340.787L299.467 341.963L303.33 338.1L302.91 334.908L297.199 330.877L299.719 328.357L308.789 321.639L316.852 317.02L322.562 315.928L330.289 321.219L332.809 326.174ZM309.797 363.715L307.529 362.371L302.49 356.828L310.217 350.781L318.195 343.055L323.402 335.832L326.342 336.168L327.602 337.428C326.006 339.191 323.822 341.795 323.822 342.971C323.57 343.979 323.066 344.902 322.479 345.658L315.172 349.689L310.301 356.66L308.285 361.699L309.797 363.715Z" fill="black"/>
<path d="M330.373 192.555L334.656 198.182C334.656 198.182 336.756 201.457 337.512 201.709C338.268 201.961 345.238 205.992 345.238 205.992L348.094 209.184L347.506 211.031L345.322 210.359L345.658 221.193H346.33V211.451L348.262 212.543L348.766 208.428L343.307 203.641L337.428 200.785L337.68 200.617L333.145 193.479L323.99 185.416L322.982 186.592H323.906L330.373 192.555Z" fill="black"/>
<path d="M344.65 236.814C344.65 236.814 341.543 243.029 341.207 243.197C340.871 243.449 338.1 244.625 338.1 244.625L338.352 246.137C339.611 247.061 340.871 248.068 341.963 249.16C342.131 249.412 343.979 253.107 345.49 255.879H347.002C345.574 251.68 342.719 248.068 338.939 245.801C339.107 245.465 339.275 245.045 339.443 244.709C339.695 244.541 340.031 244.373 340.283 244.121C344.398 241.014 346.498 235.639 346.75 228.08V222.789L345.742 221.277L345.994 229.424L344.65 236.814Z" fill="black"/>
<path d="M331.885 194.738L335.076 199.693L334.656 199.441L324.074 198.518L312.148 200.617L307.277 202.717L307.949 204.313L312.568 202.297L324.158 200.281L334.236 201.121L342.551 205.152L347.17 209.184L347.086 209.855L346.162 209.352L336.336 205.74L336.168 205.656C335.748 205.572 326.09 204.145 323.654 204.145C321.219 204.145 312.148 205.572 311.729 205.656H311.561L299.635 213.383L300.559 214.811L312.232 207.252C313.576 207.084 321.639 205.824 323.738 205.824C325.922 205.824 334.908 207.168 335.916 207.252L344.986 210.527V219.766L342.719 216.406L338.016 211.031L327.098 209.855H315.508L306.186 216.49L297.367 226.484L294.176 235.807L294.68 236.143C295.1 236.479 299.131 239.586 301.986 239.586C303.582 239.586 309.797 240.594 313.828 241.182C317.104 241.686 318.447 241.937 318.783 241.937C319.707 241.937 329.785 239.418 332.809 238.662L339.611 235.555L345.238 228.92C344.902 235.387 342.971 240.09 339.527 242.693C334.572 246.473 328.105 244.877 328.105 244.877L327.937 245.717L327.77 246.557C329.029 246.809 330.289 246.977 331.549 246.977C333.564 246.977 335.58 246.641 337.428 245.885C335.916 248.992 333.984 251.008 331.717 251.848C329.785 252.52 327.602 252.352 325.754 251.428L324.914 252.939C326.258 253.611 327.77 253.947 329.197 253.947C330.205 253.947 331.213 253.779 332.221 253.443C334.74 252.52 336.84 250.504 338.604 247.313C341.795 249.328 344.314 252.352 345.658 255.879H345.91C344.482 253.107 342.551 249.412 342.383 249.16C341.207 248.068 340.031 247.061 338.771 246.137L338.52 244.625C338.52 244.625 341.291 243.449 341.627 243.197C341.963 242.945 345.07 236.814 345.07 236.814L346.414 229.508L346.162 221.361L345.826 210.527L348.01 211.199L348.598 209.352L345.742 206.16C345.742 206.16 338.771 202.045 338.016 201.877C337.26 201.625 335.16 198.35 335.16 198.35L330.877 192.723L324.326 186.844H323.402L323.318 186.928L331.885 194.738ZM344.986 228.752L344.314 224.469L327.854 217.75L307.949 217.162L307.865 218.842L327.434 219.43L342.719 225.645L343.139 228.332L338.184 234.043L331.969 236.898C327.098 238.074 319.203 240.006 318.447 240.09C318.111 240.09 315.928 239.754 313.744 239.418C309.125 238.662 303.414 237.738 301.65 237.738C299.971 237.738 297.283 236.059 295.855 235.051L298.543 227.24L306.941 217.75L315.76 211.451H326.678L336.924 212.627L341.123 217.33L345.07 223.293V227.996C344.986 228.248 344.986 228.5 344.986 228.752Z" fill="black"/>
<path d="M291.32 310.805L296.695 310.217H287.205L291.32 310.805Z" fill="black"/>
<path d="M339.107 310.553C338.855 310.973 333.984 318.867 333.984 318.867L331.801 320.043L332.305 320.631L336.168 317.271L339.863 311.057V310.217H339.107C339.191 310.385 339.191 310.469 339.107 310.553Z" fill="black"/>
<path d="M339.107 310.553C339.107 310.469 339.191 310.301 339.191 310.217H338.268V310.553L334.908 316.096L331.297 319.287L331.885 319.959L331.969 320.043L334.152 318.867C334.068 318.867 338.939 311.057 339.107 310.553Z" fill="black"/>
<path d="M347.17 259.07L347.926 260.162C347.758 258.734 347.506 257.307 347.002 255.879H345.49C346.414 257.643 347.17 259.07 347.17 259.07Z" fill="black"/>
<path d="M352.629 268.477C352.545 268.896 351.537 272.256 351.285 272.76C351.033 273.348 343.139 284.182 343.139 284.182L344.986 287.961C344.986 287.961 345.322 290.648 345.07 291.068C344.818 291.488 337.848 302.322 337.848 302.322L338.939 305.346C338.939 305.346 339.191 309.125 339.107 310.301H339.863V304.506L338.939 301.986L339.695 301.398L344.818 293.504L346.162 289.221L344.146 284.266C344.314 284.098 344.398 284.014 344.398 284.014L350.949 275.027L353.553 270.24L353.469 269.904C353.133 268.561 352.797 267.133 352.629 265.705C352.629 265.369 352.629 264.445 348.262 259.826L347.926 260.162L350.529 263.857C350.529 263.857 352.713 268.057 352.629 268.477Z" fill="black"/>
<path d="M345.49 255.879H345.238C346.246 258.482 346.582 261.254 346.246 264.025L340.703 273.516L334.992 280.318C331.129 281.662 324.83 283.762 323.738 283.762C321.975 283.762 305.682 284.014 304.59 284.098C303.33 284.014 283.342 282.922 280.738 282.922C279.227 282.922 271.836 281.746 266.461 280.822C261.506 279.982 259.406 279.646 258.902 279.646C257.811 279.562 242.273 276.455 232.027 274.355L211.115 267.889L201.541 265.705L197.426 268.729L196.082 273.348L197.09 278.303L207.42 285.273L224.301 295.016L243.533 302.994H243.617L263.689 306.27L276.119 308.621L287.121 310.133H296.695L313.744 308.369L325.502 308.621H325.67L333.313 306.438L337.596 302.994L338.268 304.674V310.133H339.191C339.275 308.957 339.023 305.178 339.023 305.178L337.932 302.154C337.932 302.154 344.902 291.32 345.154 290.9C345.406 290.48 345.07 287.793 345.07 287.793L343.223 284.014C343.223 284.014 351.201 273.18 351.369 272.592C351.621 272.004 352.545 268.729 352.713 268.309C352.797 267.889 350.613 263.689 350.613 263.689L348.01 259.994L347.254 258.902C347.17 259.07 346.414 257.643 345.49 255.879ZM347.926 264.445C348.01 263.689 348.094 262.934 348.094 262.178C349.186 263.27 350.109 264.529 350.949 265.873C351.117 267.301 351.369 268.729 351.789 270.072L349.605 274.187L343.223 282.922C343.055 283.09 342.551 283.51 341.963 284.098C337.008 288.633 334.74 290.396 334.236 290.648L327.266 292.412L307.361 293.252L286.533 292.076L265.705 288.297H265.621L248.824 288.633L231.607 284.266L216.406 278.975L208.26 274.02L207.336 275.447L215.566 280.486L231.02 285.861L248.488 290.312H248.572L265.369 289.977L286.197 293.756L307.193 294.932H307.277L327.35 294.008L334.572 292.244C334.908 292.16 335.748 291.908 342.803 285.525L344.398 289.389L343.307 292.832L338.436 300.307L332.473 305.094L325.418 307.109L313.744 306.857H313.66L291.32 309.209L276.455 307.193L264.025 304.842L244.121 301.65L225.141 293.756L208.428 284.098L198.686 277.547L197.93 273.684L198.937 270.072L201.961 267.805L210.695 269.736L231.607 276.203H231.691C236.059 277.127 257.727 281.494 258.986 281.494C259.406 281.494 262.934 282.082 266.293 282.586C272.34 283.594 279.143 284.686 280.822 284.686C283.426 284.686 304.422 285.861 304.674 285.861C304.842 285.861 322.059 285.525 323.822 285.525C325.67 285.525 334.236 282.502 335.916 281.914L336.168 281.83L342.215 274.607L348.01 264.613L347.926 264.445Z" fill="black"/>
<path d="M204.229 262.514C206.16 262.094 208.176 262.094 210.107 262.514L210.527 260.834C210.107 260.75 199.861 258.146 190.539 269.064L191.799 270.156C196.334 264.865 201.037 263.102 204.229 262.514Z" fill="black"/>
<path d="M201.541 255.879L207.252 254.535L206.916 252.855L198.35 254.871L198.602 255.879H201.541Z" fill="black"/>
<path d="M198.77 256.551L201.541 255.879H198.602L198.77 256.551Z" fill="black"/>
<path d="M303.162 248.32C306.521 250.504 309.629 253.023 312.4 255.879H314.752C312.4 253.191 309.797 250.84 306.941 248.74L313.576 249.496L319.287 248.32L318.951 246.641L313.492 247.816L303.918 246.725C302.406 245.717 300.811 244.877 299.131 244.121L298.375 245.633L303.162 248.32Z" fill="black"/>
<path d="M317.691 262.934L319.203 262.094C317.943 259.91 316.432 257.811 314.752 255.879H312.4C314.416 258.062 316.18 260.414 317.691 262.934Z" fill="black"/>
<path d="M209.687 219.01L212.627 220.689L212.795 221.781L214.055 221.529L223.377 226.988H223.461C226.232 228.332 229.508 230.012 229.928 230.516C230.516 231.355 236.982 234.967 242.273 237.906L242.357 237.99H242.441C246.725 238.914 255.123 240.762 256.467 241.182C257.475 241.518 260.582 241.602 263.354 241.602C265.789 241.602 268.057 241.518 268.477 241.518L278.555 240.342L285.861 237.654L285.777 237.402L287.961 238.83V240.93L284.854 243.785L277.799 246.725L276.539 247.816L276.623 247.229C273.432 246.977 269.652 246.473 269.064 246.221C268.645 245.969 267.973 245.465 252.1 245.465C249.076 245.465 241.518 243.785 240.594 243.449C239.754 243.197 233.203 241.182 231.943 240.846C230.852 239.754 224.217 233.623 218.926 230.516L218.086 232.027C223.545 235.219 230.852 242.105 230.852 242.189L231.02 242.357L231.188 242.441C231.271 242.441 239.166 244.793 240.006 245.045C241.014 245.381 248.74 247.145 252.1 247.145C265.285 247.145 267.721 247.48 268.225 247.648C269.148 248.152 272.676 248.572 275.363 248.824L274.439 249.58L270.576 255.879H272.592L275.783 250.672L278.807 248.152L285.861 245.213L289.809 241.602V237.822L285.525 235.051L282.586 225.812L276.203 217.33L269.568 213.383L253.527 205.068L241.182 203.893L226.568 205.404L215.314 209.687L209.1 217.414L205.32 219.43L203.809 218.086L204.564 213.551L211.703 206.664L218.002 201.541L226.82 199.861L236.73 199.609H247.312L255.963 199.861L264.949 204.816C268.812 206.832 273.264 209.352 273.684 210.023C274.271 211.199 280.822 217.414 282.922 219.346L288.885 227.072L289.725 233.287L291.404 233.035L290.48 226.316L284.182 218.17L284.098 218.086C279.982 214.307 275.531 209.939 275.111 209.184C274.523 207.924 268.896 204.9 265.621 203.221L259.49 199.861L273.516 200.113L278.555 203.221L285.189 209.268L288.801 213.803L290.564 223.293L292.244 222.957L290.396 213.047L286.449 208.176L279.563 201.877L273.936 198.434L256.047 198.098L247.229 197.762H236.562L226.568 198.098L217.078 199.945L210.443 205.404L202.801 212.711L201.793 218.758L204.984 221.529L209.687 219.01ZM275.195 218.674L281.158 226.652L284.182 236.227L284.518 236.395L278.555 238.662L268.645 239.838C264.865 239.922 258.398 240.006 257.223 239.586C255.543 238.998 244.457 236.646 243.113 236.311C237.822 233.455 232.027 230.18 231.439 229.508C230.768 228.584 226.736 226.568 224.385 225.393L216.826 220.941L222.369 219.934C225.812 219.514 234.883 218.506 236.059 218.506C236.562 218.506 238.41 218.674 240.342 218.842C246.053 219.346 248.74 219.514 249.496 219.346C250.336 219.178 258.314 218.338 263.521 217.918L271.752 217.33L271.668 216.49L275.195 218.674ZM216.406 211.115L226.988 207.084L241.266 205.656L253.107 206.832L268.812 214.979L270.24 215.818L263.27 216.322C261.926 216.406 250.168 217.498 248.992 217.834C248.236 218.002 243.365 217.498 240.342 217.246C238.158 217.078 236.479 216.91 235.891 216.91C234.379 216.91 222.453 218.338 221.949 218.422L214.391 219.85L210.947 217.834L216.406 211.115Z" fill="black"/>
<path d="M269.82 257.139C267.889 258.23 265.957 259.07 263.941 259.91C263.018 259.91 257.811 262.346 253.611 264.361C252.855 264.613 245.969 266.713 244.373 266.965L244.625 268.645C246.389 268.309 253.863 266.041 254.199 265.957L254.283 265.873C258.482 263.857 263.27 261.674 263.941 261.506C264.949 261.422 268.645 259.574 270.744 258.482L270.912 258.398L272.508 255.795H270.492L269.82 257.139Z" fill="black"/>
<path d="M277.883 188.355L276.791 189.111C277.295 189.027 277.799 189.027 278.303 188.943L277.883 188.355Z" fill="black"/>
<path d="M281.83 197.006L284.014 200.785L282.922 204.564L284.602 205.068L285.861 200.617L283.342 196.166L278.387 189.027C277.883 189.111 277.379 189.111 276.875 189.195L276.539 189.447L281.83 197.006Z" fill="black"/>
<path d="M333.229 194.99L340.703 194.234C340.703 194.234 359.348 199.777 360.104 200.533C360.859 201.289 370.266 205.404 370.266 205.404L375.809 205.908L376.564 200.869L372.449 194.99L360.607 186.256L347.086 179.705L338.604 176.766L335.58 133.934L328.441 123.268L317.775 114.533L304.002 107.73L289.725 107.479L262.85 110.838L238.158 115.709L236.73 111.51C234.799 111.006 232.867 110.67 230.936 110.418C229.508 110.418 216.406 114.449 216.406 114.449L208.428 118.648L206.748 123.52L195.326 129.818L186.088 141.408L180.797 152.578C180.797 152.578 178.109 163.748 178.109 164.42C178.109 165.092 179.537 171.223 180.545 171.643C181.553 172.062 189.027 174.078 189.027 174.078L198.854 178.949L213.047 187.18L230.684 192.975C230.684 192.975 247.396 191.799 249.076 191.799C250.756 191.799 275.951 189.111 277.379 189.111C278.807 189.111 306.438 186.928 307.193 186.928C307.949 186.928 324.41 186.676 324.41 186.676L330.961 192.471L333.229 194.99Z" fill="#C82727"/>
<path d="M326.678 218.758L328.861 223.377L330.205 228.668L329.533 232.027L326.678 239.334L317.607 240.846L302.994 238.242L301.23 233.119L301.902 228.5L303.414 221.193L307.193 216.994L309.629 218.338L325.754 218.758" fill="black"/>
<path d="M260.162 218.086L262.85 223.209L263.102 229.424L261.758 234.967L258.902 239.418L254.283 239.67L236.562 234.379L229.508 228.164L230.432 224.217L232.867 220.438L236.143 217.834L248.572 218.17C248.404 218.086 259.658 219.01 260.162 218.086Z" fill="black"/>
<path d="M374.297 195.662L367.41 189.615L357.5 182.98L341.207 177.018L338.939 176.094L338.268 162.068C337.428 155.182 336.252 144.768 336.252 143.928C336.252 142.752 335.664 134.186 335.664 133.85V133.682L330.793 124.863L322.646 116.465L310.133 109.326L299.719 106.387H285.441L271.416 108.15C265.789 109.074 256.971 110.502 255.963 110.502C254.451 110.502 242.693 113.189 241.35 113.441L237.234 114.533L237.906 114.197L236.563 111.51L232.195 109.83L225.813 110.418L215.566 112.938L207.84 117.893L206.244 122.008L207.336 122.428L203.053 123.52H202.885L193.814 129.23L187.516 136.369L181.805 145.943L177.27 161.564V167.191L180.209 172.398L198.602 178.949L204.732 184.492L218.422 190.707L230.516 193.73L253.107 192.219L285.777 188.691L309.041 186.928L328.357 187.18L348.766 190.119L364.891 197.762L365.646 196.25L349.354 188.523L328.609 185.584L309.041 185.248L285.693 187.012L253.023 190.539L230.768 191.967L219.178 189.111L205.824 182.98L199.609 177.354L181.469 170.887L179.117 166.688V161.732L183.484 146.615L189.027 137.377L195.074 130.49L203.725 125.031L241.854 115.037C246.809 113.945 255.123 112.098 256.131 112.098C257.643 112.098 270.408 109.998 271.836 109.746L285.609 107.982H299.551L309.377 110.838L321.555 117.809L329.365 125.871L333.9 134.186C334.068 137.293 334.488 143.088 334.488 143.928C334.488 145.104 336.336 160.557 336.588 162.236L337.26 175.422L327.35 171.643L307.781 169.543L293 168.031L278.471 169.207L261.674 170.971L242.105 175.422L227.408 178.949L217.582 179.537L204.984 177.018L211.367 181.637L216.574 184.66L228.5 187.6L240.174 187.936H240.258L250.672 186.76L265.369 184.408L279.73 182.057L295.855 180.881L307.025 180.293L320.463 181.133L338.688 183.484L362.203 187.936L366.318 190.623L372.869 196.334L374.717 200.617L374.297 203.809L370.77 204.061L363.883 200.869L351.201 195.83L341.207 192.807L332.473 193.73L332.641 195.41L341.039 194.57L350.529 197.426L363.127 202.381L370.434 205.74L375.725 205.404L376.48 200.365L374.297 195.662ZM208.008 122.176L209.268 118.984L216.238 114.533L226.064 112.182L232.027 111.594L235.387 112.854L236.311 114.701L208.008 122.176ZM338.939 182.141L320.547 179.789L306.941 178.865L295.688 179.453L279.479 180.629L264.949 182.98L250.252 185.332L240.006 186.508L228.668 186.256L217.078 183.4L212.207 180.545H212.123L217.246 181.553L227.408 180.965L242.273 177.438L261.674 173.07L278.387 171.307L292.748 170.131L307.361 171.559L326.678 173.574L340.451 178.865L356.576 184.744L358.424 186.004L338.939 182.141Z" fill="black"/>
<path d="M254.627 232.008C257.428 231.175 259.13 228.589 258.429 226.233C257.729 223.877 254.89 222.642 252.089 223.475C249.288 224.308 247.586 226.893 248.287 229.25C248.987 231.606 251.826 232.841 254.627 232.008Z" fill="white"/>
<path d="M240.93 231.523C242.136 231.523 243.113 230.546 243.113 229.34C243.113 228.134 242.136 227.156 240.93 227.156C239.724 227.156 238.746 228.134 238.746 229.34C238.746 230.546 239.724 231.523 240.93 231.523Z" fill="white"/>
<path d="M239.586 224.721C240.792 224.721 241.77 223.743 241.77 222.537C241.77 221.331 240.792 220.354 239.586 220.354C238.38 220.354 237.402 221.331 237.402 222.537C237.402 223.743 238.38 224.721 239.586 224.721Z" fill="white"/>
<path d="M310.721 234.295C311.834 234.295 312.736 233.392 312.736 232.279C312.736 231.166 311.834 230.264 310.721 230.264C309.607 230.264 308.705 231.166 308.705 232.279C308.705 233.392 309.607 234.295 310.721 234.295Z" fill="white"/>
<path d="M310.469 226.652C311.675 226.652 312.652 225.675 312.652 224.469C312.652 223.263 311.675 222.285 310.469 222.285C309.263 222.285 308.285 223.263 308.285 224.469C308.285 225.675 309.263 226.652 310.469 226.652Z" fill="white"/>
<path d="M322.479 232.867C324.659 232.867 326.426 231.1 326.426 228.92C326.426 226.74 324.659 224.973 322.479 224.973C320.298 224.973 318.531 226.74 318.531 228.92C318.531 231.1 320.298 232.867 322.479 232.867Z" fill="white"/>
</g>
<path d="M250 0C388.071 0 500 111.929 500 250C500 388.071 388.071 500 250 500C111.929 500 0 388.071 0 250C0 111.929 111.929 0 250 0ZM249.5 38C132.139 38 37 133.139 37 250.5C37 367.861 132.139 463 249.5 463C366.861 463 462 367.861 462 250.5C462 133.139 366.861 38 249.5 38Z" fill="#0000FF"/>
<path d="M109 300C164.228 300 209 344.772 209 400C209 435.449 190.554 466.589 162.737 484.348C99.7039 460.867 48.6979 412.683 21.4922 351.566C38.5488 320.815 71.3432 300 109 300Z" fill="#0000FF"/>
<path d="M71.8376 362.031L76.5727 366.766L71.8376 371.501L67.1025 366.766L71.8376 362.031ZM67.1025 366.766L71.8376 371.501L67.1025 376.236L62.3674 371.501L67.1025 366.766ZM62.3674 362.031L67.1025 366.766L62.3674 371.501L57.6323 366.766L62.3674 362.031ZM67.1025 357.296L71.8376 362.031L67.1025 366.766L62.3674 362.031L67.1025 357.296ZM71.8376 352.561L76.5727 357.296L71.8376 362.031L67.1025 357.296L71.8376 352.561ZM76.5727 347.826L81.3078 352.561L76.5727 357.296L71.8376 352.561L76.5727 347.826ZM81.3078 343.09L86.0429 347.826L81.3078 352.561L76.5727 347.826L81.3078 343.09ZM86.0429 338.355L90.778 343.09L86.0429 347.826L81.3078 343.09L86.0429 338.355ZM90.778 333.62L95.513 338.355L90.778 343.09L86.0429 338.355L90.778 333.62ZM95.513 328.885L100.248 333.62L95.513 338.355L90.778 333.62L95.513 328.885ZM95.513 338.355L100.248 343.09L95.513 347.826L90.778 343.09L95.513 338.355ZM90.778 343.09L95.513 347.826L90.778 352.561L86.0429 347.826L90.778 343.09ZM86.0429 347.826L90.778 352.561L86.0429 357.296L81.3078 352.561L86.0429 347.826ZM81.3078 352.561L86.0429 357.296L81.3078 362.031L76.5727 357.296L81.3078 352.561ZM76.5727 357.296L81.3078 362.031L76.5727 366.766L71.8376 362.031L76.5727 357.296ZM100.248 333.62L104.983 338.355L100.248 343.09L95.513 338.355L100.248 333.62ZM104.983 328.885L109.718 333.62L104.983 338.355L100.248 333.62L104.983 328.885ZM104.983 319.415L109.718 324.15L104.983 328.885L100.248 324.15L104.983 319.415ZM109.718 324.15L114.453 328.885L109.718 333.62L104.983 328.885L109.718 324.15ZM100.248 324.15L104.983 328.885L100.248 333.62L95.513 328.885L100.248 324.15ZM100.248 314.68L104.983 319.415L100.248 324.15L95.513 319.415L100.248 314.68ZM95.513 319.415L100.248 324.15L95.513 328.885L90.778 324.15L95.513 319.415Z" fill="white"/>
<path d="M133.041 347.473L137.776 352.208L133.041 356.943L128.306 352.208L133.041 347.473ZM128.306 342.738L133.041 347.473L128.306 352.208L123.571 347.473L128.306 342.738ZM123.571 347.473L128.306 352.208L123.571 356.943L118.836 352.208L123.571 347.473ZM128.306 352.208L133.041 356.943L128.306 361.678L123.571 356.943L128.306 352.208ZM133.041 356.943L137.776 361.678L133.041 366.413L128.306 361.678L133.041 356.943ZM137.776 352.208L142.511 356.943L137.776 361.678L133.041 356.943L137.776 352.208ZM142.511 356.943L147.246 361.678L142.511 366.413L137.776 361.678L142.511 356.943ZM142.511 366.413L147.246 371.148L142.511 375.883L137.776 371.148L142.511 366.413ZM137.776 361.678L142.511 366.413L137.776 371.148L133.041 366.413L137.776 361.678ZM137.776 371.148L142.511 375.883L137.776 380.619L133.041 375.883L137.776 371.148ZM109.366 399.559L114.101 404.294L109.366 409.029L104.631 404.294L109.366 399.559ZM114.101 394.824L118.836 399.559L114.101 404.294L109.366 399.559L114.101 394.824ZM118.836 390.089L123.571 394.824L118.836 399.559L114.101 394.824L118.836 390.089ZM123.571 385.354L128.306 390.089L123.571 394.824L118.836 390.089L123.571 385.354ZM128.306 380.619L133.041 385.354L128.306 390.089L123.571 385.354L128.306 380.619ZM133.041 375.883L137.776 380.619L133.041 385.354L128.306 380.619L133.041 375.883ZM104.631 394.824L109.366 399.559L104.631 404.294L99.8955 399.559L104.631 394.824ZM99.8955 399.559L104.631 404.294L99.8955 409.029L95.1604 404.294L99.8955 399.559ZM95.1604 394.824L99.8955 399.559L95.1604 404.294L90.4253 399.559L95.1604 394.824ZM99.8955 390.089L104.631 394.824L99.8955 399.559L95.1604 394.824L99.8955 390.089ZM90.4253 390.089L95.1604 394.824L90.4253 399.559L85.6902 394.824L90.4253 390.089ZM85.6902 385.354L90.4253 390.089L85.6902 394.824L80.9551 390.089L85.6902 385.354ZM90.4253 380.619L95.1604 385.354L90.4253 390.089L85.6902 385.354L90.4253 380.619ZM95.1604 385.354L99.8955 390.089L95.1604 394.824L90.4253 390.089L95.1604 385.354ZM95.1604 375.883L99.8955 380.619L95.1604 385.354L90.4253 380.619L95.1604 375.883ZM85.6902 375.883L90.4253 380.619L85.6902 385.354L80.9551 380.619L85.6902 375.883ZM90.4253 371.148L95.1604 375.883L90.4253 380.619L85.6902 375.883L90.4253 371.148ZM95.1604 366.413L99.8955 371.148L95.1604 375.883L90.4253 371.148L95.1604 366.413ZM99.8955 361.678L104.631 366.413L99.8955 371.148L95.1604 366.413L99.8955 361.678ZM104.631 356.943L109.366 361.678L104.631 366.413L99.8955 361.678L104.631 356.943ZM109.366 352.208L114.101 356.943L109.366 361.678L104.631 356.943L109.366 352.208ZM114.101 347.473L118.836 352.208L114.101 356.943L109.366 352.208L114.101 347.473ZM118.836 352.208L123.571 356.943L118.836 361.678L114.101 356.943L118.836 352.208ZM118.836 342.738L123.571 347.473L118.836 352.208L114.101 347.473L118.836 342.738ZM114.101 356.943L118.836 361.678L114.101 366.413L109.366 361.678L114.101 356.943ZM109.366 361.678L114.101 366.413L109.366 371.148L104.631 366.413L109.366 361.678ZM104.631 366.413L109.366 371.148L104.631 375.883L99.8955 371.148L104.631 366.413ZM99.8955 371.148L104.631 375.883L99.8955 380.619L95.1604 375.883L99.8955 371.148ZM133.041 366.413L137.776 371.148L133.041 375.883L128.306 371.148L133.041 366.413ZM128.306 371.148L133.041 375.883L128.306 380.619L123.571 375.883L128.306 371.148ZM123.571 375.883L128.306 380.619L123.571 385.354L118.836 380.619L123.571 375.883ZM118.836 380.619L123.571 385.354L118.836 390.089L114.101 385.354L118.836 380.619ZM114.101 385.354L118.836 390.089L114.101 394.824L109.366 390.089L114.101 385.354ZM109.366 390.089L114.101 394.824L109.366 399.559L104.631 394.824L109.366 390.089Z" fill="white"/>
<path d="M165.871 380.303L170.606 385.038L165.871 389.773L161.136 385.038L165.871 380.303ZM161.136 385.038L165.871 389.773L161.136 394.508L156.401 389.773L161.136 385.038ZM156.401 389.773L161.136 394.508L156.401 399.243L151.666 394.508L156.401 389.773ZM161.136 394.508L165.871 399.243L161.136 403.978L156.401 399.243L161.136 394.508ZM156.401 399.243L161.136 403.978L156.401 408.713L151.666 403.978L156.401 399.243ZM161.136 403.978L165.871 408.713L161.136 413.448L156.401 408.713L161.136 403.978ZM165.871 408.713L170.606 413.448L165.871 418.184L161.136 413.448L165.871 408.713ZM170.606 403.978L175.341 408.713L170.606 413.448L165.871 408.713L170.606 403.978ZM175.341 408.713L180.076 413.448L175.341 418.184L170.606 413.448L175.341 408.713ZM180.076 413.448L184.811 418.184L180.076 422.919L175.341 418.184L180.076 413.448ZM184.811 408.713L189.547 413.448L184.811 418.184L180.076 413.448L184.811 408.713ZM189.547 403.978L194.282 408.713L189.547 413.448L184.811 408.713L189.547 403.978ZM184.811 399.243L189.547 403.978L184.811 408.713L180.076 403.978L184.811 399.243ZM180.076 403.978L184.811 408.713L180.076 413.448L175.341 408.713L180.076 403.978ZM170.606 413.448L175.341 418.184L170.606 422.919L165.871 418.184L170.606 413.448ZM151.666 394.508L156.401 399.243L151.666 403.978L146.931 399.243L151.666 394.508ZM151.666 385.038L156.401 389.773L151.666 394.508L146.931 389.773L151.666 385.038ZM156.401 380.303L161.136 385.038L156.401 389.773L151.666 385.038L156.401 380.303ZM161.136 375.568L165.871 380.303L161.136 385.038L156.401 380.303L161.136 375.568ZM151.666 403.978L156.401 408.713L151.666 413.448L146.931 408.713L151.666 403.978ZM156.401 408.713L161.136 413.448L156.401 418.184L151.666 413.448L156.401 408.713ZM161.136 413.448L165.871 418.184L161.136 422.919L156.401 418.184L161.136 413.448ZM156.401 418.184L161.136 422.919L156.401 427.654L151.666 422.919L156.401 418.184ZM161.136 422.919L165.871 427.654L161.136 432.389L156.401 427.654L161.136 422.919ZM156.401 427.654L161.136 432.389L156.401 437.124L151.666 432.389L156.401 427.654ZM151.666 422.919L156.401 427.654L151.666 432.389L146.931 427.654L151.666 422.919ZM146.931 446.594L151.666 451.329L146.931 456.064L142.196 451.329L146.931 446.594ZM151.666 441.859L156.401 446.594L151.666 451.329L146.931 446.594L151.666 441.859ZM156.401 437.124L161.136 441.859L156.401 446.594L151.666 441.859L156.401 437.124ZM161.136 432.389L165.871 437.124L161.136 441.859L156.401 437.124L161.136 432.389ZM151.666 432.389L156.401 437.124L151.666 441.859L146.931 437.124L151.666 432.389ZM146.931 437.124L151.666 441.859L146.931 446.594L142.196 441.859L146.931 437.124ZM142.196 441.859L146.931 446.594L142.196 451.329L137.461 446.594L142.196 441.859ZM118.52 418.184L123.255 422.919L118.52 427.654L113.785 422.919L118.52 418.184ZM123.255 422.919L127.99 427.654L123.255 432.389L118.52 427.654L123.255 422.919ZM127.99 418.184L132.725 422.919L127.99 427.654L123.255 422.919L127.99 418.184ZM132.725 413.448L137.461 418.184L132.725 422.919L127.99 418.184L132.725 413.448ZM127.99 408.713L132.725 413.448L127.99 418.184L123.255 413.448L127.99 408.713ZM132.725 403.978L137.461 408.713L132.725 413.448L127.99 408.713L132.725 403.978ZM123.255 413.448L127.99 418.184L123.255 422.919L118.52 418.184L123.255 413.448ZM137.461 408.713L142.196 413.448L137.461 418.184L132.725 413.448L137.461 408.713ZM142.196 413.448L146.931 418.184L142.196 422.919L137.461 418.184L142.196 413.448ZM146.931 408.713L151.666 413.448L146.931 418.184L142.196 413.448L146.931 408.713ZM142.196 403.978L146.931 408.713L142.196 413.448L137.461 408.713L142.196 403.978ZM151.666 413.448L156.401 418.184L151.666 422.919L146.931 418.184L151.666 413.448Z" fill="white"/>
</g>
<defs>
<clipPath id="clip0_11_2038">
<rect width="500" height="500" fill="white"/>
</clipPath>
<clipPath id="clip1_11_2038">
<rect width="430" height="430" fill="white" transform="translate(35 35)"/>
</clipPath>
</defs>
</svg>
