<svg width="500" height="500" viewBox="0 0 500 500" fill="none" xmlns="http://www.w3.org/2000/svg">
<g clip-path="url(#clip0_11_2231)">
<circle cx="250" cy="250" r="215" fill="white"/>
<g clip-path="url(#clip1_11_2231)">
<path d="M345.078 157C324.454 157 301.87 168.215 278.049 190.337C266.809 200.729 256.909 212.047 249.69 220.999C249.69 220.999 261.24 234.272 273.924 248.574C280.833 239.931 290.63 228.201 302.076 217.603C323.216 197.848 337.034 193.835 344.975 193.835C374.674 193.835 398.804 218.735 398.804 249.5C398.804 279.956 374.674 304.856 344.975 305.165C343.531 305.165 341.881 304.959 339.819 304.547C348.481 308.56 357.865 311.441 366.63 311.441C421.078 311.441 431.803 273.885 432.422 271.21C433.969 264.316 434.897 257.114 434.897 249.706C434.794 198.568 394.576 157 345.078 157Z" fill="url(#paint0_linear_11_2231)"/>
<path d="M154.819 342C175.443 342 198.027 330.785 221.848 308.663C233.088 298.271 242.988 286.953 250.206 278.001C250.206 278.001 238.657 264.728 225.973 250.426C219.064 259.069 209.267 270.799 197.821 281.397C176.681 300.946 162.759 305.165 154.922 305.165C125.223 305.165 101.093 280.265 101.093 249.5C101.093 219.044 125.223 194.144 154.922 193.835C156.366 193.835 158.016 194.041 160.078 194.453C151.416 190.44 142.032 187.559 133.266 187.559C78.8183 187.456 68.0936 225.012 67.4749 227.79C65.9281 234.684 65 241.886 65 249.294C65 300.432 105.217 342 154.819 342Z" fill="url(#paint1_linear_11_2231)"/>
<path fill-rule="evenodd" clip-rule="evenodd" d="M196.274 218.427C190.293 212.665 161.212 189.102 133.369 188.279C83.6649 187.044 69.1248 223.057 67.7842 227.687C77.3745 187.353 112.848 157.206 154.922 157C189.261 157 224.013 190.646 249.691 220.999L249.794 220.896C249.794 220.896 261.343 234.169 274.027 248.471C274.027 248.471 288.464 265.448 303.726 280.368C309.707 286.13 338.684 309.383 366.527 310.206C417.572 311.647 431.7 273.577 432.422 270.696C423.038 311.338 387.461 341.588 345.181 341.794C310.842 341.794 276.09 308.148 250.309 277.795C250.309 277.898 250.206 277.898 250.206 278.001C250.206 278.001 238.657 264.728 225.973 250.426C226.076 250.426 211.639 233.346 196.274 218.427Z" fill="#29ABE2"/>
</g>
<path d="M250 0C388.071 0 500 111.929 500 250C500 388.071 388.071 500 250 500C111.929 500 0 388.071 0 250C0 111.929 111.929 0 250 0ZM249.5 38C132.139 38 37 133.139 37 250.5C37 367.861 132.139 463 249.5 463C366.861 463 462 367.861 462 250.5C462 133.139 366.861 38 249.5 38Z" fill="#0000FF"/>
<path d="M109 300C164.228 300 209 344.772 209 400C209 435.449 190.554 466.589 162.737 484.348C99.7039 460.867 48.6979 412.683 21.4922 351.566C38.5488 320.815 71.3432 300 109 300Z" fill="#0000FF"/>
<path d="M71.8376 362.031L76.5727 366.766L71.8376 371.501L67.1025 366.766L71.8376 362.031ZM67.1025 366.766L71.8376 371.501L67.1025 376.236L62.3674 371.501L67.1025 366.766ZM62.3674 362.031L67.1025 366.766L62.3674 371.501L57.6323 366.766L62.3674 362.031ZM67.1025 357.296L71.8376 362.031L67.1025 366.766L62.3674 362.031L67.1025 357.296ZM71.8376 352.561L76.5727 357.296L71.8376 362.031L67.1025 357.296L71.8376 352.561ZM76.5727 347.826L81.3078 352.561L76.5727 357.296L71.8376 352.561L76.5727 347.826ZM81.3078 343.09L86.0429 347.826L81.3078 352.561L76.5727 347.826L81.3078 343.09ZM86.0429 338.355L90.778 343.09L86.0429 347.826L81.3078 343.09L86.0429 338.355ZM90.778 333.62L95.513 338.355L90.778 343.09L86.0429 338.355L90.778 333.62ZM95.513 328.885L100.248 333.62L95.513 338.355L90.778 333.62L95.513 328.885ZM95.513 338.355L100.248 343.09L95.513 347.826L90.778 343.09L95.513 338.355ZM90.778 343.09L95.513 347.826L90.778 352.561L86.0429 347.826L90.778 343.09ZM86.0429 347.826L90.778 352.561L86.0429 357.296L81.3078 352.561L86.0429 347.826ZM81.3078 352.561L86.0429 357.296L81.3078 362.031L76.5727 357.296L81.3078 352.561ZM76.5727 357.296L81.3078 362.031L76.5727 366.766L71.8376 362.031L76.5727 357.296ZM100.248 333.62L104.983 338.355L100.248 343.09L95.513 338.355L100.248 333.62ZM104.983 328.885L109.718 333.62L104.983 338.355L100.248 333.62L104.983 328.885ZM104.983 319.415L109.718 324.15L104.983 328.885L100.248 324.15L104.983 319.415ZM109.718 324.15L114.453 328.885L109.718 333.62L104.983 328.885L109.718 324.15ZM100.248 324.15L104.983 328.885L100.248 333.62L95.513 328.885L100.248 324.15ZM100.248 314.68L104.983 319.415L100.248 324.15L95.513 319.415L100.248 314.68ZM95.513 319.415L100.248 324.15L95.513 328.885L90.778 324.15L95.513 319.415Z" fill="white"/>
<path d="M133.041 347.473L137.776 352.208L133.041 356.943L128.306 352.208L133.041 347.473ZM128.306 342.738L133.041 347.473L128.306 352.208L123.571 347.473L128.306 342.738ZM123.571 347.473L128.306 352.208L123.571 356.943L118.836 352.208L123.571 347.473ZM128.306 352.208L133.041 356.943L128.306 361.678L123.571 356.943L128.306 352.208ZM133.041 356.943L137.776 361.678L133.041 366.413L128.306 361.678L133.041 356.943ZM137.776 352.208L142.511 356.943L137.776 361.678L133.041 356.943L137.776 352.208ZM142.511 356.943L147.246 361.678L142.511 366.413L137.776 361.678L142.511 356.943ZM142.511 366.413L147.246 371.148L142.511 375.883L137.776 371.148L142.511 366.413ZM137.776 361.678L142.511 366.413L137.776 371.148L133.041 366.413L137.776 361.678ZM137.776 371.148L142.511 375.883L137.776 380.619L133.041 375.883L137.776 371.148ZM109.366 399.559L114.101 404.294L109.366 409.029L104.631 404.294L109.366 399.559ZM114.101 394.824L118.836 399.559L114.101 404.294L109.366 399.559L114.101 394.824ZM118.836 390.089L123.571 394.824L118.836 399.559L114.101 394.824L118.836 390.089ZM123.571 385.354L128.306 390.089L123.571 394.824L118.836 390.089L123.571 385.354ZM128.306 380.619L133.041 385.354L128.306 390.089L123.571 385.354L128.306 380.619ZM133.041 375.883L137.776 380.619L133.041 385.354L128.306 380.619L133.041 375.883ZM104.631 394.824L109.366 399.559L104.631 404.294L99.8955 399.559L104.631 394.824ZM99.8955 399.559L104.631 404.294L99.8955 409.029L95.1604 404.294L99.8955 399.559ZM95.1604 394.824L99.8955 399.559L95.1604 404.294L90.4253 399.559L95.1604 394.824ZM99.8955 390.089L104.631 394.824L99.8955 399.559L95.1604 394.824L99.8955 390.089ZM90.4253 390.089L95.1604 394.824L90.4253 399.559L85.6902 394.824L90.4253 390.089ZM85.6902 385.354L90.4253 390.089L85.6902 394.824L80.9551 390.089L85.6902 385.354ZM90.4253 380.619L95.1604 385.354L90.4253 390.089L85.6902 385.354L90.4253 380.619ZM95.1604 385.354L99.8955 390.089L95.1604 394.824L90.4253 390.089L95.1604 385.354ZM95.1604 375.883L99.8955 380.619L95.1604 385.354L90.4253 380.619L95.1604 375.883ZM85.6902 375.883L90.4253 380.619L85.6902 385.354L80.9551 380.619L85.6902 375.883ZM90.4253 371.148L95.1604 375.883L90.4253 380.619L85.6902 375.883L90.4253 371.148ZM95.1604 366.413L99.8955 371.148L95.1604 375.883L90.4253 371.148L95.1604 366.413ZM99.8955 361.678L104.631 366.413L99.8955 371.148L95.1604 366.413L99.8955 361.678ZM104.631 356.943L109.366 361.678L104.631 366.413L99.8955 361.678L104.631 356.943ZM109.366 352.208L114.101 356.943L109.366 361.678L104.631 356.943L109.366 352.208ZM114.101 347.473L118.836 352.208L114.101 356.943L109.366 352.208L114.101 347.473ZM118.836 352.208L123.571 356.943L118.836 361.678L114.101 356.943L118.836 352.208ZM118.836 342.738L123.571 347.473L118.836 352.208L114.101 347.473L118.836 342.738ZM114.101 356.943L118.836 361.678L114.101 366.413L109.366 361.678L114.101 356.943ZM109.366 361.678L114.101 366.413L109.366 371.148L104.631 366.413L109.366 361.678ZM104.631 366.413L109.366 371.148L104.631 375.883L99.8955 371.148L104.631 366.413ZM99.8955 371.148L104.631 375.883L99.8955 380.619L95.1604 375.883L99.8955 371.148ZM133.041 366.413L137.776 371.148L133.041 375.883L128.306 371.148L133.041 366.413ZM128.306 371.148L133.041 375.883L128.306 380.619L123.571 375.883L128.306 371.148ZM123.571 375.883L128.306 380.619L123.571 385.354L118.836 380.619L123.571 375.883ZM118.836 380.619L123.571 385.354L118.836 390.089L114.101 385.354L118.836 380.619ZM114.101 385.354L118.836 390.089L114.101 394.824L109.366 390.089L114.101 385.354ZM109.366 390.089L114.101 394.824L109.366 399.559L104.631 394.824L109.366 390.089Z" fill="white"/>
<path d="M165.871 380.303L170.606 385.038L165.871 389.773L161.136 385.038L165.871 380.303ZM161.136 385.038L165.871 389.773L161.136 394.508L156.401 389.773L161.136 385.038ZM156.401 389.773L161.136 394.508L156.401 399.243L151.666 394.508L156.401 389.773ZM161.136 394.508L165.871 399.243L161.136 403.978L156.401 399.243L161.136 394.508ZM156.401 399.243L161.136 403.978L156.401 408.713L151.666 403.978L156.401 399.243ZM161.136 403.978L165.871 408.713L161.136 413.448L156.401 408.713L161.136 403.978ZM165.871 408.713L170.606 413.448L165.871 418.184L161.136 413.448L165.871 408.713ZM170.606 403.978L175.341 408.713L170.606 413.448L165.871 408.713L170.606 403.978ZM175.341 408.713L180.076 413.448L175.341 418.184L170.606 413.448L175.341 408.713ZM180.076 413.448L184.811 418.184L180.076 422.919L175.341 418.184L180.076 413.448ZM184.811 408.713L189.547 413.448L184.811 418.184L180.076 413.448L184.811 408.713ZM189.547 403.978L194.282 408.713L189.547 413.448L184.811 408.713L189.547 403.978ZM184.811 399.243L189.547 403.978L184.811 408.713L180.076 403.978L184.811 399.243ZM180.076 403.978L184.811 408.713L180.076 413.448L175.341 408.713L180.076 403.978ZM170.606 413.448L175.341 418.184L170.606 422.919L165.871 418.184L170.606 413.448ZM151.666 394.508L156.401 399.243L151.666 403.978L146.931 399.243L151.666 394.508ZM151.666 385.038L156.401 389.773L151.666 394.508L146.931 389.773L151.666 385.038ZM156.401 380.303L161.136 385.038L156.401 389.773L151.666 385.038L156.401 380.303ZM161.136 375.568L165.871 380.303L161.136 385.038L156.401 380.303L161.136 375.568ZM151.666 403.978L156.401 408.713L151.666 413.448L146.931 408.713L151.666 403.978ZM156.401 408.713L161.136 413.448L156.401 418.184L151.666 413.448L156.401 408.713ZM161.136 413.448L165.871 418.184L161.136 422.919L156.401 418.184L161.136 413.448ZM156.401 418.184L161.136 422.919L156.401 427.654L151.666 422.919L156.401 418.184ZM161.136 422.919L165.871 427.654L161.136 432.389L156.401 427.654L161.136 422.919ZM156.401 427.654L161.136 432.389L156.401 437.124L151.666 432.389L156.401 427.654ZM151.666 422.919L156.401 427.654L151.666 432.389L146.931 427.654L151.666 422.919ZM146.931 446.594L151.666 451.329L146.931 456.064L142.196 451.329L146.931 446.594ZM151.666 441.859L156.401 446.594L151.666 451.329L146.931 446.594L151.666 441.859ZM156.401 437.124L161.136 441.859L156.401 446.594L151.666 441.859L156.401 437.124ZM161.136 432.389L165.871 437.124L161.136 441.859L156.401 437.124L161.136 432.389ZM151.666 432.389L156.401 437.124L151.666 441.859L146.931 437.124L151.666 432.389ZM146.931 437.124L151.666 441.859L146.931 446.594L142.196 441.859L146.931 437.124ZM142.196 441.859L146.931 446.594L142.196 451.329L137.461 446.594L142.196 441.859ZM118.52 418.184L123.255 422.919L118.52 427.654L113.785 422.919L118.52 418.184ZM123.255 422.919L127.99 427.654L123.255 432.389L118.52 427.654L123.255 422.919ZM127.99 418.184L132.725 422.919L127.99 427.654L123.255 422.919L127.99 418.184ZM132.725 413.448L137.461 418.184L132.725 422.919L127.99 418.184L132.725 413.448ZM127.99 408.713L132.725 413.448L127.99 418.184L123.255 413.448L127.99 408.713ZM132.725 403.978L137.461 408.713L132.725 413.448L127.99 408.713L132.725 403.978ZM123.255 413.448L127.99 418.184L123.255 422.919L118.52 418.184L123.255 413.448ZM137.461 408.713L142.196 413.448L137.461 418.184L132.725 413.448L137.461 408.713ZM142.196 413.448L146.931 418.184L142.196 422.919L137.461 418.184L142.196 413.448ZM146.931 408.713L151.666 413.448L146.931 418.184L142.196 413.448L146.931 408.713ZM142.196 403.978L146.931 408.713L142.196 413.448L137.461 408.713L142.196 403.978ZM151.666 413.448L156.401 418.184L151.666 422.919L146.931 418.184L151.666 413.448Z" fill="white"/>
</g>
<defs>
<linearGradient id="paint0_linear_11_2231" x1="296.802" y1="171.658" x2="423.646" y2="299.831" gradientUnits="userSpaceOnUse">
<stop offset="0.21" stop-color="#F15A24"/>
<stop offset="0.6841" stop-color="#FBB03B"/>
</linearGradient>
<linearGradient id="paint1_linear_11_2231" x1="203.127" y1="327.362" x2="76.2837" y2="199.19" gradientUnits="userSpaceOnUse">
<stop offset="0.21" stop-color="#ED1E79"/>
<stop offset="0.8929" stop-color="#522785"/>
</linearGradient>
<clipPath id="clip0_11_2231">
<rect width="500" height="500" fill="white"/>
</clipPath>
<clipPath id="clip1_11_2231">
<rect width="370" height="185" fill="white" transform="translate(65 157)"/>
</clipPath>
</defs>
</svg>
