<svg width="500" height="500" viewBox="0 0 500 500" fill="none" xmlns="http://www.w3.org/2000/svg">
<g clip-path="url(#clip0_11_2195)">
<circle cx="250" cy="250" r="215" fill="white"/>
<g clip-path="url(#clip1_11_2195)">
<path d="M370.078 160.784C369.23 159.745 368.496 158.642 367.876 157.475C367.06 155.929 366.559 155.013 366.378 154.727C365.192 152.848 363.877 150.987 362.437 149.147C360.645 146.857 358.548 144.757 356.15 142.846C355.145 142.046 353.812 141.225 352.154 140.382C349.781 139.178 348.367 138.464 347.911 138.241C344.434 136.543 340.718 135.399 336.853 134.965C335.292 134.79 334.148 134.706 333.416 134.714C330.018 134.745 326.756 135.218 323.631 136.131C320.249 137.117 317.239 138.837 314.101 140.766C312.718 141.619 311.674 142.348 310.968 142.954C308.814 144.807 304.211 148.972 297.161 155.449C295.783 156.713 294.61 157.026 292.771 157.317C292.141 157.417 291.559 157.411 291.026 157.298C289.698 157.018 288.509 156.556 287.46 155.918C284.841 154.33 278.722 150.672 269.102 144.943C264.991 142.495 260.333 140.054 255.133 137.621C254.802 137.466 254.369 137.38 254.083 137.262C250.546 135.798 247.114 134.485 243.786 133.328C238.551 131.507 232.404 129.859 226.964 129.027C225.122 128.746 222.365 128.5 218.691 128.289C216.831 128.184 215.075 128.177 213.43 128.266C207.581 128.586 202.338 129.032 197.03 130.696C195.519 131.169 193.616 131.811 191.325 132.625C190.074 133.068 188.825 133.63 187.576 134.31C187.159 134.538 185.946 135.181 183.939 136.239C180.05 138.291 176.398 140.849 172.984 143.912C171.386 145.347 169.394 147.421 167.012 150.137C163.669 153.95 160.885 157.9 158.66 161.988C154.976 168.762 152.331 175.892 150.722 183.376C149.911 187.158 149.298 191 148.88 194.905C148.859 195.094 148.846 195.364 148.841 195.719C148.83 196.435 148.636 197.083 148.71 197.755C148.778 198.372 148.765 199.028 148.671 199.718C148.579 200.39 148.544 201.038 148.563 201.665C148.686 205.536 148.773 207.77 148.825 208.37C149.19 212.556 150.079 217.083 151.489 221.951C153.134 227.633 154.855 232.656 156.652 237.023C157.28 238.547 158.033 240.093 158.914 241.66C163.417 249.659 166.647 255.117 170.893 261.253C172.339 263.342 174.236 265.927 176.579 269.008C178.429 271.44 180.231 273.971 182.255 276.797C182.603 277.282 183.238 277.878 183.677 278.463C190.323 287.31 196.464 296.529 202.097 306.121C203.661 308.785 205.044 311.564 206.245 314.459C206.508 315.089 206.965 316.338 207.618 318.209C209.276 322.943 211.194 327.863 211.984 333.083C212.84 338.734 213.17 344.504 212.979 350.396C212.929 351.905 212.69 353.466 212.451 355.39C211.814 360.489 210.363 365.433 208.1 370.223C205.542 375.636 203.404 379.969 201.685 383.216C200.465 385.517 198.274 389.619 195.112 395.524C193.784 398.004 192.645 400.276 191.696 402.342C189.72 406.643 186.308 414.196 181.457 425H167.98C168.875 419.623 169.605 414.227 170.528 408.858C171.04 405.885 171.782 402.788 172.541 399.735C174.128 393.325 174.999 389.776 175.152 389.091C176.71 382.087 177.505 375.001 177.537 367.837C177.542 366.323 177.479 364.586 177.348 362.623C177.172 360.016 177.02 358.282 176.891 357.424C176.206 352.781 174.836 348.378 172.782 344.218C172.142 342.922 171.52 341.862 170.914 341.037C170.145 339.991 168.791 338.24 168.077 338.085C167.857 338.038 167.639 338.18 167.592 338.4C167.576 338.474 167.582 338.547 167.605 338.618C168.833 342.143 169.901 345.544 170.609 349.304C171.982 356.587 172.483 364.173 172.118 372.06C172.042 373.729 171.869 375.508 171.601 377.395C171.045 381.318 170.303 385.066 169.371 388.632C168.082 393.569 167.143 397.274 166.55 399.754C165.015 406.166 163.808 412.763 162.932 419.544C162.751 420.956 162.669 422.775 162.693 425H81.2529C81.5022 418.439 81.741 411.878 81.9693 405.318C82.1162 401.053 82.5964 395.251 83.4072 387.916C83.604 386.139 83.8559 384.407 84.1603 382.725C85.8239 373.564 87.9441 364.987 90.5234 356.991C92.8378 349.811 95.9813 343.064 99.3504 336.508C100.657 333.965 102.066 331.522 103.575 329.184C109.159 320.539 113.462 314.797 121.053 304.41C124.273 300.004 127.356 295.212 129.182 290.304C129.828 288.57 130.219 286.699 130.353 284.694C130.526 282.095 130.35 279.424 129.379 277.07C128.757 275.561 128.041 274.026 127.23 272.459C124.955 268.068 122.664 263.688 120.361 259.314C118.936 256.608 117.6 253.113 116.081 249.514C113.753 244.006 111.707 238.22 109.943 232.152C109.437 230.407 109.02 228.711 108.692 227.063C107.479 220.93 106.839 214.766 106.774 208.565C106.745 205.896 106.745 202.768 106.774 199.18C106.787 197.24 106.892 195.498 107.088 193.95C108.078 186.14 109.479 178.624 111.961 171.593C113.575 167.019 115.136 162.962 116.645 159.417C117.23 158.047 118.282 155.84 119.804 152.795C121.523 149.355 123.53 145.886 125.826 142.385C126.768 140.944 127.828 139.553 129.004 138.217C133.995 132.541 139.909 127.208 145.637 122.986C152.83 117.687 160.279 113.927 169.699 109.796C171.538 108.99 173.162 108.342 174.574 107.856C180.769 105.723 186.022 104.101 190.331 102.994C197.043 101.269 203.735 99.868 210.402 98.7894C213.396 98.304 216.429 97.9077 219.507 97.598C224.952 97.0469 230.732 96.627 236.849 96.3384C238.195 96.2754 239.26 95.9552 240.491 95.2387C246.405 91.8035 251.913 88.6911 257.011 85.9014C259.304 84.6444 261.921 83.3664 264.86 82.062C266.329 81.4112 267.662 80.9257 268.856 80.6056C269.058 80.5504 269.265 80.6685 269.32 80.8732C269.341 80.9493 269.338 81.0307 269.31 81.1042C268.035 84.5578 265.859 88.2318 263.999 90.9296C262.574 92.9949 261.272 94.8845 260.247 97.018C259.84 97.8657 259.662 98.5742 259.709 99.1464C259.898 101.445 262.936 100.763 264.587 100.695C270.149 100.461 276.119 100.13 281.821 100.584C281.879 100.587 281.934 100.605 281.981 100.637C282.217 100.789 282.22 100.92 281.986 101.033C280.517 101.744 279.04 102.44 277.554 103.117C276.046 103.805 275.098 104.377 274.715 104.836C273.085 106.775 274.817 109.444 276.227 111.095C277.929 113.092 279.701 115.105 281.54 117.136C281.587 117.183 281.585 117.259 281.537 117.307C281.506 117.335 281.462 117.349 281.419 117.335C277.397 116.296 275.321 115.761 275.198 115.729C273.645 115.336 272.435 116.609 273.128 118.186C273.233 118.425 273.529 118.7 274.017 119.015C275.815 120.178 277.953 121.238 280.428 122.201C282.902 123.162 287.686 123.98 288.947 120.768C289.527 119.288 288.851 117.498 287.877 116.296C286.171 114.192 285.148 112.921 283.474 111.289C281.792 109.652 280.543 108.434 279.732 107.633C279.69 107.591 279.69 107.523 279.732 107.481C279.745 107.468 279.758 107.46 279.774 107.455C282.196 106.66 284.411 105.607 286.418 104.295C288.026 103.243 289.409 101.537 289.207 99.4692C289.2 99.3773 289.242 99.3353 289.333 99.3485C292.212 99.7211 296.576 100.619 302.419 102.044C309.761 103.833 315.922 105.29 322.571 108.03C327.745 110.161 332.534 112.357 336.935 114.619C343.041 117.755 348.362 122.104 352.899 127.665C356.286 131.814 359.238 136.065 361.755 140.421C362.429 141.584 363.728 143.965 365.657 147.562C367.753 151.478 369.228 155.884 370.078 160.784Z" fill="#8DB4FF"/>
<path d="M370.077 160.784C370.463 162.547 370.749 164.19 370.935 165.715C371.518 170.504 371.917 175.249 372.135 179.952C372.153 180.317 372.135 180.865 372.087 181.602C371.843 185.374 371.384 189.562 370.71 194.17C370.204 197.648 370.621 201.085 371.967 204.489C372.247 205.2 373.612 207.798 376.06 212.283C376.611 213.291 377.663 215.719 379.214 219.566C380.288 222.227 381.287 225.481 382.213 229.328C383.622 235.178 383.935 241.413 383.218 247.155C382.636 251.821 381.633 255.883 380.243 261.584C380.156 261.689 380.111 261.817 380.103 261.972C379.592 263.182 379.086 264.392 378.584 265.602C378.067 266.848 377.498 268.031 376.879 269.152C375.758 271.184 374.984 272.601 374.556 273.404C373.761 274.902 372.914 276.272 372.014 277.508C369.923 280.384 368.243 282.633 366.973 284.253C366.719 284.581 366.496 284.925 366.309 285.287L366.207 285.465C366.018 285.51 365.882 285.565 365.8 285.633C363.646 287.446 361.699 289.352 359.959 291.346C356.656 295.141 353.924 299.962 354.953 304.969C355.153 305.943 355.43 306.89 355.788 307.817C357.309 311.758 359.374 315.414 361.985 318.784C362.455 319.395 363.604 320.709 365.43 322.733C367.165 324.654 368.952 326.769 370.791 329.081C371.639 330.144 372.799 331.472 374.273 333.06C376.965 337.713 379.046 341.659 380.515 344.895C386.215 357.455 390.807 370.918 394.291 385.281C396.002 392.332 397.448 399.439 398.629 406.601C399.639 412.731 400.597 418.864 401.504 425H181.456C186.308 414.196 189.72 406.643 191.695 402.342C192.645 400.276 193.784 398.004 195.112 395.524C198.273 389.619 200.464 385.517 201.685 383.216C203.403 379.969 205.542 375.636 208.1 370.223C210.362 365.433 211.813 360.489 212.451 355.39C212.69 353.466 212.928 351.905 212.978 350.396C213.17 344.504 212.839 338.734 211.984 333.083C211.194 327.863 209.276 322.943 207.617 318.208C206.964 316.337 206.508 315.089 206.245 314.458C205.043 311.564 203.66 308.785 202.096 306.121C196.463 296.529 190.323 287.31 183.676 278.463C183.238 277.878 182.603 277.282 182.254 276.797C180.231 273.971 178.429 271.44 176.579 269.008C174.235 265.927 172.338 263.342 170.892 261.253C166.647 255.117 163.416 249.659 158.914 241.66C158.032 240.093 157.279 238.547 156.652 237.023C154.855 232.656 153.133 227.633 151.488 221.951C150.079 217.083 149.19 212.556 148.825 208.37C148.772 207.77 148.686 205.536 148.563 201.665C148.544 201.038 148.578 200.39 148.67 199.718C148.764 199.028 148.777 198.372 148.709 197.755C148.636 197.083 148.83 196.435 148.841 195.719C148.846 195.364 148.859 195.094 148.88 194.905C149.297 191 149.911 187.158 150.722 183.376C152.33 175.892 154.975 168.762 158.659 161.988C160.884 157.9 163.669 153.95 167.012 150.137C169.394 147.421 171.386 145.347 172.983 143.912C176.397 140.849 180.05 138.291 183.939 136.239C185.946 135.181 187.158 134.538 187.575 134.31C188.825 133.63 190.074 133.068 191.325 132.625C193.616 131.811 195.518 131.168 197.029 130.696C202.338 129.032 207.58 128.586 213.43 128.266C215.075 128.177 216.83 128.184 218.69 128.289C222.364 128.5 225.122 128.746 226.964 129.027C232.403 129.858 238.551 131.507 243.786 133.328C247.113 134.485 250.545 135.798 254.083 137.262C254.369 137.38 254.801 137.466 255.132 137.621C260.333 140.054 264.99 142.495 269.102 144.943C278.721 150.672 284.84 154.33 287.46 155.918C288.509 156.556 289.697 157.018 291.025 157.298C291.558 157.411 292.141 157.417 292.77 157.317C294.61 157.026 295.783 156.713 297.16 155.449C304.211 148.972 308.813 144.807 310.967 142.954C311.673 142.348 312.718 141.618 314.101 140.765C317.239 138.836 320.248 137.117 323.631 136.131C326.756 135.218 330.018 134.745 333.416 134.714C334.147 134.706 335.291 134.79 336.853 134.965C340.718 135.399 344.434 136.543 347.91 138.241C348.367 138.464 349.781 139.177 352.153 140.382C353.811 141.225 355.144 142.046 356.149 142.846C358.547 144.757 360.644 146.857 362.436 149.147C363.877 150.987 365.192 152.848 366.377 154.727C366.558 155.013 367.06 155.929 367.876 157.475C368.495 158.642 369.23 159.744 370.077 160.784ZM229.997 216.556C239.939 215.228 246.788 205.074 245.292 193.876C243.799 182.678 234.529 174.674 224.586 176.002C214.644 177.33 207.796 187.484 209.291 198.682C210.785 209.88 220.055 217.884 229.997 216.556ZM347.847 214.409C355.659 213.74 361.261 204.678 360.361 194.17C359.461 183.662 352.397 175.687 344.585 176.359C336.774 177.028 331.172 186.09 332.072 196.598C332.972 207.106 340.035 215.081 347.847 214.409ZM296.859 211.092L295.426 211.029C293.662 211.005 291.844 211.229 289.97 211.703C284.109 213.186 278.289 215.69 274.405 220.19C273.859 220.823 273.539 221.4 273.442 221.917C273.285 222.757 273.329 223.447 273.576 223.985C275.717 228.659 280.76 230.968 285.001 233.267C286.331 233.989 287.42 234.506 288.265 234.821C290.884 235.8 293.799 236.655 296.473 236.514C296.905 236.49 297.84 236.393 299.273 236.217C301.778 235.91 304.502 235.07 306.627 233.677C310.763 230.971 314.016 227.05 316.446 222.899C317.189 221.629 317.658 219.553 316.604 218.272C316.16 217.734 315.604 217.201 314.932 216.676C309.787 212.646 303.41 210.924 296.859 211.092Z" fill="white"/>
<path d="M366.207 285.465C365.953 285.864 365.701 286.263 365.447 286.662C363.374 289.919 366.785 293.784 369.115 295.986C369.464 296.316 369.897 296.781 370.409 297.382C370.983 298.054 372.904 300.272 376.176 304.037C377.333 305.371 378.414 306.709 379.42 308.053C386.677 317.758 393.34 327.667 398.498 338.272C403.334 348.218 407.608 359.119 411.322 370.978C413.195 376.967 414.783 383.36 416.081 390.157C418.307 401.796 419.534 413.317 419.973 425H408.385C408.044 421.032 407.614 417.332 407.091 413.897C405.52 403.56 403.274 393.283 400.354 383.066C399.514 380.129 399.031 378.447 398.908 378.017C395.449 365.961 390.765 354.18 384.854 342.678C380.448 334.104 375.329 326.207 369.5 318.991C369.144 318.547 368.845 318.306 368.606 318.261C367.491 318.057 366.842 318.739 366.622 319.728C366.386 320.791 367.866 322.088 368.262 322.916C368.32 323.038 368.383 323.153 368.454 323.266C370.96 327.278 372.734 330.188 373.781 332.002C373.967 332.325 374.13 332.676 374.274 333.06C372.799 331.472 371.64 330.144 370.792 329.081C368.952 326.769 367.165 324.654 365.431 322.733C363.605 320.71 362.455 319.395 361.986 318.784C359.375 315.414 357.31 311.758 355.788 307.817C355.431 306.89 355.153 305.943 354.953 304.969C353.925 299.962 356.657 295.141 359.96 291.346C361.7 289.352 363.647 287.446 365.801 285.633C365.882 285.565 366.019 285.51 366.207 285.465Z" fill="#8DB4FF"/>
<path d="M351.544 198.754C355.261 198.185 357.636 193.546 356.847 188.393C356.058 183.239 352.406 179.523 348.689 180.092C344.971 180.66 342.597 185.299 343.386 190.453C344.174 195.606 347.826 199.323 351.544 198.754Z" fill="white"/>
<path d="M234.47 202.893C239.324 202.072 242.404 196.35 241.349 190.114C240.294 183.878 235.504 179.487 230.651 180.308C225.797 181.13 222.717 186.851 223.771 193.087C224.826 199.324 229.616 203.714 234.47 202.893Z" fill="white"/>
<path d="M343.194 203.521C343.37 201.417 341.965 199.581 340.054 199.421C338.144 199.26 336.452 200.836 336.275 202.94C336.098 205.045 337.504 206.88 339.414 207.041C341.325 207.201 343.017 205.625 343.194 203.521Z" fill="white"/>
<path d="M220.014 209.911C222.224 209.624 223.776 207.543 223.48 205.264C223.184 202.985 221.152 201.369 218.942 201.656C216.732 201.943 215.18 204.024 215.476 206.304C215.772 208.583 217.803 210.198 220.014 209.911Z" fill="white"/>
<path d="M296.859 211.092C297.473 211.171 298.089 211.229 298.709 211.262C299.498 211.307 300.11 211.367 300.548 211.443C305.109 212.236 309.257 213.992 312.996 216.708C313.555 217.115 314.145 217.661 314.767 218.346C316.252 219.986 315.525 221.935 314.615 223.623C312.306 227.903 309.06 231.349 304.878 233.955C296.924 238.91 287.719 233.703 280.868 229.113C279.165 227.974 277.88 226.904 277.011 225.901C276.153 224.909 275.657 224.08 275.518 223.416C275.306 222.392 275.592 221.416 276.376 220.487C278.533 217.936 281.758 215.968 284.747 214.608C286.864 213.645 289.367 212.659 292.262 211.653C292.716 211.496 293.238 211.373 293.825 211.286C294.355 211.21 294.888 211.123 295.426 211.029L296.859 211.092ZM284.481 223.77C287.155 224.287 290.152 224.694 293.466 224.996C297.489 225.36 301.023 225.51 304.468 224.752C307.307 224.127 309.918 223.24 312.304 222.09C312.862 221.82 313.356 221.547 313.786 221.271C313.812 221.253 313.83 221.23 313.841 221.203C313.899 221.04 313.841 220.983 313.66 221.033C310.204 221.965 307.276 222.702 304.875 223.245C303.204 223.62 301.369 223.783 299.375 223.733C291.464 223.528 285.502 223.35 281.493 223.2C281.438 223.2 281.412 223.229 281.409 223.295V223.373C281.404 223.423 281.438 223.468 281.482 223.471C281.482 223.471 281.482 223.471 281.485 223.471C282.619 223.502 283.618 223.602 284.481 223.77Z" fill="#FBB040"/>
<path d="M229.998 216.555C220.056 217.884 210.785 209.879 209.292 198.682C207.799 187.484 214.645 177.33 224.587 176.002C234.53 174.674 243.8 182.678 245.293 193.876C246.786 205.074 239.94 215.228 229.998 216.555ZM234.472 202.894C239.326 202.072 242.407 196.351 241.352 190.116C240.297 183.88 235.509 179.49 230.654 180.311C225.8 181.133 222.719 186.854 223.774 193.089C224.829 199.324 229.617 203.715 234.472 202.894ZM220.016 209.911C222.226 209.625 223.779 207.544 223.483 205.263C223.186 202.983 221.155 201.369 218.946 201.655C216.736 201.941 215.183 204.022 215.479 206.303C215.776 208.583 217.807 210.197 220.016 209.911Z" fill="black"/>
<path d="M347.848 214.409C340.036 215.078 332.975 207.103 332.072 196.598C331.173 186.09 336.775 177.031 344.586 176.359C352.398 175.69 359.459 183.665 360.362 194.17C361.262 204.678 355.659 213.737 347.848 214.409ZM351.545 198.755C355.263 198.185 357.638 193.548 356.848 188.394C356.061 183.24 352.406 179.524 348.69 180.094C344.975 180.663 342.597 185.3 343.387 190.454C344.174 195.609 347.83 199.324 351.545 198.755ZM339.415 207.04C341.325 207.2 343.017 205.625 343.193 203.521C343.369 201.416 341.965 199.582 340.055 199.419C338.145 199.259 336.452 200.834 336.276 202.938C336.1 205.043 337.504 206.877 339.415 207.04Z" fill="black"/>
<path d="M295.426 211.029C294.888 211.123 294.355 211.21 293.825 211.286C293.238 211.373 292.716 211.496 292.262 211.653C289.367 212.659 286.864 213.645 284.747 214.608C281.758 215.968 278.533 217.936 276.376 220.487C275.592 221.416 275.306 222.392 275.518 223.416C275.657 224.08 276.153 224.909 277.011 225.901C277.88 226.903 279.165 227.974 280.868 229.113C287.719 233.703 296.924 238.91 304.878 233.955C309.06 231.349 312.306 227.903 314.615 223.623C315.525 221.936 316.252 219.986 314.767 218.346C314.145 217.661 313.555 217.115 312.996 216.708C309.257 213.992 305.109 212.236 300.548 211.443C300.11 211.367 299.498 211.307 298.709 211.262C298.089 211.229 297.473 211.171 296.859 211.092C303.411 210.924 309.787 212.645 314.932 216.676C315.604 217.201 316.16 217.734 316.604 218.272C317.659 219.553 317.189 221.629 316.446 222.899C314.017 227.05 310.763 230.971 306.628 233.677C304.502 235.07 301.779 235.91 299.273 236.217C297.84 236.393 296.906 236.49 296.473 236.514C293.799 236.655 290.884 235.8 288.265 234.821C287.42 234.506 286.331 233.989 285.001 233.267C280.76 230.968 275.717 228.659 273.576 223.985C273.33 223.447 273.285 222.757 273.443 221.917C273.539 221.4 273.86 220.823 274.405 220.19C278.289 215.69 284.109 213.186 289.971 211.703C291.844 211.229 293.663 211.005 295.426 211.029Z" fill="black"/>
<path d="M284.481 223.77C283.618 223.602 282.619 223.502 281.485 223.471C281.44 223.471 281.404 223.429 281.406 223.376C281.406 223.376 281.406 223.376 281.406 223.373V223.295C281.412 223.229 281.438 223.198 281.493 223.2C285.502 223.35 291.464 223.528 299.375 223.733C301.369 223.783 303.204 223.621 304.875 223.245C307.276 222.702 310.204 221.965 313.66 221.033C313.838 220.983 313.899 221.04 313.841 221.203C313.831 221.23 313.812 221.253 313.786 221.271C313.356 221.547 312.862 221.82 312.304 222.091C309.918 223.24 307.307 224.127 304.468 224.752C301.023 225.51 297.489 225.36 293.466 224.996C290.152 224.694 287.155 224.287 284.481 223.77Z" fill="black"/>
<path d="M408.385 425H401.505C400.597 418.864 399.639 412.731 398.629 406.601C397.448 399.439 396.002 392.332 394.291 385.281C390.807 370.918 386.215 357.455 380.516 344.895C379.046 341.659 376.966 337.713 374.273 333.06C374.129 332.676 373.966 332.325 373.78 332.002C372.733 330.189 370.959 327.278 368.453 323.266C368.383 323.153 368.32 323.038 368.262 322.917C367.866 322.088 366.386 320.791 366.622 319.728C366.842 318.739 367.491 318.057 368.606 318.261C368.844 318.306 369.143 318.547 369.5 318.991C375.328 326.207 380.447 334.104 384.853 342.678C390.765 354.18 395.449 365.961 398.907 378.017C399.031 378.447 399.513 380.129 400.353 383.066C403.273 393.283 405.519 403.56 407.091 413.897C407.613 417.332 408.044 421.032 408.385 425Z" fill="black"/>
<path d="M167.98 425H162.693C162.669 422.775 162.75 420.956 162.931 419.544C163.808 412.763 165.015 406.165 166.55 399.754C167.143 397.274 168.082 393.569 169.371 388.632C170.302 385.066 171.045 381.318 171.601 377.395C171.868 375.508 172.042 373.729 172.118 372.06C172.483 364.173 171.981 356.587 170.609 349.304C169.901 345.543 168.832 342.143 167.605 338.618C167.531 338.403 167.647 338.172 167.859 338.098C167.93 338.075 168.003 338.069 168.077 338.085C168.791 338.24 170.144 339.991 170.913 341.037C171.52 341.862 172.142 342.922 172.782 344.218C174.836 348.378 176.206 352.781 176.891 357.424C177.019 358.282 177.172 360.016 177.347 362.623C177.478 364.586 177.541 366.323 177.536 367.837C177.505 375.001 176.71 382.087 175.151 389.091C174.999 389.776 174.128 393.324 172.54 399.735C171.782 402.788 171.04 405.884 170.528 408.858C169.604 414.227 168.874 419.623 167.98 425Z" fill="black"/>
<path d="M424.288 425H419.972C419.534 413.316 418.305 401.795 416.081 390.157C414.781 383.36 413.194 376.967 411.32 370.978C407.608 359.119 403.333 348.217 398.497 338.271C393.338 327.667 386.676 317.757 379.418 308.053C378.414 306.709 377.332 305.37 376.175 304.037C372.903 300.271 370.983 298.054 370.408 297.382C369.896 296.781 369.463 296.316 369.114 295.986C366.784 293.784 363.373 289.918 365.446 286.662C365.7 286.263 365.952 285.864 366.207 285.465L366.309 285.286C366.388 285.281 366.466 285.234 366.548 285.142C368.715 282.704 370.634 280.355 372.3 278.096C375.157 274.227 377.371 270.018 378.949 265.468C379.579 263.649 379.964 262.484 380.103 261.972C380.203 261.922 380.25 261.793 380.242 261.584C381.633 255.883 382.635 251.821 383.218 247.155C383.934 241.413 383.622 235.178 382.213 229.328C381.286 225.481 380.287 222.227 379.214 219.566C377.663 215.718 376.611 213.291 376.06 212.283C373.611 207.798 372.247 205.2 371.967 204.489C370.62 201.085 370.203 197.647 370.709 194.17C371.384 189.562 371.843 185.373 372.087 181.602C372.137 180.865 372.153 180.316 372.134 179.952C371.917 175.249 371.518 170.504 370.935 165.714C370.749 164.19 370.463 162.547 370.077 160.784C369.227 155.884 367.752 151.478 365.656 147.562C363.727 143.964 362.428 141.584 361.754 140.421C359.238 136.065 356.286 131.814 352.898 127.665C348.361 122.104 343.04 117.755 336.934 114.619C332.534 112.357 327.745 110.16 322.57 108.03C315.921 105.29 309.76 103.833 302.418 102.043C296.575 100.618 292.211 99.7209 289.333 99.3483C289.241 99.3351 289.199 99.3772 289.206 99.469C289.409 101.537 288.026 103.243 286.417 104.295C284.41 105.607 282.195 106.66 279.773 107.455C279.718 107.473 279.687 107.534 279.705 107.591C279.711 107.607 279.718 107.623 279.731 107.633C280.542 108.434 281.791 109.651 283.473 111.289C285.147 112.921 286.171 114.191 287.876 116.296C288.85 117.498 289.527 119.288 288.947 120.768C287.685 123.98 282.901 123.161 280.427 122.201C277.952 121.238 275.814 120.177 274.016 119.015C273.529 118.7 273.232 118.424 273.127 118.186C272.434 116.608 273.644 115.336 275.197 115.729C275.321 115.761 277.396 116.296 281.418 117.335C281.481 117.354 281.55 117.317 281.568 117.254C281.581 117.212 281.568 117.167 281.539 117.136C279.7 115.105 277.929 113.092 276.226 111.095C274.817 109.444 273.085 106.775 274.714 104.836C275.098 104.376 276.045 103.804 277.553 103.117C279.039 102.44 280.516 101.744 281.985 101.033C282.219 100.92 282.216 100.789 281.98 100.637C281.933 100.605 281.878 100.587 281.82 100.584C276.118 100.13 270.149 100.461 264.586 100.695C262.936 100.763 259.897 101.445 259.708 99.1462C259.661 98.5741 259.839 97.8655 260.246 97.0179C261.272 94.8843 262.574 92.9948 263.998 90.9295C265.859 88.2317 268.034 84.5576 269.309 81.104C269.383 80.9072 269.28 80.6894 269.086 80.6159C269.012 80.5896 268.931 80.5844 268.855 80.6054C267.661 80.9255 266.328 81.4111 264.859 82.0619C261.92 83.3662 259.304 84.6442 257.01 85.9013C251.912 88.6909 246.404 91.8034 240.49 95.2386C239.259 95.9551 238.194 96.2752 236.848 96.3382C230.731 96.6269 224.951 97.0468 219.506 97.5979C216.428 97.9075 213.395 98.3038 210.401 98.7893C203.734 99.8679 197.042 101.269 190.331 102.993C186.022 104.101 180.769 105.723 174.573 107.856C173.162 108.342 171.538 108.99 169.698 109.796C160.278 113.926 152.829 117.687 145.636 122.986C139.908 127.208 133.994 132.541 129.003 138.217C127.828 139.553 126.767 140.943 125.825 142.385C123.529 145.885 121.522 149.354 119.803 152.795C118.282 155.84 117.229 158.046 116.644 159.417C115.135 162.962 113.574 167.019 111.96 171.593C109.478 178.624 108.077 186.14 107.088 193.949C106.891 195.498 106.786 197.24 106.773 199.18C106.744 202.768 106.744 205.896 106.773 208.565C106.838 214.766 107.479 220.93 108.691 227.063C109.019 228.711 109.436 230.407 109.943 232.152C111.706 238.22 113.753 244.006 116.08 249.514C117.599 253.112 118.935 256.608 120.36 259.314C122.664 263.688 124.954 268.068 127.229 272.459C128.04 274.026 128.757 275.561 129.379 277.07C130.349 279.424 130.525 282.095 130.352 284.693C130.218 286.698 129.827 288.57 129.181 290.304C127.355 295.212 124.272 300.004 121.052 304.41C113.461 314.797 109.158 320.539 103.574 329.183C102.065 331.522 100.656 333.965 99.3496 336.508C95.9805 343.064 92.837 349.81 90.5226 356.991C87.9433 364.987 85.8231 373.563 84.1595 382.725C83.8551 384.407 83.6032 386.139 83.4064 387.916C82.5956 395.25 82.1154 401.053 81.9685 405.317C81.7402 411.878 81.5015 418.439 81.2521 425H75.3273C75.0176 418.727 74.9258 413.545 75.0544 409.451C75.2118 404.336 75.5188 398.956 75.978 393.311C76.411 387.973 77.1955 382.806 78.3343 377.812C80.2341 369.496 82.4854 361.284 85.3796 353.377C85.6709 352.584 86.2403 350.983 87.0905 348.577C89.2867 342.352 91.9632 336.287 95.2668 330.616C98.9902 324.223 102.527 318.673 105.881 313.965C109.357 309.081 113.057 303.972 116.977 298.631C119.357 295.39 121.289 292.141 122.774 288.879C123.6 287.06 123.96 285.179 123.85 283.234C123.721 280.927 123.207 278.657 122.307 276.424C121.357 274.065 120.635 272.388 120.145 271.388C116.838 264.662 114.634 260.505 112.443 254.876C110.911 250.939 109.455 247.793 107.694 243.646C103.472 233.713 101.013 223.268 99.8797 212.627C99.4048 208.179 99.3077 203.746 99.5832 199.332C100.079 191.373 101.16 183.326 103.333 175.482C103.776 173.879 104.22 172.501 104.663 171.344C105.401 169.418 105.778 167.984 106.694 165.909C107.749 163.523 109.024 160.012 109.916 157.925C112.275 152.399 115.143 147.192 118.515 142.308C124.12 134.192 131.372 127.36 139.318 120.931C146.224 115.341 153.993 110.599 162.624 106.702C168.153 104.206 173.532 102.096 178.761 100.372C180.076 99.9388 181.742 99.406 183.76 98.7762C196.016 94.9525 208.53 92.4962 221.296 91.4018C224.442 91.1316 227.656 90.9032 230.939 90.7169C232.768 90.6119 234.471 90.6382 236.053 90.7957C236.239 90.814 236.575 90.7195 236.772 90.5988C243.794 86.211 250.989 82.033 258.532 78.6477C260.815 77.6242 263.274 76.7949 265.564 76.228C267.055 75.858 268.215 75.5483 269.044 75.2938C269.553 75.1389 270.592 74.992 271.159 74.9999C272.846 75.0261 274.016 75.7268 274.672 77.1019C275.578 78.9967 274.767 81.8519 273.943 83.8149C272.573 87.077 270.755 90.3442 268.485 93.6115C268.453 93.6587 268.467 93.7244 268.514 93.7585C268.535 93.7716 268.561 93.7795 268.585 93.7742C269.69 93.6168 270.944 93.5564 272.35 93.5958C278.23 93.7532 284.302 94.307 290.568 95.257C297.254 96.2674 303.974 97.5743 310.726 99.1751C314.413 100.049 318.285 101.353 322.347 103.093C327.582 105.332 332.662 107.77 337.587 110.405C338.485 110.885 339.928 111.837 341.914 113.262C342.691 113.821 344.207 115.084 346.466 117.055C347.726 118.154 348.986 119.356 350.248 120.663C352.329 122.818 353.601 124.166 354.068 124.71C354.958 125.738 356.194 127.41 357.779 129.725C360.6 133.845 361.822 135.409 363.231 137.915C365.299 141.587 368.316 146.31 370.232 151.121C373.352 158.954 375.666 167.163 376.482 175.349C376.954 180.083 377.149 184.552 377.067 188.759C377.012 191.596 377.017 194.244 377.08 196.708C377.109 197.805 377.233 198.983 377.611 200.145C378.133 201.755 378.914 203.458 379.956 205.25C381.155 207.31 381.79 208.41 381.861 208.543C382.772 210.284 383.743 212.255 384.777 214.456C387.61 220.489 389.074 226.935 389.699 233.44C389.883 235.335 389.849 237.762 389.927 239.77C389.962 240.639 389.94 241.484 389.864 242.305C389.568 245.531 389.377 247.381 389.287 247.858C388.66 251.241 387.999 254.456 387.309 257.503C386.663 260.358 385.871 263.103 384.412 265.675C381.977 269.966 380.707 272.193 380.599 272.359C379.901 273.443 379.014 274.737 377.938 276.246C377.414 276.983 376.396 278.169 374.887 279.804C373.43 281.381 371.914 283.022 370.331 284.725C370.093 284.982 369.731 285.42 369.251 286.04C369.138 286.182 369.151 286.388 369.282 286.514C370.316 287.527 371.546 288.695 372.976 290.018C374.357 291.294 376.01 293.023 377.933 295.206C378.356 295.687 379.434 296.82 381.168 298.607C382.987 300.484 384.351 302.103 386.451 304.539C389.423 307.987 392.14 311.674 394.598 315.597C396.768 319.064 398.93 322.68 400.741 326.249C407.125 338.838 412.638 352.089 417.275 366C420.265 374.983 422.654 383.947 423.821 392.894C425.217 403.57 425.372 414.272 424.288 425Z" fill="black"/>
</g>
<path d="M250 0C388.071 0 500 111.929 500 250C500 388.071 388.071 500 250 500C111.929 500 0 388.071 0 250C0 111.929 111.929 0 250 0ZM249.5 38C132.139 38 37 133.139 37 250.5C37 367.861 132.139 463 249.5 463C366.861 463 462 367.861 462 250.5C462 133.139 366.861 38 249.5 38Z" fill="#0000FF"/>
<path d="M109 300C164.228 300 209 344.772 209 400C209 435.449 190.554 466.589 162.737 484.348C99.7039 460.867 48.6979 412.683 21.4922 351.566C38.5488 320.815 71.3432 300 109 300Z" fill="#0000FF"/>
<path d="M71.8376 362.031L76.5727 366.766L71.8376 371.501L67.1025 366.766L71.8376 362.031ZM67.1025 366.766L71.8376 371.501L67.1025 376.236L62.3674 371.501L67.1025 366.766ZM62.3674 362.031L67.1025 366.766L62.3674 371.501L57.6323 366.766L62.3674 362.031ZM67.1025 357.296L71.8376 362.031L67.1025 366.766L62.3674 362.031L67.1025 357.296ZM71.8376 352.561L76.5727 357.296L71.8376 362.031L67.1025 357.296L71.8376 352.561ZM76.5727 347.826L81.3078 352.561L76.5727 357.296L71.8376 352.561L76.5727 347.826ZM81.3078 343.09L86.0429 347.826L81.3078 352.561L76.5727 347.826L81.3078 343.09ZM86.0429 338.355L90.778 343.09L86.0429 347.826L81.3078 343.09L86.0429 338.355ZM90.778 333.62L95.513 338.355L90.778 343.09L86.0429 338.355L90.778 333.62ZM95.513 328.885L100.248 333.62L95.513 338.355L90.778 333.62L95.513 328.885ZM95.513 338.355L100.248 343.09L95.513 347.826L90.778 343.09L95.513 338.355ZM90.778 343.09L95.513 347.826L90.778 352.561L86.0429 347.826L90.778 343.09ZM86.0429 347.826L90.778 352.561L86.0429 357.296L81.3078 352.561L86.0429 347.826ZM81.3078 352.561L86.0429 357.296L81.3078 362.031L76.5727 357.296L81.3078 352.561ZM76.5727 357.296L81.3078 362.031L76.5727 366.766L71.8376 362.031L76.5727 357.296ZM100.248 333.62L104.983 338.355L100.248 343.09L95.513 338.355L100.248 333.62ZM104.983 328.885L109.718 333.62L104.983 338.355L100.248 333.62L104.983 328.885ZM104.983 319.415L109.718 324.15L104.983 328.885L100.248 324.15L104.983 319.415ZM109.718 324.15L114.453 328.885L109.718 333.62L104.983 328.885L109.718 324.15ZM100.248 324.15L104.983 328.885L100.248 333.62L95.513 328.885L100.248 324.15ZM100.248 314.68L104.983 319.415L100.248 324.15L95.513 319.415L100.248 314.68ZM95.513 319.415L100.248 324.15L95.513 328.885L90.778 324.15L95.513 319.415Z" fill="white"/>
<path d="M133.041 347.473L137.776 352.208L133.041 356.943L128.306 352.208L133.041 347.473ZM128.306 342.738L133.041 347.473L128.306 352.208L123.571 347.473L128.306 342.738ZM123.571 347.473L128.306 352.208L123.571 356.943L118.836 352.208L123.571 347.473ZM128.306 352.208L133.041 356.943L128.306 361.678L123.571 356.943L128.306 352.208ZM133.041 356.943L137.776 361.678L133.041 366.413L128.306 361.678L133.041 356.943ZM137.776 352.208L142.511 356.943L137.776 361.678L133.041 356.943L137.776 352.208ZM142.511 356.943L147.246 361.678L142.511 366.413L137.776 361.678L142.511 356.943ZM142.511 366.413L147.246 371.148L142.511 375.883L137.776 371.148L142.511 366.413ZM137.776 361.678L142.511 366.413L137.776 371.148L133.041 366.413L137.776 361.678ZM137.776 371.148L142.511 375.883L137.776 380.619L133.041 375.883L137.776 371.148ZM109.366 399.559L114.101 404.294L109.366 409.029L104.631 404.294L109.366 399.559ZM114.101 394.824L118.836 399.559L114.101 404.294L109.366 399.559L114.101 394.824ZM118.836 390.089L123.571 394.824L118.836 399.559L114.101 394.824L118.836 390.089ZM123.571 385.354L128.306 390.089L123.571 394.824L118.836 390.089L123.571 385.354ZM128.306 380.619L133.041 385.354L128.306 390.089L123.571 385.354L128.306 380.619ZM133.041 375.883L137.776 380.619L133.041 385.354L128.306 380.619L133.041 375.883ZM104.631 394.824L109.366 399.559L104.631 404.294L99.8955 399.559L104.631 394.824ZM99.8955 399.559L104.631 404.294L99.8955 409.029L95.1604 404.294L99.8955 399.559ZM95.1604 394.824L99.8955 399.559L95.1604 404.294L90.4253 399.559L95.1604 394.824ZM99.8955 390.089L104.631 394.824L99.8955 399.559L95.1604 394.824L99.8955 390.089ZM90.4253 390.089L95.1604 394.824L90.4253 399.559L85.6902 394.824L90.4253 390.089ZM85.6902 385.354L90.4253 390.089L85.6902 394.824L80.9551 390.089L85.6902 385.354ZM90.4253 380.619L95.1604 385.354L90.4253 390.089L85.6902 385.354L90.4253 380.619ZM95.1604 385.354L99.8955 390.089L95.1604 394.824L90.4253 390.089L95.1604 385.354ZM95.1604 375.883L99.8955 380.619L95.1604 385.354L90.4253 380.619L95.1604 375.883ZM85.6902 375.883L90.4253 380.619L85.6902 385.354L80.9551 380.619L85.6902 375.883ZM90.4253 371.148L95.1604 375.883L90.4253 380.619L85.6902 375.883L90.4253 371.148ZM95.1604 366.413L99.8955 371.148L95.1604 375.883L90.4253 371.148L95.1604 366.413ZM99.8955 361.678L104.631 366.413L99.8955 371.148L95.1604 366.413L99.8955 361.678ZM104.631 356.943L109.366 361.678L104.631 366.413L99.8955 361.678L104.631 356.943ZM109.366 352.208L114.101 356.943L109.366 361.678L104.631 356.943L109.366 352.208ZM114.101 347.473L118.836 352.208L114.101 356.943L109.366 352.208L114.101 347.473ZM118.836 352.208L123.571 356.943L118.836 361.678L114.101 356.943L118.836 352.208ZM118.836 342.738L123.571 347.473L118.836 352.208L114.101 347.473L118.836 342.738ZM114.101 356.943L118.836 361.678L114.101 366.413L109.366 361.678L114.101 356.943ZM109.366 361.678L114.101 366.413L109.366 371.148L104.631 366.413L109.366 361.678ZM104.631 366.413L109.366 371.148L104.631 375.883L99.8955 371.148L104.631 366.413ZM99.8955 371.148L104.631 375.883L99.8955 380.619L95.1604 375.883L99.8955 371.148ZM133.041 366.413L137.776 371.148L133.041 375.883L128.306 371.148L133.041 366.413ZM128.306 371.148L133.041 375.883L128.306 380.619L123.571 375.883L128.306 371.148ZM123.571 375.883L128.306 380.619L123.571 385.354L118.836 380.619L123.571 375.883ZM118.836 380.619L123.571 385.354L118.836 390.089L114.101 385.354L118.836 380.619ZM114.101 385.354L118.836 390.089L114.101 394.824L109.366 390.089L114.101 385.354ZM109.366 390.089L114.101 394.824L109.366 399.559L104.631 394.824L109.366 390.089Z" fill="white"/>
<path d="M165.871 380.303L170.606 385.038L165.871 389.773L161.136 385.038L165.871 380.303ZM161.136 385.038L165.871 389.773L161.136 394.508L156.401 389.773L161.136 385.038ZM156.401 389.773L161.136 394.508L156.401 399.243L151.666 394.508L156.401 389.773ZM161.136 394.508L165.871 399.243L161.136 403.978L156.401 399.243L161.136 394.508ZM156.401 399.243L161.136 403.978L156.401 408.713L151.666 403.978L156.401 399.243ZM161.136 403.978L165.871 408.713L161.136 413.448L156.401 408.713L161.136 403.978ZM165.871 408.713L170.606 413.448L165.871 418.184L161.136 413.448L165.871 408.713ZM170.606 403.978L175.341 408.713L170.606 413.448L165.871 408.713L170.606 403.978ZM175.341 408.713L180.076 413.448L175.341 418.184L170.606 413.448L175.341 408.713ZM180.076 413.448L184.811 418.184L180.076 422.919L175.341 418.184L180.076 413.448ZM184.811 408.713L189.547 413.448L184.811 418.184L180.076 413.448L184.811 408.713ZM189.547 403.978L194.282 408.713L189.547 413.448L184.811 408.713L189.547 403.978ZM184.811 399.243L189.547 403.978L184.811 408.713L180.076 403.978L184.811 399.243ZM180.076 403.978L184.811 408.713L180.076 413.448L175.341 408.713L180.076 403.978ZM170.606 413.448L175.341 418.184L170.606 422.919L165.871 418.184L170.606 413.448ZM151.666 394.508L156.401 399.243L151.666 403.978L146.931 399.243L151.666 394.508ZM151.666 385.038L156.401 389.773L151.666 394.508L146.931 389.773L151.666 385.038ZM156.401 380.303L161.136 385.038L156.401 389.773L151.666 385.038L156.401 380.303ZM161.136 375.568L165.871 380.303L161.136 385.038L156.401 380.303L161.136 375.568ZM151.666 403.978L156.401 408.713L151.666 413.448L146.931 408.713L151.666 403.978ZM156.401 408.713L161.136 413.448L156.401 418.184L151.666 413.448L156.401 408.713ZM161.136 413.448L165.871 418.184L161.136 422.919L156.401 418.184L161.136 413.448ZM156.401 418.184L161.136 422.919L156.401 427.654L151.666 422.919L156.401 418.184ZM161.136 422.919L165.871 427.654L161.136 432.389L156.401 427.654L161.136 422.919ZM156.401 427.654L161.136 432.389L156.401 437.124L151.666 432.389L156.401 427.654ZM151.666 422.919L156.401 427.654L151.666 432.389L146.931 427.654L151.666 422.919ZM146.931 446.594L151.666 451.329L146.931 456.064L142.196 451.329L146.931 446.594ZM151.666 441.859L156.401 446.594L151.666 451.329L146.931 446.594L151.666 441.859ZM156.401 437.124L161.136 441.859L156.401 446.594L151.666 441.859L156.401 437.124ZM161.136 432.389L165.871 437.124L161.136 441.859L156.401 437.124L161.136 432.389ZM151.666 432.389L156.401 437.124L151.666 441.859L146.931 437.124L151.666 432.389ZM146.931 437.124L151.666 441.859L146.931 446.594L142.196 441.859L146.931 437.124ZM142.196 441.859L146.931 446.594L142.196 451.329L137.461 446.594L142.196 441.859ZM118.52 418.184L123.255 422.919L118.52 427.654L113.785 422.919L118.52 418.184ZM123.255 422.919L127.99 427.654L123.255 432.389L118.52 427.654L123.255 422.919ZM127.99 418.184L132.725 422.919L127.99 427.654L123.255 422.919L127.99 418.184ZM132.725 413.448L137.461 418.184L132.725 422.919L127.99 418.184L132.725 413.448ZM127.99 408.713L132.725 413.448L127.99 418.184L123.255 413.448L127.99 408.713ZM132.725 403.978L137.461 408.713L132.725 413.448L127.99 408.713L132.725 403.978ZM123.255 413.448L127.99 418.184L123.255 422.919L118.52 418.184L123.255 413.448ZM137.461 408.713L142.196 413.448L137.461 418.184L132.725 413.448L137.461 408.713ZM142.196 413.448L146.931 418.184L142.196 422.919L137.461 418.184L142.196 413.448ZM146.931 408.713L151.666 413.448L146.931 418.184L142.196 413.448L146.931 408.713ZM142.196 403.978L146.931 408.713L142.196 413.448L137.461 408.713L142.196 403.978ZM151.666 413.448L156.401 418.184L151.666 422.919L146.931 418.184L151.666 413.448Z" fill="white"/>
</g>
<defs>
<clipPath id="clip0_11_2195">
<rect width="500" height="500" fill="white"/>
</clipPath>
<clipPath id="clip1_11_2195">
<rect width="350" height="350" fill="white" transform="translate(75 75)"/>
</clipPath>
</defs>
</svg>
