<svg width="500" height="500" viewBox="0 0 500 500" fill="none" xmlns="http://www.w3.org/2000/svg">
<g clip-path="url(#clip0_11_2352)">
<circle cx="250" cy="250" r="215" fill="white"/>
<g clip-path="url(#clip1_11_2352)">
<path d="M250 465C368.741 465 465 368.741 465 250C465 131.259 368.741 35 250 35C131.259 35 35 131.259 35 250C35 368.741 131.259 465 250 465Z" fill="#FDDE00"/>
<path d="M145.356 187.012C145.356 187.012 134.27 201.037 137.965 264.445C137.965 264.445 113.694 326.594 121.924 358.34C130.154 390.002 162.236 388.406 162.236 388.406C162.236 388.406 213.719 433.674 253.192 393.781C292.748 353.805 220.27 199.021 220.27 199.021L211.199 145.523C211.199 145.523 201.289 153.334 202.549 204.816C203.809 256.299 182.393 220.018 182.393 220.018L145.356 187.012Z" fill="#3C2D0C"/>
<path d="M149.471 243.029L135.865 281.326L130.91 308.117C130.91 308.117 114.029 367.83 183.652 366.99C183.652 366.99 237.99 415.617 273.432 383.031L282.922 372.701L299.383 347.17L326.594 266.041C326.594 266.041 317.943 210.443 263.186 187.432C263.186 187.432 258.65 184.996 250.42 188.271C250.42 188.271 227.744 137.209 213.383 143.424C213.383 143.424 201.037 149.975 211.703 200.281L192.387 208.932C192.387 208.932 171.223 168.787 151.654 176.85C133.43 184.156 149.471 243.029 149.471 243.029Z" fill="#E78C19"/>
<path d="M219.85 168.451L221.529 190.707C221.529 190.707 222.789 203.473 236.31 198.937C240.174 197.678 243.533 194.99 243.197 190.623C242.945 187.348 240.678 184.324 239.166 181.553C236.394 176.262 234.127 170.635 230.851 165.512C229.172 162.908 225.728 157.113 221.949 157.785C221.949 157.785 219.094 156.945 219.85 168.451Z" fill="#EFB99D"/>
<path d="M160.389 193.479C160.641 193.311 166.184 186.34 177.69 203.305C189.196 220.27 188.02 218.086 188.02 218.086C188.02 218.086 194.235 224.889 181.553 233.623C178.781 235.639 175.758 237.318 172.567 238.662C170.551 239.418 168.451 239.838 166.352 239.838C163.916 239.754 162.824 238.494 162.237 236.227C160.305 228.836 158.121 221.445 157.029 213.887C156.19 208.008 154.51 197.258 160.389 193.479Z" fill="#EFB99D"/>
<path d="M294.092 227.66C294.092 231.691 288.213 234.967 280.906 234.967C273.6 234.967 267.721 231.691 267.721 227.66C267.721 223.629 273.768 217.666 280.99 217.666C288.213 217.666 294.092 223.629 294.092 227.66Z" fill="#FBFBFB"/>
<path d="M218.048 259.206C221.954 252.303 221.521 244.67 217.081 242.157C212.641 239.644 205.874 243.203 201.968 250.106C198.062 257.009 198.495 264.642 202.935 267.154C207.376 269.667 214.142 266.108 218.048 259.206Z" fill="#FBFBFB"/>
<path d="M236.731 292.58L272.76 273.852C272.76 273.852 317.608 250.42 328.526 268.477C339.444 286.533 328.526 314.164 328.526 314.164C328.526 314.164 323.822 346.498 290.817 349.354L273.096 351.789L250.42 352.377C250.42 352.377 213.971 354.477 187.18 334.656L178.697 324.326C178.697 324.326 161.649 300.895 173.574 284.014C185.5 267.133 226.317 293.252 226.317 293.252C226.317 293.252 232.027 296.359 236.731 292.58Z" fill="#FBFBFB"/>
<path d="M318.447 199.189C323.225 199.189 327.098 195.317 327.098 190.539C327.098 185.762 323.225 181.889 318.447 181.889C313.67 181.889 309.797 185.762 309.797 190.539C309.797 195.317 313.67 199.189 318.447 199.189Z" fill="#E72D36"/>
<path d="M299.299 177.941C304.076 177.941 307.949 174.068 307.949 169.291C307.949 164.514 304.076 160.641 299.299 160.641C294.521 160.641 290.648 164.514 290.648 169.291C290.648 174.068 294.521 177.941 299.299 177.941Z" fill="#E72D36"/>
<path d="M268.645 171.139C273.422 171.139 277.295 167.266 277.295 162.488C277.295 157.711 273.422 153.838 268.645 153.838C263.867 153.838 259.994 157.711 259.994 162.488C259.994 167.266 263.867 171.139 268.645 171.139Z" fill="#E72D36"/>
<path d="M275.447 101.18C277.295 126.711 273.6 149.807 267.385 149.807C261.17 149.807 252.939 124.863 252.939 101.18C252.939 91.4375 258.062 89.8418 264.277 89.8418C270.576 89.8418 274.775 91.4375 275.447 101.18Z" fill="#E72D36"/>
<path d="M332.725 117.053C323.318 140.82 309.965 160.053 304.422 157.365C298.879 154.678 302.238 128.643 312.568 107.311C316.852 98.4922 322.143 99.332 327.686 102.02C333.229 104.791 336.336 107.982 332.725 117.053Z" fill="#E72D36"/>
<path d="M373.709 163.412C352.965 178.445 331.465 187.516 328.19 182.225C324.914 176.934 341.795 156.861 361.867 144.348C370.182 139.225 374.213 142.752 377.488 147.959C380.68 153.25 381.604 157.617 373.709 163.412Z" fill="#E72D36"/>
<path d="M235.051 267.469C234.295 267.553 233.539 267.637 232.783 267.721C232.867 267.973 232.951 268.225 232.951 268.561C232.951 271.164 228.836 273.348 223.713 273.516C223.713 273.768 223.629 273.936 223.713 274.187C223.965 277.379 229.508 279.562 235.975 279.059C242.526 278.555 247.649 275.531 247.397 272.34C247.061 269.148 241.602 266.965 235.051 267.469Z" fill="black"/>
<path d="M280.571 256.215C279.815 256.299 279.059 256.383 278.303 256.467C278.387 256.719 278.471 256.971 278.471 257.307C278.471 259.91 274.356 262.094 269.233 262.262C269.233 262.514 269.149 262.682 269.233 262.934C269.485 266.125 275.028 268.309 281.494 267.805C288.045 267.301 293.168 264.277 292.916 261.086C292.664 257.895 287.121 255.711 280.571 256.215Z" fill="black"/>
<path d="M295.52 269.568C295.52 269.568 277.463 274.859 278.555 285.021C279.647 295.184 301.399 300.475 301.399 300.475C301.399 300.475 307.278 302.826 310.637 297.199C313.996 291.656 318.951 284.098 317.608 273.264C317.608 273.264 317.188 265.201 295.52 269.568Z" fill="black"/>
</g>
<path d="M250 0C388.071 0 500 111.929 500 250C500 388.071 388.071 500 250 500C111.929 500 0 388.071 0 250C0 111.929 111.929 0 250 0ZM249.5 38C132.139 38 37 133.139 37 250.5C37 367.861 132.139 463 249.5 463C366.861 463 462 367.861 462 250.5C462 133.139 366.861 38 249.5 38Z" fill="#0000FF"/>
<path d="M109 300C164.228 300 209 344.772 209 400C209 435.449 190.554 466.589 162.737 484.348C99.7039 460.867 48.6979 412.683 21.4922 351.566C38.5488 320.815 71.3432 300 109 300Z" fill="#0000FF"/>
<path d="M71.8376 362.031L76.5727 366.766L71.8376 371.501L67.1025 366.766L71.8376 362.031ZM67.1025 366.766L71.8376 371.501L67.1025 376.236L62.3674 371.501L67.1025 366.766ZM62.3674 362.031L67.1025 366.766L62.3674 371.501L57.6323 366.766L62.3674 362.031ZM67.1025 357.296L71.8376 362.031L67.1025 366.766L62.3674 362.031L67.1025 357.296ZM71.8376 352.561L76.5727 357.296L71.8376 362.031L67.1025 357.296L71.8376 352.561ZM76.5727 347.826L81.3078 352.561L76.5727 357.296L71.8376 352.561L76.5727 347.826ZM81.3078 343.09L86.0429 347.826L81.3078 352.561L76.5727 347.826L81.3078 343.09ZM86.0429 338.355L90.778 343.09L86.0429 347.826L81.3078 343.09L86.0429 338.355ZM90.778 333.62L95.513 338.355L90.778 343.09L86.0429 338.355L90.778 333.62ZM95.513 328.885L100.248 333.62L95.513 338.355L90.778 333.62L95.513 328.885ZM95.513 338.355L100.248 343.09L95.513 347.826L90.778 343.09L95.513 338.355ZM90.778 343.09L95.513 347.826L90.778 352.561L86.0429 347.826L90.778 343.09ZM86.0429 347.826L90.778 352.561L86.0429 357.296L81.3078 352.561L86.0429 347.826ZM81.3078 352.561L86.0429 357.296L81.3078 362.031L76.5727 357.296L81.3078 352.561ZM76.5727 357.296L81.3078 362.031L76.5727 366.766L71.8376 362.031L76.5727 357.296ZM100.248 333.62L104.983 338.355L100.248 343.09L95.513 338.355L100.248 333.62ZM104.983 328.885L109.718 333.62L104.983 338.355L100.248 333.62L104.983 328.885ZM104.983 319.415L109.718 324.15L104.983 328.885L100.248 324.15L104.983 319.415ZM109.718 324.15L114.453 328.885L109.718 333.62L104.983 328.885L109.718 324.15ZM100.248 324.15L104.983 328.885L100.248 333.62L95.513 328.885L100.248 324.15ZM100.248 314.68L104.983 319.415L100.248 324.15L95.513 319.415L100.248 314.68ZM95.513 319.415L100.248 324.15L95.513 328.885L90.778 324.15L95.513 319.415Z" fill="white"/>
<path d="M133.041 347.473L137.776 352.208L133.041 356.943L128.306 352.208L133.041 347.473ZM128.306 342.738L133.041 347.473L128.306 352.208L123.571 347.473L128.306 342.738ZM123.571 347.473L128.306 352.208L123.571 356.943L118.836 352.208L123.571 347.473ZM128.306 352.208L133.041 356.943L128.306 361.678L123.571 356.943L128.306 352.208ZM133.041 356.943L137.776 361.678L133.041 366.413L128.306 361.678L133.041 356.943ZM137.776 352.208L142.511 356.943L137.776 361.678L133.041 356.943L137.776 352.208ZM142.511 356.943L147.246 361.678L142.511 366.413L137.776 361.678L142.511 356.943ZM142.511 366.413L147.246 371.148L142.511 375.883L137.776 371.148L142.511 366.413ZM137.776 361.678L142.511 366.413L137.776 371.148L133.041 366.413L137.776 361.678ZM137.776 371.148L142.511 375.883L137.776 380.619L133.041 375.883L137.776 371.148ZM109.366 399.559L114.101 404.294L109.366 409.029L104.631 404.294L109.366 399.559ZM114.101 394.824L118.836 399.559L114.101 404.294L109.366 399.559L114.101 394.824ZM118.836 390.089L123.571 394.824L118.836 399.559L114.101 394.824L118.836 390.089ZM123.571 385.354L128.306 390.089L123.571 394.824L118.836 390.089L123.571 385.354ZM128.306 380.619L133.041 385.354L128.306 390.089L123.571 385.354L128.306 380.619ZM133.041 375.883L137.776 380.619L133.041 385.354L128.306 380.619L133.041 375.883ZM104.631 394.824L109.366 399.559L104.631 404.294L99.8955 399.559L104.631 394.824ZM99.8955 399.559L104.631 404.294L99.8955 409.029L95.1604 404.294L99.8955 399.559ZM95.1604 394.824L99.8955 399.559L95.1604 404.294L90.4253 399.559L95.1604 394.824ZM99.8955 390.089L104.631 394.824L99.8955 399.559L95.1604 394.824L99.8955 390.089ZM90.4253 390.089L95.1604 394.824L90.4253 399.559L85.6902 394.824L90.4253 390.089ZM85.6902 385.354L90.4253 390.089L85.6902 394.824L80.9551 390.089L85.6902 385.354ZM90.4253 380.619L95.1604 385.354L90.4253 390.089L85.6902 385.354L90.4253 380.619ZM95.1604 385.354L99.8955 390.089L95.1604 394.824L90.4253 390.089L95.1604 385.354ZM95.1604 375.883L99.8955 380.619L95.1604 385.354L90.4253 380.619L95.1604 375.883ZM85.6902 375.883L90.4253 380.619L85.6902 385.354L80.9551 380.619L85.6902 375.883ZM90.4253 371.148L95.1604 375.883L90.4253 380.619L85.6902 375.883L90.4253 371.148ZM95.1604 366.413L99.8955 371.148L95.1604 375.883L90.4253 371.148L95.1604 366.413ZM99.8955 361.678L104.631 366.413L99.8955 371.148L95.1604 366.413L99.8955 361.678ZM104.631 356.943L109.366 361.678L104.631 366.413L99.8955 361.678L104.631 356.943ZM109.366 352.208L114.101 356.943L109.366 361.678L104.631 356.943L109.366 352.208ZM114.101 347.473L118.836 352.208L114.101 356.943L109.366 352.208L114.101 347.473ZM118.836 352.208L123.571 356.943L118.836 361.678L114.101 356.943L118.836 352.208ZM118.836 342.738L123.571 347.473L118.836 352.208L114.101 347.473L118.836 342.738ZM114.101 356.943L118.836 361.678L114.101 366.413L109.366 361.678L114.101 356.943ZM109.366 361.678L114.101 366.413L109.366 371.148L104.631 366.413L109.366 361.678ZM104.631 366.413L109.366 371.148L104.631 375.883L99.8955 371.148L104.631 366.413ZM99.8955 371.148L104.631 375.883L99.8955 380.619L95.1604 375.883L99.8955 371.148ZM133.041 366.413L137.776 371.148L133.041 375.883L128.306 371.148L133.041 366.413ZM128.306 371.148L133.041 375.883L128.306 380.619L123.571 375.883L128.306 371.148ZM123.571 375.883L128.306 380.619L123.571 385.354L118.836 380.619L123.571 375.883ZM118.836 380.619L123.571 385.354L118.836 390.089L114.101 385.354L118.836 380.619ZM114.101 385.354L118.836 390.089L114.101 394.824L109.366 390.089L114.101 385.354ZM109.366 390.089L114.101 394.824L109.366 399.559L104.631 394.824L109.366 390.089Z" fill="white"/>
<path d="M165.871 380.303L170.606 385.038L165.871 389.773L161.136 385.038L165.871 380.303ZM161.136 385.038L165.871 389.773L161.136 394.508L156.401 389.773L161.136 385.038ZM156.401 389.773L161.136 394.508L156.401 399.243L151.666 394.508L156.401 389.773ZM161.136 394.508L165.871 399.243L161.136 403.978L156.401 399.243L161.136 394.508ZM156.401 399.243L161.136 403.978L156.401 408.713L151.666 403.978L156.401 399.243ZM161.136 403.978L165.871 408.713L161.136 413.448L156.401 408.713L161.136 403.978ZM165.871 408.713L170.606 413.448L165.871 418.184L161.136 413.448L165.871 408.713ZM170.606 403.978L175.341 408.713L170.606 413.448L165.871 408.713L170.606 403.978ZM175.341 408.713L180.076 413.448L175.341 418.184L170.606 413.448L175.341 408.713ZM180.076 413.448L184.811 418.184L180.076 422.919L175.341 418.184L180.076 413.448ZM184.811 408.713L189.547 413.448L184.811 418.184L180.076 413.448L184.811 408.713ZM189.547 403.978L194.282 408.713L189.547 413.448L184.811 408.713L189.547 403.978ZM184.811 399.243L189.547 403.978L184.811 408.713L180.076 403.978L184.811 399.243ZM180.076 403.978L184.811 408.713L180.076 413.448L175.341 408.713L180.076 403.978ZM170.606 413.448L175.341 418.184L170.606 422.919L165.871 418.184L170.606 413.448ZM151.666 394.508L156.401 399.243L151.666 403.978L146.931 399.243L151.666 394.508ZM151.666 385.038L156.401 389.773L151.666 394.508L146.931 389.773L151.666 385.038ZM156.401 380.303L161.136 385.038L156.401 389.773L151.666 385.038L156.401 380.303ZM161.136 375.568L165.871 380.303L161.136 385.038L156.401 380.303L161.136 375.568ZM151.666 403.978L156.401 408.713L151.666 413.448L146.931 408.713L151.666 403.978ZM156.401 408.713L161.136 413.448L156.401 418.184L151.666 413.448L156.401 408.713ZM161.136 413.448L165.871 418.184L161.136 422.919L156.401 418.184L161.136 413.448ZM156.401 418.184L161.136 422.919L156.401 427.654L151.666 422.919L156.401 418.184ZM161.136 422.919L165.871 427.654L161.136 432.389L156.401 427.654L161.136 422.919ZM156.401 427.654L161.136 432.389L156.401 437.124L151.666 432.389L156.401 427.654ZM151.666 422.919L156.401 427.654L151.666 432.389L146.931 427.654L151.666 422.919ZM146.931 446.594L151.666 451.329L146.931 456.064L142.196 451.329L146.931 446.594ZM151.666 441.859L156.401 446.594L151.666 451.329L146.931 446.594L151.666 441.859ZM156.401 437.124L161.136 441.859L156.401 446.594L151.666 441.859L156.401 437.124ZM161.136 432.389L165.871 437.124L161.136 441.859L156.401 437.124L161.136 432.389ZM151.666 432.389L156.401 437.124L151.666 441.859L146.931 437.124L151.666 432.389ZM146.931 437.124L151.666 441.859L146.931 446.594L142.196 441.859L146.931 437.124ZM142.196 441.859L146.931 446.594L142.196 451.329L137.461 446.594L142.196 441.859ZM118.52 418.184L123.255 422.919L118.52 427.654L113.785 422.919L118.52 418.184ZM123.255 422.919L127.99 427.654L123.255 432.389L118.52 427.654L123.255 422.919ZM127.99 418.184L132.725 422.919L127.99 427.654L123.255 422.919L127.99 418.184ZM132.725 413.448L137.461 418.184L132.725 422.919L127.99 418.184L132.725 413.448ZM127.99 408.713L132.725 413.448L127.99 418.184L123.255 413.448L127.99 408.713ZM132.725 403.978L137.461 408.713L132.725 413.448L127.99 408.713L132.725 403.978ZM123.255 413.448L127.99 418.184L123.255 422.919L118.52 418.184L123.255 413.448ZM137.461 408.713L142.196 413.448L137.461 418.184L132.725 413.448L137.461 408.713ZM142.196 413.448L146.931 418.184L142.196 422.919L137.461 418.184L142.196 413.448ZM146.931 408.713L151.666 413.448L146.931 418.184L142.196 413.448L146.931 408.713ZM142.196 403.978L146.931 408.713L142.196 413.448L137.461 408.713L142.196 403.978ZM151.666 413.448L156.401 418.184L151.666 422.919L146.931 418.184L151.666 413.448Z" fill="white"/>
</g>
<defs>
<clipPath id="clip0_11_2352">
<rect width="500" height="500" fill="white"/>
</clipPath>
<clipPath id="clip1_11_2352">
<rect width="430" height="430" fill="white" transform="translate(35 35)"/>
</clipPath>
</defs>
</svg>
