<svg width="500" height="500" viewBox="0 0 500 500" fill="none" xmlns="http://www.w3.org/2000/svg">
<g clip-path="url(#clip0_11_2449)">
<circle cx="250" cy="250" r="215" fill="white"/>
<g clip-path="url(#clip1_11_2449)">
<path d="M250 465C368.741 465 465 368.741 465 250C465 131.259 368.741 35 250 35C131.259 35 35 131.259 35 250C35 368.741 131.259 465 250 465Z" fill="#FF0420"/>
<path d="M187.334 307.144C174.532 307.144 164.044 304.131 155.868 298.107C147.799 291.975 143.765 283.261 143.765 271.965C143.765 269.598 144.034 266.693 144.572 263.251C145.971 255.506 147.961 246.2 150.543 235.334C157.858 205.75 176.738 190.958 207.183 190.958C215.467 190.958 222.889 192.357 229.452 195.153C236.015 197.843 241.178 201.931 244.943 207.418C248.708 212.796 250.592 219.252 250.592 226.782C250.592 229.041 250.323 231.892 249.784 235.334C248.171 244.909 246.234 254.215 243.975 263.251C240.21 277.99 233.701 289.016 224.449 296.332C215.198 303.539 202.826 307.144 187.334 307.144ZM189.594 283.906C195.619 283.906 200.728 282.131 204.924 278.581C209.227 275.031 212.293 269.598 214.122 262.283C216.596 252.171 218.479 243.349 219.77 235.819C220.2 233.559 220.415 231.247 220.415 228.879C220.415 219.09 215.305 214.195 205.086 214.195C199.061 214.195 193.897 215.97 189.594 219.52C185.399 223.071 182.386 228.503 180.558 235.819C178.621 243.026 176.684 251.848 174.748 262.283C174.317 264.434 174.102 266.693 174.102 269.06C174.102 278.958 179.267 283.906 189.594 283.906Z" fill="white"/>
<path d="M258 305.53C256.817 305.53 255.902 305.154 255.257 304.4C254.719 303.539 254.558 302.572 254.773 301.496L277.042 196.606C277.257 195.423 277.848 194.454 278.817 193.701C279.785 192.948 280.807 192.572 281.883 192.572H324.807C336.748 192.572 346.322 195.046 353.53 199.994C360.846 204.944 364.504 212.097 364.504 221.457C364.504 224.146 364.181 226.943 363.535 229.848C360.846 242.22 355.413 251.364 347.237 257.281C339.169 263.198 328.088 266.156 313.995 266.156H292.21L284.788 301.496C284.572 302.679 283.98 303.647 283.013 304.4C282.044 305.154 281.022 305.53 279.947 305.53H258ZM315.125 243.887C319.643 243.887 323.569 242.65 326.905 240.175C330.347 237.701 332.606 234.151 333.682 229.525C334.005 227.696 334.166 226.083 334.166 224.684C334.166 221.564 333.252 219.197 331.423 217.584C329.594 215.862 326.475 215.002 322.064 215.002H302.699L296.567 243.887H315.125Z" fill="white"/>
</g>
<path d="M250 0C388.071 0 500 111.929 500 250C500 388.071 388.071 500 250 500C111.929 500 0 388.071 0 250C0 111.929 111.929 0 250 0ZM249.5 38C132.139 38 37 133.139 37 250.5C37 367.861 132.139 463 249.5 463C366.861 463 462 367.861 462 250.5C462 133.139 366.861 38 249.5 38Z" fill="#0000FF"/>
<path d="M109 300C164.228 300 209 344.772 209 400C209 435.449 190.554 466.589 162.737 484.348C99.7039 460.867 48.6979 412.683 21.4922 351.566C38.5488 320.815 71.3432 300 109 300Z" fill="#0000FF"/>
<path d="M71.8376 362.031L76.5727 366.766L71.8376 371.501L67.1025 366.766L71.8376 362.031ZM67.1025 366.766L71.8376 371.501L67.1025 376.236L62.3674 371.501L67.1025 366.766ZM62.3674 362.031L67.1025 366.766L62.3674 371.501L57.6323 366.766L62.3674 362.031ZM67.1025 357.296L71.8376 362.031L67.1025 366.766L62.3674 362.031L67.1025 357.296ZM71.8376 352.561L76.5727 357.296L71.8376 362.031L67.1025 357.296L71.8376 352.561ZM76.5727 347.826L81.3078 352.561L76.5727 357.296L71.8376 352.561L76.5727 347.826ZM81.3078 343.09L86.0429 347.826L81.3078 352.561L76.5727 347.826L81.3078 343.09ZM86.0429 338.355L90.778 343.09L86.0429 347.826L81.3078 343.09L86.0429 338.355ZM90.778 333.62L95.513 338.355L90.778 343.09L86.0429 338.355L90.778 333.62ZM95.513 328.885L100.248 333.62L95.513 338.355L90.778 333.62L95.513 328.885ZM95.513 338.355L100.248 343.09L95.513 347.826L90.778 343.09L95.513 338.355ZM90.778 343.09L95.513 347.826L90.778 352.561L86.0429 347.826L90.778 343.09ZM86.0429 347.826L90.778 352.561L86.0429 357.296L81.3078 352.561L86.0429 347.826ZM81.3078 352.561L86.0429 357.296L81.3078 362.031L76.5727 357.296L81.3078 352.561ZM76.5727 357.296L81.3078 362.031L76.5727 366.766L71.8376 362.031L76.5727 357.296ZM100.248 333.62L104.983 338.355L100.248 343.09L95.513 338.355L100.248 333.62ZM104.983 328.885L109.718 333.62L104.983 338.355L100.248 333.62L104.983 328.885ZM104.983 319.415L109.718 324.15L104.983 328.885L100.248 324.15L104.983 319.415ZM109.718 324.15L114.453 328.885L109.718 333.62L104.983 328.885L109.718 324.15ZM100.248 324.15L104.983 328.885L100.248 333.62L95.513 328.885L100.248 324.15ZM100.248 314.68L104.983 319.415L100.248 324.15L95.513 319.415L100.248 314.68ZM95.513 319.415L100.248 324.15L95.513 328.885L90.778 324.15L95.513 319.415Z" fill="white"/>
<path d="M133.041 347.473L137.776 352.208L133.041 356.943L128.306 352.208L133.041 347.473ZM128.306 342.738L133.041 347.473L128.306 352.208L123.571 347.473L128.306 342.738ZM123.571 347.473L128.306 352.208L123.571 356.943L118.836 352.208L123.571 347.473ZM128.306 352.208L133.041 356.943L128.306 361.678L123.571 356.943L128.306 352.208ZM133.041 356.943L137.776 361.678L133.041 366.413L128.306 361.678L133.041 356.943ZM137.776 352.208L142.511 356.943L137.776 361.678L133.041 356.943L137.776 352.208ZM142.511 356.943L147.246 361.678L142.511 366.413L137.776 361.678L142.511 356.943ZM142.511 366.413L147.246 371.148L142.511 375.883L137.776 371.148L142.511 366.413ZM137.776 361.678L142.511 366.413L137.776 371.148L133.041 366.413L137.776 361.678ZM137.776 371.148L142.511 375.883L137.776 380.619L133.041 375.883L137.776 371.148ZM109.366 399.559L114.101 404.294L109.366 409.029L104.631 404.294L109.366 399.559ZM114.101 394.824L118.836 399.559L114.101 404.294L109.366 399.559L114.101 394.824ZM118.836 390.089L123.571 394.824L118.836 399.559L114.101 394.824L118.836 390.089ZM123.571 385.354L128.306 390.089L123.571 394.824L118.836 390.089L123.571 385.354ZM128.306 380.619L133.041 385.354L128.306 390.089L123.571 385.354L128.306 380.619ZM133.041 375.883L137.776 380.619L133.041 385.354L128.306 380.619L133.041 375.883ZM104.631 394.824L109.366 399.559L104.631 404.294L99.8955 399.559L104.631 394.824ZM99.8955 399.559L104.631 404.294L99.8955 409.029L95.1604 404.294L99.8955 399.559ZM95.1604 394.824L99.8955 399.559L95.1604 404.294L90.4253 399.559L95.1604 394.824ZM99.8955 390.089L104.631 394.824L99.8955 399.559L95.1604 394.824L99.8955 390.089ZM90.4253 390.089L95.1604 394.824L90.4253 399.559L85.6902 394.824L90.4253 390.089ZM85.6902 385.354L90.4253 390.089L85.6902 394.824L80.9551 390.089L85.6902 385.354ZM90.4253 380.619L95.1604 385.354L90.4253 390.089L85.6902 385.354L90.4253 380.619ZM95.1604 385.354L99.8955 390.089L95.1604 394.824L90.4253 390.089L95.1604 385.354ZM95.1604 375.883L99.8955 380.619L95.1604 385.354L90.4253 380.619L95.1604 375.883ZM85.6902 375.883L90.4253 380.619L85.6902 385.354L80.9551 380.619L85.6902 375.883ZM90.4253 371.148L95.1604 375.883L90.4253 380.619L85.6902 375.883L90.4253 371.148ZM95.1604 366.413L99.8955 371.148L95.1604 375.883L90.4253 371.148L95.1604 366.413ZM99.8955 361.678L104.631 366.413L99.8955 371.148L95.1604 366.413L99.8955 361.678ZM104.631 356.943L109.366 361.678L104.631 366.413L99.8955 361.678L104.631 356.943ZM109.366 352.208L114.101 356.943L109.366 361.678L104.631 356.943L109.366 352.208ZM114.101 347.473L118.836 352.208L114.101 356.943L109.366 352.208L114.101 347.473ZM118.836 352.208L123.571 356.943L118.836 361.678L114.101 356.943L118.836 352.208ZM118.836 342.738L123.571 347.473L118.836 352.208L114.101 347.473L118.836 342.738ZM114.101 356.943L118.836 361.678L114.101 366.413L109.366 361.678L114.101 356.943ZM109.366 361.678L114.101 366.413L109.366 371.148L104.631 366.413L109.366 361.678ZM104.631 366.413L109.366 371.148L104.631 375.883L99.8955 371.148L104.631 366.413ZM99.8955 371.148L104.631 375.883L99.8955 380.619L95.1604 375.883L99.8955 371.148ZM133.041 366.413L137.776 371.148L133.041 375.883L128.306 371.148L133.041 366.413ZM128.306 371.148L133.041 375.883L128.306 380.619L123.571 375.883L128.306 371.148ZM123.571 375.883L128.306 380.619L123.571 385.354L118.836 380.619L123.571 375.883ZM118.836 380.619L123.571 385.354L118.836 390.089L114.101 385.354L118.836 380.619ZM114.101 385.354L118.836 390.089L114.101 394.824L109.366 390.089L114.101 385.354ZM109.366 390.089L114.101 394.824L109.366 399.559L104.631 394.824L109.366 390.089Z" fill="white"/>
<path d="M165.871 380.303L170.606 385.038L165.871 389.773L161.136 385.038L165.871 380.303ZM161.136 385.038L165.871 389.773L161.136 394.508L156.401 389.773L161.136 385.038ZM156.401 389.773L161.136 394.508L156.401 399.243L151.666 394.508L156.401 389.773ZM161.136 394.508L165.871 399.243L161.136 403.978L156.401 399.243L161.136 394.508ZM156.401 399.243L161.136 403.978L156.401 408.713L151.666 403.978L156.401 399.243ZM161.136 403.978L165.871 408.713L161.136 413.448L156.401 408.713L161.136 403.978ZM165.871 408.713L170.606 413.448L165.871 418.184L161.136 413.448L165.871 408.713ZM170.606 403.978L175.341 408.713L170.606 413.448L165.871 408.713L170.606 403.978ZM175.341 408.713L180.076 413.448L175.341 418.184L170.606 413.448L175.341 408.713ZM180.076 413.448L184.811 418.184L180.076 422.919L175.341 418.184L180.076 413.448ZM184.811 408.713L189.547 413.448L184.811 418.184L180.076 413.448L184.811 408.713ZM189.547 403.978L194.282 408.713L189.547 413.448L184.811 408.713L189.547 403.978ZM184.811 399.243L189.547 403.978L184.811 408.713L180.076 403.978L184.811 399.243ZM180.076 403.978L184.811 408.713L180.076 413.448L175.341 408.713L180.076 403.978ZM170.606 413.448L175.341 418.184L170.606 422.919L165.871 418.184L170.606 413.448ZM151.666 394.508L156.401 399.243L151.666 403.978L146.931 399.243L151.666 394.508ZM151.666 385.038L156.401 389.773L151.666 394.508L146.931 389.773L151.666 385.038ZM156.401 380.303L161.136 385.038L156.401 389.773L151.666 385.038L156.401 380.303ZM161.136 375.568L165.871 380.303L161.136 385.038L156.401 380.303L161.136 375.568ZM151.666 403.978L156.401 408.713L151.666 413.448L146.931 408.713L151.666 403.978ZM156.401 408.713L161.136 413.448L156.401 418.184L151.666 413.448L156.401 408.713ZM161.136 413.448L165.871 418.184L161.136 422.919L156.401 418.184L161.136 413.448ZM156.401 418.184L161.136 422.919L156.401 427.654L151.666 422.919L156.401 418.184ZM161.136 422.919L165.871 427.654L161.136 432.389L156.401 427.654L161.136 422.919ZM156.401 427.654L161.136 432.389L156.401 437.124L151.666 432.389L156.401 427.654ZM151.666 422.919L156.401 427.654L151.666 432.389L146.931 427.654L151.666 422.919ZM146.931 446.594L151.666 451.329L146.931 456.064L142.196 451.329L146.931 446.594ZM151.666 441.859L156.401 446.594L151.666 451.329L146.931 446.594L151.666 441.859ZM156.401 437.124L161.136 441.859L156.401 446.594L151.666 441.859L156.401 437.124ZM161.136 432.389L165.871 437.124L161.136 441.859L156.401 437.124L161.136 432.389ZM151.666 432.389L156.401 437.124L151.666 441.859L146.931 437.124L151.666 432.389ZM146.931 437.124L151.666 441.859L146.931 446.594L142.196 441.859L146.931 437.124ZM142.196 441.859L146.931 446.594L142.196 451.329L137.461 446.594L142.196 441.859ZM118.52 418.184L123.255 422.919L118.52 427.654L113.785 422.919L118.52 418.184ZM123.255 422.919L127.99 427.654L123.255 432.389L118.52 427.654L123.255 422.919ZM127.99 418.184L132.725 422.919L127.99 427.654L123.255 422.919L127.99 418.184ZM132.725 413.448L137.461 418.184L132.725 422.919L127.99 418.184L132.725 413.448ZM127.99 408.713L132.725 413.448L127.99 418.184L123.255 413.448L127.99 408.713ZM132.725 403.978L137.461 408.713L132.725 413.448L127.99 408.713L132.725 403.978ZM123.255 413.448L127.99 418.184L123.255 422.919L118.52 418.184L123.255 413.448ZM137.461 408.713L142.196 413.448L137.461 418.184L132.725 413.448L137.461 408.713ZM142.196 413.448L146.931 418.184L142.196 422.919L137.461 418.184L142.196 413.448ZM146.931 408.713L151.666 413.448L146.931 418.184L142.196 413.448L146.931 408.713ZM142.196 403.978L146.931 408.713L142.196 413.448L137.461 408.713L142.196 403.978ZM151.666 413.448L156.401 418.184L151.666 422.919L146.931 418.184L151.666 413.448Z" fill="white"/>
</g>
<defs>
<clipPath id="clip0_11_2449">
<rect width="500" height="500" fill="white"/>
</clipPath>
<clipPath id="clip1_11_2449">
<rect width="430" height="430" fill="white" transform="translate(35 35)"/>
</clipPath>
</defs>
</svg>
