<svg width="500" height="500" viewBox="0 0 500 500" fill="none" xmlns="http://www.w3.org/2000/svg">
<g clip-path="url(#clip0_11_2522)">
<circle cx="250" cy="250" r="215" fill="black"/>
<path d="M100 327.041V305.754C107.345 275.513 121.275 225.759 148.967 207.681C150.445 206.723 151.66 205.408 152.501 203.859C153.341 202.31 153.781 200.575 153.779 198.812C153.667 163.334 154.455 136.809 156.143 119.239C157.41 106.146 171.678 92.0388 185.692 90.5183C212.483 87.6462 227.68 100.233 231.282 128.277C231.358 128.779 231.563 129.254 231.875 129.654C232.187 130.054 232.596 130.365 233.06 130.553C233.523 130.743 234.025 130.803 234.514 130.73C235.003 130.657 235.461 130.452 235.841 130.136C237.473 128.841 239.303 124.335 241.329 116.62C247.999 91.1941 269.781 75.989 294.18 84.2673C302.679 87.1957 310.924 95.5304 318.917 109.271C319.528 110.285 320.336 111.166 321.293 111.862C322.25 112.559 323.336 113.056 324.489 113.326C358.202 120.703 369.825 139.935 359.357 171.02C359.234 171.41 359.207 171.823 359.278 172.224C359.349 172.626 359.515 173.006 359.764 173.328C360.013 173.652 360.336 173.911 360.706 174.083C361.076 174.254 361.482 174.334 361.889 174.315C392.789 172.288 408.915 207.85 394.9 231.756C393.722 233.777 392.334 235.647 390.763 237.331C377.677 251.185 350.576 270.782 339.01 292.238C327.359 313.948 324.067 339.627 309.967 362.182C289.705 394.731 260.099 413.231 221.151 417.68C207.531 419.257 189.126 415.005 165.937 404.925C130.703 389.551 108.724 363.59 100 327.041ZM306.506 126.25C319.761 103.105 274.677 71.7654 255.681 109.525C254.05 112.791 243.299 137.006 223.431 182.171C223.174 182.713 222.738 183.15 222.198 183.409C221.658 183.669 221.045 183.735 220.461 183.597C219.879 183.458 219.361 183.124 218.994 182.649C218.628 182.174 218.436 181.588 218.45 180.988L221.236 129.291C221.595 122.374 219.279 115.584 214.767 110.33C210.255 105.076 203.895 101.763 197.005 101.077L192.531 100.655C189.09 100.313 185.616 100.698 182.333 101.787C179.05 102.875 176.03 104.642 173.469 106.974C170.907 109.307 168.861 112.152 167.462 115.326C166.063 118.501 165.342 121.934 165.346 125.405V206.752C165.343 208.025 164.979 209.277 164.293 210.366C163.607 211.456 162.627 212.339 161.462 212.919C135.121 226.181 128.705 251.945 118.405 279.399C100.394 327.773 115.675 365.11 164.248 391.409C210.57 416.525 251.517 410.866 287.088 374.43C315.371 345.541 316.975 304.656 337.153 274.837C351.336 253.803 416.597 221.113 377.255 189.013C373.301 185.784 368.19 184.104 362.731 184.242C357.271 184.38 351.776 186.326 347.115 189.773C347.003 189.83 341.599 194.447 330.905 203.627C330.538 203.917 330.088 204.084 329.62 204.1C329.151 204.117 328.691 203.983 328.305 203.719C327.918 203.454 327.626 203.074 327.471 202.632C327.316 202.19 327.307 201.709 327.444 201.262C331.749 188.929 354.122 168.909 353.025 151.592C352.18 138.527 344.498 129.77 329.976 125.321C327.129 124.444 324.072 124.533 321.28 125.574L309.63 129.967C309.142 130.167 308.607 130.205 308.099 130.078C307.591 129.951 307.134 129.664 306.791 129.256C306.448 128.849 306.237 128.341 306.186 127.802C306.135 127.264 306.247 126.722 306.506 126.25Z" fill="#FEFFFE" fill-opacity="0.996"/>
<path d="M309.629 129.965L321.28 125.572C324.072 124.531 327.129 124.442 329.976 125.319C344.497 129.768 352.18 138.525 353.024 151.59C354.122 168.907 331.75 188.927 327.444 201.26C327.307 201.708 327.316 202.187 327.471 202.629C327.626 203.072 327.918 203.453 328.304 203.716C328.691 203.981 329.152 204.114 329.62 204.098C330.088 204.081 330.538 203.916 330.905 203.625C341.599 194.445 347.002 189.827 347.115 189.772C351.777 186.324 357.272 184.377 362.731 184.24C368.191 184.102 373.302 185.781 377.255 189.011C416.597 221.111 351.337 253.802 337.152 274.835C316.975 304.654 315.37 345.539 287.088 374.428C251.517 410.864 210.57 416.524 164.248 391.407C115.675 365.108 100.394 327.771 118.405 279.397C128.705 251.943 135.121 226.179 161.462 212.917C162.627 212.338 163.607 211.453 164.293 210.364C164.979 209.275 165.344 208.024 165.346 206.751V125.403C165.342 121.932 166.063 118.499 167.462 115.324C168.861 112.15 170.907 109.304 173.469 106.972C176.03 104.64 179.05 102.873 182.333 101.785C185.617 100.696 189.09 100.311 192.531 100.653L197.005 101.075C203.894 101.761 210.255 105.074 214.767 110.328C219.278 115.581 221.595 122.372 221.235 129.289L218.449 180.986C218.436 181.585 218.628 182.172 218.995 182.646C219.361 183.121 219.879 183.456 220.462 183.594C221.045 183.733 221.658 183.667 222.199 183.407C222.739 183.148 223.174 182.711 223.431 182.169C243.299 137.004 254.049 112.789 255.682 109.523C274.678 71.7634 319.761 103.103 306.506 126.248C306.247 126.72 306.135 127.262 306.187 127.8C306.237 128.339 306.449 128.847 306.791 129.254C307.134 129.662 307.591 129.949 308.099 130.076C308.607 130.203 309.142 130.164 309.629 129.965ZM204.35 204.639L206.545 128.613C206.637 125.185 205.383 121.852 203.04 119.304C200.698 116.756 197.448 115.189 193.966 114.929H193.459C191.79 114.813 190.115 115.029 188.536 115.564C186.958 116.099 185.508 116.941 184.276 118.04C183.044 119.138 182.055 120.47 181.369 121.954C180.684 123.438 180.316 125.042 180.289 126.67L178.516 215.367L176.49 243.75C176.404 245.213 175.761 246.589 174.694 247.594C173.626 248.599 172.215 249.158 170.749 249.156H168.385C167.042 249.156 165.753 248.613 164.803 247.646C163.853 246.68 163.32 245.369 163.32 244.003V234.542C163.314 233.633 163.014 232.756 162.463 232.038C161.913 231.32 161.142 230.801 160.263 230.555C159.384 230.309 158.444 230.351 157.581 230.672C156.718 230.995 155.977 231.581 155.468 232.346C140.356 256.251 120.6 299.248 127.945 332.023C130.985 345.426 138.414 356.52 150.234 365.305C196.33 403.74 250.532 401.46 287.426 352.381C303.466 331.094 307.688 288.098 327.612 264.868C337.519 253.379 352.321 239.019 372.021 221.787C373.674 220.355 374.878 218.446 375.483 216.296C376.889 211.228 375.228 206.356 370.501 201.682C368.631 199.812 366.151 198.68 363.514 198.493C360.877 198.308 358.262 199.08 356.148 200.669L284.556 254.055C299.584 218.858 316.721 187.462 335.971 159.868C340.361 153.561 339.038 147.169 332.002 140.693C330.963 139.726 329.724 138.999 328.372 138.563C327.021 138.127 325.59 137.993 324.182 138.17C322.773 138.347 321.42 138.831 320.219 139.588C319.018 140.345 317.997 141.357 317.228 142.551L255.935 238.09C247.886 236.456 245.072 232.965 247.492 227.615C262.914 194.051 278.139 160.29 293.166 126.333C294.613 123.098 294.781 119.435 293.637 116.082C292.493 112.728 290.124 109.932 287.003 108.255L286.581 108.002C285.089 107.174 283.44 106.666 281.741 106.509C280.042 106.352 278.329 106.549 276.709 107.089C275.09 107.629 273.601 108.5 272.336 109.646C271.07 110.792 270.056 112.188 269.358 113.746L219.547 225.335C218.846 226.895 217.639 228.173 216.122 228.963C214.605 229.752 212.865 230.006 211.185 229.683C209.506 229.36 207.984 228.481 206.866 227.185C205.748 225.89 205.1 224.256 205.026 222.547L204.35 204.639Z" fill="black"/>
<path d="M127.95 332.026C130.989 345.428 138.419 356.523 150.238 365.308C180.519 344.359 210.068 322.987 238.885 301.193C260.105 285.143 275.329 269.432 284.559 254.058C299.587 218.861 316.726 187.465 335.975 159.871C340.365 153.564 339.043 147.172 332.007 140.696C330.968 139.729 329.728 139.002 328.377 138.566C327.026 138.13 325.595 137.996 324.186 138.173C322.777 138.35 321.425 138.834 320.224 139.591C319.022 140.348 318.001 141.36 317.232 142.554L255.94 238.092C247.891 236.459 245.077 232.967 247.497 227.618C262.919 194.053 278.144 160.293 293.172 126.335C294.617 123.1 294.785 119.438 293.642 116.084C292.498 112.731 290.128 109.934 287.009 108.258L286.587 108.005C285.094 107.177 283.445 106.668 281.746 106.511C280.047 106.354 278.333 106.552 276.714 107.092C275.095 107.632 273.606 108.502 272.341 109.648C271.075 110.794 270.061 112.19 269.364 113.749L219.552 225.337C218.851 226.897 217.644 228.175 216.126 228.965C214.609 229.754 212.87 230.008 211.191 229.686C209.511 229.363 207.989 228.484 206.872 227.188C205.754 225.893 205.105 224.258 205.031 222.549L204.356 204.641L206.548 128.617C206.64 125.189 205.385 121.855 203.043 119.308C200.701 116.76 197.451 115.193 193.969 114.932H193.462C191.793 114.817 190.118 115.033 188.539 115.568C186.96 116.102 185.51 116.945 184.278 118.043C183.046 119.142 182.057 120.474 181.372 121.958C180.686 123.441 180.319 125.046 180.292 126.674L178.519 215.37L176.495 243.752C176.409 245.216 175.766 246.591 174.699 247.596C173.631 248.602 172.22 249.161 170.754 249.158H168.39C167.047 249.158 165.758 248.615 164.808 247.649C163.858 246.682 163.324 245.372 163.324 244.005V234.544C163.319 233.636 163.019 232.759 162.468 232.041C161.918 231.324 161.147 230.803 160.268 230.557C159.389 230.312 158.449 230.353 157.586 230.675C156.722 230.998 155.982 231.584 155.473 232.348C140.361 256.254 120.605 299.25 127.95 332.026Z" fill="url(#paint0_linear_11_2522)"/>
<path d="M238.884 301.193C210.067 322.987 180.518 344.359 150.237 365.308C196.333 403.743 250.537 401.462 287.431 352.383C294.828 342.566 299.712 328.131 304.782 313.148C310.705 295.642 316.882 277.386 327.617 264.87C337.523 253.382 352.326 239.021 372.026 221.789C373.679 220.357 374.883 218.448 375.487 216.298C376.894 211.23 375.234 206.358 370.506 201.685C368.637 199.814 366.155 198.682 363.519 198.497C360.882 198.31 358.267 199.082 356.153 200.671L284.559 254.058C275.328 269.432 260.104 285.143 238.884 301.193Z" fill="url(#paint1_linear_11_2522)"/>
<path d="M250 0C388.071 0 500 111.929 500 250C500 388.071 388.071 500 250 500C111.929 500 0 388.071 0 250C0 111.929 111.929 0 250 0ZM249.5 38C132.139 38 37 133.139 37 250.5C37 367.861 132.139 463 249.5 463C366.861 463 462 367.861 462 250.5C462 133.139 366.861 38 249.5 38Z" fill="#0000FF"/>
<path d="M109 300C164.228 300 209 344.772 209 400C209 435.449 190.554 466.589 162.737 484.348C99.7039 460.867 48.6979 412.683 21.4922 351.566C38.5488 320.815 71.3432 300 109 300Z" fill="#0000FF"/>
<path d="M71.8376 362.031L76.5727 366.766L71.8376 371.501L67.1025 366.766L71.8376 362.031ZM67.1025 366.766L71.8376 371.501L67.1025 376.236L62.3674 371.501L67.1025 366.766ZM62.3674 362.031L67.1025 366.766L62.3674 371.501L57.6323 366.766L62.3674 362.031ZM67.1025 357.296L71.8376 362.031L67.1025 366.766L62.3674 362.031L67.1025 357.296ZM71.8376 352.561L76.5727 357.296L71.8376 362.031L67.1025 357.296L71.8376 352.561ZM76.5727 347.826L81.3078 352.561L76.5727 357.296L71.8376 352.561L76.5727 347.826ZM81.3078 343.09L86.0429 347.826L81.3078 352.561L76.5727 347.826L81.3078 343.09ZM86.0429 338.355L90.778 343.09L86.0429 347.826L81.3078 343.09L86.0429 338.355ZM90.778 333.62L95.513 338.355L90.778 343.09L86.0429 338.355L90.778 333.62ZM95.513 328.885L100.248 333.62L95.513 338.355L90.778 333.62L95.513 328.885ZM95.513 338.355L100.248 343.09L95.513 347.826L90.778 343.09L95.513 338.355ZM90.778 343.09L95.513 347.826L90.778 352.561L86.0429 347.826L90.778 343.09ZM86.0429 347.826L90.778 352.561L86.0429 357.296L81.3078 352.561L86.0429 347.826ZM81.3078 352.561L86.0429 357.296L81.3078 362.031L76.5727 357.296L81.3078 352.561ZM76.5727 357.296L81.3078 362.031L76.5727 366.766L71.8376 362.031L76.5727 357.296ZM100.248 333.62L104.983 338.355L100.248 343.09L95.513 338.355L100.248 333.62ZM104.983 328.885L109.718 333.62L104.983 338.355L100.248 333.62L104.983 328.885ZM104.983 319.415L109.718 324.15L104.983 328.885L100.248 324.15L104.983 319.415ZM109.718 324.15L114.453 328.885L109.718 333.62L104.983 328.885L109.718 324.15ZM100.248 324.15L104.983 328.885L100.248 333.62L95.513 328.885L100.248 324.15ZM100.248 314.68L104.983 319.415L100.248 324.15L95.513 319.415L100.248 314.68ZM95.513 319.415L100.248 324.15L95.513 328.885L90.778 324.15L95.513 319.415Z" fill="white"/>
<path d="M133.041 347.473L137.776 352.208L133.041 356.943L128.306 352.208L133.041 347.473ZM128.306 342.738L133.041 347.473L128.306 352.208L123.571 347.473L128.306 342.738ZM123.571 347.473L128.306 352.208L123.571 356.943L118.836 352.208L123.571 347.473ZM128.306 352.208L133.041 356.943L128.306 361.678L123.571 356.943L128.306 352.208ZM133.041 356.943L137.776 361.678L133.041 366.413L128.306 361.678L133.041 356.943ZM137.776 352.208L142.511 356.943L137.776 361.678L133.041 356.943L137.776 352.208ZM142.511 356.943L147.246 361.678L142.511 366.413L137.776 361.678L142.511 356.943ZM142.511 366.413L147.246 371.148L142.511 375.883L137.776 371.148L142.511 366.413ZM137.776 361.678L142.511 366.413L137.776 371.148L133.041 366.413L137.776 361.678ZM137.776 371.148L142.511 375.883L137.776 380.619L133.041 375.883L137.776 371.148ZM109.366 399.559L114.101 404.294L109.366 409.029L104.631 404.294L109.366 399.559ZM114.101 394.824L118.836 399.559L114.101 404.294L109.366 399.559L114.101 394.824ZM118.836 390.089L123.571 394.824L118.836 399.559L114.101 394.824L118.836 390.089ZM123.571 385.354L128.306 390.089L123.571 394.824L118.836 390.089L123.571 385.354ZM128.306 380.619L133.041 385.354L128.306 390.089L123.571 385.354L128.306 380.619ZM133.041 375.883L137.776 380.619L133.041 385.354L128.306 380.619L133.041 375.883ZM104.631 394.824L109.366 399.559L104.631 404.294L99.8955 399.559L104.631 394.824ZM99.8955 399.559L104.631 404.294L99.8955 409.029L95.1604 404.294L99.8955 399.559ZM95.1604 394.824L99.8955 399.559L95.1604 404.294L90.4253 399.559L95.1604 394.824ZM99.8955 390.089L104.631 394.824L99.8955 399.559L95.1604 394.824L99.8955 390.089ZM90.4253 390.089L95.1604 394.824L90.4253 399.559L85.6902 394.824L90.4253 390.089ZM85.6902 385.354L90.4253 390.089L85.6902 394.824L80.9551 390.089L85.6902 385.354ZM90.4253 380.619L95.1604 385.354L90.4253 390.089L85.6902 385.354L90.4253 380.619ZM95.1604 385.354L99.8955 390.089L95.1604 394.824L90.4253 390.089L95.1604 385.354ZM95.1604 375.883L99.8955 380.619L95.1604 385.354L90.4253 380.619L95.1604 375.883ZM85.6902 375.883L90.4253 380.619L85.6902 385.354L80.9551 380.619L85.6902 375.883ZM90.4253 371.148L95.1604 375.883L90.4253 380.619L85.6902 375.883L90.4253 371.148ZM95.1604 366.413L99.8955 371.148L95.1604 375.883L90.4253 371.148L95.1604 366.413ZM99.8955 361.678L104.631 366.413L99.8955 371.148L95.1604 366.413L99.8955 361.678ZM104.631 356.943L109.366 361.678L104.631 366.413L99.8955 361.678L104.631 356.943ZM109.366 352.208L114.101 356.943L109.366 361.678L104.631 356.943L109.366 352.208ZM114.101 347.473L118.836 352.208L114.101 356.943L109.366 352.208L114.101 347.473ZM118.836 352.208L123.571 356.943L118.836 361.678L114.101 356.943L118.836 352.208ZM118.836 342.738L123.571 347.473L118.836 352.208L114.101 347.473L118.836 342.738ZM114.101 356.943L118.836 361.678L114.101 366.413L109.366 361.678L114.101 356.943ZM109.366 361.678L114.101 366.413L109.366 371.148L104.631 366.413L109.366 361.678ZM104.631 366.413L109.366 371.148L104.631 375.883L99.8955 371.148L104.631 366.413ZM99.8955 371.148L104.631 375.883L99.8955 380.619L95.1604 375.883L99.8955 371.148ZM133.041 366.413L137.776 371.148L133.041 375.883L128.306 371.148L133.041 366.413ZM128.306 371.148L133.041 375.883L128.306 380.619L123.571 375.883L128.306 371.148ZM123.571 375.883L128.306 380.619L123.571 385.354L118.836 380.619L123.571 375.883ZM118.836 380.619L123.571 385.354L118.836 390.089L114.101 385.354L118.836 380.619ZM114.101 385.354L118.836 390.089L114.101 394.824L109.366 390.089L114.101 385.354ZM109.366 390.089L114.101 394.824L109.366 399.559L104.631 394.824L109.366 390.089Z" fill="white"/>
<path d="M165.871 380.303L170.606 385.038L165.871 389.773L161.136 385.038L165.871 380.303ZM161.136 385.038L165.871 389.773L161.136 394.508L156.401 389.773L161.136 385.038ZM156.401 389.773L161.136 394.508L156.401 399.243L151.666 394.508L156.401 389.773ZM161.136 394.508L165.871 399.243L161.136 403.978L156.401 399.243L161.136 394.508ZM156.401 399.243L161.136 403.978L156.401 408.713L151.666 403.978L156.401 399.243ZM161.136 403.978L165.871 408.713L161.136 413.448L156.401 408.713L161.136 403.978ZM165.871 408.713L170.606 413.448L165.871 418.184L161.136 413.448L165.871 408.713ZM170.606 403.978L175.341 408.713L170.606 413.448L165.871 408.713L170.606 403.978ZM175.341 408.713L180.076 413.448L175.341 418.184L170.606 413.448L175.341 408.713ZM180.076 413.448L184.811 418.184L180.076 422.919L175.341 418.184L180.076 413.448ZM184.811 408.713L189.547 413.448L184.811 418.184L180.076 413.448L184.811 408.713ZM189.547 403.978L194.282 408.713L189.547 413.448L184.811 408.713L189.547 403.978ZM184.811 399.243L189.547 403.978L184.811 408.713L180.076 403.978L184.811 399.243ZM180.076 403.978L184.811 408.713L180.076 413.448L175.341 408.713L180.076 403.978ZM170.606 413.448L175.341 418.184L170.606 422.919L165.871 418.184L170.606 413.448ZM151.666 394.508L156.401 399.243L151.666 403.978L146.931 399.243L151.666 394.508ZM151.666 385.038L156.401 389.773L151.666 394.508L146.931 389.773L151.666 385.038ZM156.401 380.303L161.136 385.038L156.401 389.773L151.666 385.038L156.401 380.303ZM161.136 375.568L165.871 380.303L161.136 385.038L156.401 380.303L161.136 375.568ZM151.666 403.978L156.401 408.713L151.666 413.448L146.931 408.713L151.666 403.978ZM156.401 408.713L161.136 413.448L156.401 418.184L151.666 413.448L156.401 408.713ZM161.136 413.448L165.871 418.184L161.136 422.919L156.401 418.184L161.136 413.448ZM156.401 418.184L161.136 422.919L156.401 427.654L151.666 422.919L156.401 418.184ZM161.136 422.919L165.871 427.654L161.136 432.389L156.401 427.654L161.136 422.919ZM156.401 427.654L161.136 432.389L156.401 437.124L151.666 432.389L156.401 427.654ZM151.666 422.919L156.401 427.654L151.666 432.389L146.931 427.654L151.666 422.919ZM146.931 446.594L151.666 451.329L146.931 456.064L142.196 451.329L146.931 446.594ZM151.666 441.859L156.401 446.594L151.666 451.329L146.931 446.594L151.666 441.859ZM156.401 437.124L161.136 441.859L156.401 446.594L151.666 441.859L156.401 437.124ZM161.136 432.389L165.871 437.124L161.136 441.859L156.401 437.124L161.136 432.389ZM151.666 432.389L156.401 437.124L151.666 441.859L146.931 437.124L151.666 432.389ZM146.931 437.124L151.666 441.859L146.931 446.594L142.196 441.859L146.931 437.124ZM142.196 441.859L146.931 446.594L142.196 451.329L137.461 446.594L142.196 441.859ZM118.52 418.184L123.255 422.919L118.52 427.654L113.785 422.919L118.52 418.184ZM123.255 422.919L127.99 427.654L123.255 432.389L118.52 427.654L123.255 422.919ZM127.99 418.184L132.725 422.919L127.99 427.654L123.255 422.919L127.99 418.184ZM132.725 413.448L137.461 418.184L132.725 422.919L127.99 418.184L132.725 413.448ZM127.99 408.713L132.725 413.448L127.99 418.184L123.255 413.448L127.99 408.713ZM132.725 403.978L137.461 408.713L132.725 413.448L127.99 408.713L132.725 403.978ZM123.255 413.448L127.99 418.184L123.255 422.919L118.52 418.184L123.255 413.448ZM137.461 408.713L142.196 413.448L137.461 418.184L132.725 413.448L137.461 408.713ZM142.196 413.448L146.931 418.184L142.196 422.919L137.461 418.184L142.196 413.448ZM146.931 408.713L151.666 413.448L146.931 418.184L142.196 413.448L146.931 408.713ZM142.196 403.978L146.931 408.713L142.196 413.448L137.461 408.713L142.196 403.978ZM151.666 413.448L156.401 418.184L151.666 422.919L146.931 418.184L151.666 413.448Z" fill="white"/>
</g>
<defs>
<linearGradient id="paint0_linear_11_2522" x1="201.315" y1="136.907" x2="251.222" y2="391.901" gradientUnits="userSpaceOnUse">
<stop stop-color="#73F857"/>
<stop offset="1" stop-color="#25D6D9"/>
</linearGradient>
<linearGradient id="paint1_linear_11_2522" x1="201.315" y1="136.907" x2="251.221" y2="391.901" gradientUnits="userSpaceOnUse">
<stop stop-color="#73F857"/>
<stop offset="1" stop-color="#25D6D9"/>
</linearGradient>
<clipPath id="clip0_11_2522">
<rect width="500" height="500" fill="white"/>
</clipPath>
</defs>
</svg>
