<svg width="500" height="500" viewBox="0 0 500 500" fill="none" xmlns="http://www.w3.org/2000/svg">
<g clip-path="url(#clip0_11_2534)">
<circle cx="250" cy="250" r="215" fill="white"/>
<path d="M373.845 327.695C370.4 368.84 321.715 403.745 248.915 401.86C180.275 399.975 132.24 371.44 128.795 330.165C128.405 324.835 128.6 319.505 129.38 314.24C131.72 298.38 137.18 283.105 145.37 269.26L150.505 271.6C163.96 266.4 177.87 262.435 192.105 259.9C210.825 257.235 229.74 256.65 248.59 258.145C267.44 256.65 286.355 257.3 305.075 259.9C319.375 262.5 333.35 266.4 346.935 271.6L352.07 269.26L355.645 267.635C363.9 281.61 369.685 296.95 372.61 312.875C373.455 317.75 373.715 322.69 373.325 327.63" fill="#F4A427"/>
<path d="M373.845 327.695C370.4 368.84 322.43 401.925 248.915 401.86C180.275 399.975 132.24 371.44 128.795 330.165C128.405 324.835 128.6 319.505 129.38 314.24C136.66 312.68 144.2 312.485 151.61 313.655C165.585 315.93 173.32 324.445 183.135 328.93C188.855 331.595 194.51 327.24 199.71 322.56C213.555 308.975 232.08 301.175 251.515 300.85C271.21 300.59 286.94 308.325 304.23 324.055C307.675 327.565 312.355 329.515 317.295 329.515C321.845 328.28 326.07 326.005 329.515 322.755C342.385 314.11 357.985 310.6 373.325 312.875C374.17 317.75 374.43 322.69 374.04 327.63" fill="white"/>
<path d="M172.085 226.295C167.34 231.04 161.295 234.355 154.73 235.785L152.195 236.24C149.53 236.955 146.8 237.41 144.07 237.605C143.485 237.605 142.9 237.475 142.315 237.41C140.82 237.02 139.39 236.5 137.96 235.915C133.28 233.77 128.925 230.975 124.895 227.725C116.835 221.225 109.75 213.62 103.835 205.17C79.9802 170.655 87.1952 123.53 120.215 97.725C122.165 96.1 125.09 96.425 126.715 98.375C127.625 99.48 127.95 100.975 127.625 102.34C124.44 116.185 121.905 137.895 134.905 156.615C145.955 172.475 169.68 187.685 183.915 187.36C187.1 204.715 182.29 216.415 172.15 226.49" fill="#F79422"/>
<path d="M144.07 239.88C144.005 239.88 144.005 239.88 143.94 239.88C143.29 239.815 142.575 239.75 141.925 239.62C141.86 239.62 141.86 239.62 141.795 239.62C140.17 239.23 138.61 238.645 137.115 237.995C132.24 235.72 127.69 232.86 123.595 229.48C115.405 222.85 108.19 215.115 102.145 206.535C77.5747 171.045 84.9847 122.49 118.915 95.97C120.28 94.865 122.035 94.345 123.855 94.54C125.675 94.735 127.3 95.58 128.405 97.01C129.705 98.635 130.225 100.845 129.77 102.86C124.895 123.985 127.17 141.665 136.725 155.38C147.645 170.98 170.59 185.475 183.915 185.215C184.955 185.215 185.93 185.93 186.125 186.97C189.245 203.87 185.41 216.48 173.71 227.855C168.64 232.925 162.27 236.37 155.25 237.93H155.185L152.65 238.45C149.92 239.165 147.06 239.685 144.2 239.88C144.135 239.88 144.07 239.88 144.07 239.88ZM142.77 235.33C143.16 235.395 143.615 235.46 144.005 235.46C146.54 235.265 149.14 234.81 151.61 234.16C151.675 234.16 151.74 234.16 151.74 234.095L154.275 233.64C160.45 232.275 166.105 229.155 170.59 224.735C180.86 214.725 184.37 204.13 182.03 189.505C167.145 188.595 144.395 174.035 133.085 157.85C122.88 143.095 120.28 124.245 125.48 101.885C125.675 101.105 125.48 100.325 125.025 99.74C124.635 99.22 124.05 98.895 123.4 98.83C122.75 98.765 122.1 98.96 121.645 99.35C89.4697 124.505 82.4497 170.46 105.655 203.935C111.505 212.19 118.395 219.665 126.325 226.035C130.16 229.22 134.385 231.885 138.935 233.965C140.105 234.55 141.405 235.005 142.77 235.33Z" fill="#221F1F"/>
<path d="M234.485 166.04L228.895 221.81H228.57C219.86 222.915 208.225 224.735 192.17 227.27C177.285 229.61 157.395 239.75 145.695 246.575L143.94 237.8C146.67 237.605 149.4 237.085 152.065 236.435L154.6 235.98C161.165 234.55 167.21 231.235 171.955 226.49C182.095 216.61 186.97 205.04 183.72 187.36L185.345 187.88C190.61 182.29 196.785 177.675 203.61 174.23C213.23 169.225 223.695 166.43 234.485 166.04Z" fill="#5A595C"/>
<path d="M145.76 248.85C145.435 248.85 145.175 248.785 144.85 248.655C144.2 248.395 143.745 247.81 143.615 247.095L141.86 238.32C141.73 237.735 141.86 237.085 142.25 236.565C142.64 236.045 143.16 235.785 143.81 235.72C146.41 235.525 149.01 235.07 151.545 234.42C151.61 234.42 151.675 234.42 151.675 234.355L154.21 233.9C160.385 232.535 166.04 229.415 170.46 224.995C181.12 214.595 184.5 203.48 181.64 187.815C181.51 187.035 181.77 186.32 182.355 185.8C182.94 185.28 183.72 185.15 184.435 185.345L184.76 185.475C189.96 180.145 196.005 175.725 202.7 172.41C212.385 167.275 223.37 164.35 234.355 163.96C235.005 163.96 235.59 164.22 236.045 164.675C236.5 165.13 236.695 165.78 236.63 166.365L231.04 222.135C230.91 223.24 230 224.085 228.895 224.085H228.7C220.77 225.125 210.24 226.685 192.495 229.545C175.725 232.21 153.3 244.82 146.8 248.59C146.475 248.72 146.085 248.85 145.76 248.85ZM146.605 239.815L147.32 243.26C150.18 241.635 154.145 239.425 158.825 237.15C157.655 237.54 156.42 237.865 155.185 238.125H155.12L152.65 238.58C150.635 239.1 148.62 239.49 146.605 239.815ZM186.45 189.83C188.66 205.43 184.63 217.325 173.58 228.05C171.63 230 169.42 231.755 167.08 233.185C175.14 229.61 184.045 226.36 191.845 225.125C208.745 222.46 219.08 220.835 226.945 219.795L232.08 168.315C222.59 168.965 213.165 171.695 204.78 176.115C198.085 179.495 192.17 183.915 187.035 189.31C186.84 189.57 186.645 189.7 186.45 189.83Z" fill="#221F1F"/>
<path d="M361.495 266.01L357.855 267.635L354.28 269.26L349.08 271.6C335.56 266.4 321.52 262.435 307.22 259.9C288.63 256.325 269.715 254.635 250.735 254.83C231.755 254.635 212.84 256.325 194.25 259.9C179.95 262.5 165.975 266.4 152.39 271.6C150.635 270.82 148.945 269.975 147.19 269.26L139.975 265.945C140.17 259.835 139.975 256.52 139.975 250.41C141.47 249.435 143.29 248.265 145.565 246.965C145.76 246.835 145.955 246.705 146.15 246.64C157.2 239.75 177.22 229.675 191.975 227.335C208.03 224.8 219.535 222.98 228.375 221.875C234.03 221.55 239.945 221.29 246.12 221.225C255.155 221.225 263.475 221.225 271.73 221.81C280.635 222.915 292.205 224.735 308.455 227.335C323.535 229.675 343.685 240.01 355.255 246.9L355.71 247.095C357.855 248.33 359.61 249.5 361.04 250.41C361.04 256.52 360.845 259.835 361.04 265.945" fill="#929497"/>
<path d="M152.455 273.81C152.13 273.81 151.87 273.745 151.545 273.615C150.895 273.29 150.245 273.03 149.595 272.705C148.49 272.185 147.45 271.73 146.41 271.275L139.13 267.96C138.35 267.57 137.83 266.79 137.895 265.88C138.025 261.98 138.025 259.25 137.96 256.13C137.96 254.44 137.895 252.62 137.895 250.475C137.895 249.76 138.285 249.045 138.87 248.655L139.065 248.525C140.495 247.615 142.315 246.445 144.395 245.21C144.655 245.015 144.85 244.885 145.11 244.755C154.99 238.645 175.855 227.725 191.65 225.19C208.16 222.525 219.47 220.835 228.115 219.73C228.18 219.73 228.18 219.73 228.245 219.73C234.81 219.34 240.66 219.145 246.12 219.08C255.155 219.08 263.605 219.08 271.925 219.665C271.99 219.665 271.99 219.665 272.055 219.665C281.22 220.835 292.92 222.655 308.91 225.19C326.655 227.985 349.665 240.985 356.425 244.95L356.815 245.145C356.88 245.145 356.88 245.21 356.945 245.21C358.895 246.38 360.715 247.485 362.405 248.59C362.99 248.98 363.315 249.63 363.38 250.28C363.51 253.205 363.51 255.545 363.51 257.755C363.51 260.29 363.51 262.63 363.705 265.75C363.77 266.66 363.25 267.505 362.405 267.895L358.765 269.52L355.19 271.145L349.99 273.485C349.47 273.745 348.885 273.745 348.3 273.55C334.91 268.415 321 264.45 306.83 261.915C288.63 258.86 269.975 257.365 251.45 257.365C250.995 257.365 250.605 257.365 250.15 257.365C231.56 257.365 212.905 258.925 194.575 261.915C180.47 264.45 166.56 268.35 153.17 273.55C152.975 273.745 152.715 273.81 152.455 273.81ZM251.515 253.14C270.235 253.14 289.085 254.7 307.61 257.755C321.715 260.29 335.625 264.19 349.015 269.26L359.22 264.58C359.09 261.98 359.09 259.835 359.09 257.755C359.09 255.87 359.09 253.92 359.025 251.645C357.725 250.8 356.295 249.89 354.735 248.98L354.345 248.785C354.28 248.785 354.28 248.72 354.215 248.72C340.89 240.79 321.78 231.56 308.195 229.415C292.335 226.88 280.635 225.06 271.535 223.89C263.41 223.305 255.025 223.305 246.12 223.305C240.725 223.37 235.005 223.565 228.57 223.955C219.925 225.06 208.745 226.815 192.3 229.415C177.09 231.82 156.875 242.545 147.255 248.46C147.19 248.525 147.06 248.59 146.995 248.59C146.995 248.59 146.93 248.59 146.93 248.655C146.865 248.72 146.735 248.785 146.605 248.85C144.915 249.825 143.42 250.735 142.12 251.58C142.12 253.205 142.12 254.635 142.185 256C142.25 258.795 142.25 261.265 142.185 264.515L148.1 267.245C149.14 267.7 150.245 268.22 151.35 268.675C151.74 268.87 152.065 269 152.455 269.195C165.845 264.06 179.755 260.225 193.86 257.69C212.45 254.635 231.365 253.075 250.15 253.075C250.67 253.14 251.125 253.14 251.515 253.14Z" fill="#221F1F"/>
<path d="M271.99 221.81C263.93 221.355 255.415 221.095 246.38 221.225C240.205 221.225 234.29 221.55 228.635 221.875H228.96L234.55 166.105L235.72 154.795C240.14 152.325 245.08 151.025 250.15 150.96H250.865C255.935 151.025 260.94 152.325 265.36 154.795L266.465 165.91V166.235L271.99 221.81Z" fill="#929497"/>
<path d="M228.96 224.085H228.635C227.465 224.085 226.49 223.175 226.49 222.005C226.49 221.485 226.62 220.965 226.945 220.575L232.405 165.91L233.575 154.6C233.64 153.885 234.03 153.3 234.68 152.91C239.425 150.245 244.755 148.88 250.15 148.815H250.865C256.325 148.88 261.655 150.245 266.4 152.91C267.05 153.235 267.44 153.885 267.505 154.6L268.61 165.715C268.61 165.78 268.61 165.845 268.61 165.91V166.105L274.2 221.615C274.265 222.265 274.07 222.85 273.615 223.305C273.16 223.76 272.575 224.02 271.925 223.955C263.085 223.435 254.765 223.24 246.445 223.37C240.4 223.37 234.745 223.63 229.415 223.955C229.22 224.02 229.09 224.085 228.96 224.085ZM237.735 156.16L236.695 166.3L231.365 219.535C236.11 219.275 241.115 219.08 246.38 219.08C253.92 218.95 261.59 219.145 269.585 219.535L264.255 166.43C264.255 166.365 264.255 166.3 264.255 166.235V166.04L263.28 156.16C259.445 154.21 255.155 153.17 250.865 153.105H250.215C245.795 153.17 241.57 154.21 237.735 156.16Z" fill="#221F1F"/>
<path d="M357.66 269.78C357.075 269.78 356.555 269.52 356.1 269.13C356.035 269 355.905 268.935 355.84 268.805C355.775 268.675 355.71 268.545 355.645 268.415C355.58 268.285 355.58 268.155 355.515 268.025C355.515 267.895 355.45 267.765 355.45 267.57C355.45 266.985 355.71 266.465 356.1 266.01C356.23 265.88 356.295 265.815 356.425 265.75C356.555 265.685 356.685 265.62 356.815 265.555C356.945 265.49 357.075 265.49 357.205 265.425C357.92 265.295 358.635 265.49 359.155 266.01C359.545 266.4 359.805 266.985 359.805 267.57C359.805 267.7 359.805 267.83 359.74 268.025C359.74 268.155 359.675 268.285 359.61 268.415C359.545 268.545 359.48 268.675 359.415 268.805C359.35 268.935 359.22 269.065 359.155 269.13C358.83 269.585 358.245 269.78 357.66 269.78Z" fill="#221F1F"/>
<path d="M248.98 404.525C214.855 403.55 185.28 396.205 163.375 383.14C141.145 369.88 128.47 351.81 126.715 330.88C126.325 325.42 126.52 319.895 127.3 314.5C129.705 298.25 135.165 282.845 143.55 268.74C144.135 267.765 145.305 267.44 146.345 267.895L150.7 269.845C164.09 264.775 178 260.875 192.105 258.34C210.825 255.025 229.935 253.335 248.98 253.205C268.025 253.075 287.135 254.765 305.855 258.34C319.96 260.875 333.87 264.775 347.26 269.845L352.005 267.83L355.515 266.205C356.555 265.75 357.725 266.14 358.31 267.05C366.76 281.285 372.545 296.755 375.6 313.005V313.07C376.38 318.14 376.575 323.275 376.12 328.345C374.365 349.21 360.585 368.45 337.25 382.555C313.785 396.725 282.455 404.525 248.98 404.525ZM146.345 272.575C138.805 285.77 133.865 300.07 131.655 315.085C130.94 320.155 130.745 325.355 131.135 330.49C132.76 349.99 144.72 366.89 165.65 379.37C186.905 392.045 215.765 399.195 249.11 400.17C281.675 400.17 312.225 392.565 334.975 378.85C357.075 365.46 370.14 347.455 371.765 328.02C372.155 323.275 372.025 318.53 371.245 313.785C368.385 298.705 363.12 284.275 355.45 270.95L353.695 271.795H353.63L348.04 274.135C347.52 274.33 346.935 274.395 346.415 274.135C333.025 269 319.115 265.035 304.945 262.5C286.485 258.99 267.635 257.3 248.85 257.43C230.065 257.56 211.215 259.25 192.755 262.5C178.65 265.035 164.675 268.935 151.35 274.135C150.83 274.33 150.18 274.33 149.66 274.07L146.345 272.575Z" fill="#221F1F"/>
<path d="M395.1 205.17C389.12 213.62 382.035 221.225 373.975 227.725C370.01 230.975 365.59 233.77 360.91 235.915L358.7 236.825L357.335 237.28C354.28 238.125 352.655 237.28 346.87 236.305L344.335 235.85C337.77 234.355 331.725 231.105 326.98 226.36C316.84 216.48 311.965 204.91 315.28 187.23C329.385 187.555 353.175 172.345 364.225 156.485C377.29 137.96 374.625 116.25 371.505 102.405C370.855 99.9349 372.35 97.4649 374.82 96.8149C376.25 96.4249 377.745 96.8149 378.915 97.7249C411.87 123.595 418.955 170.72 395.1 205.17Z" fill="#F79422"/>
<path d="M354.865 239.815C353.435 239.815 352.07 239.555 350.25 239.165C349.21 238.97 347.975 238.71 346.48 238.45L343.88 237.995H343.815C336.86 236.435 330.49 232.925 325.355 227.92C313.655 216.545 309.885 203.87 313.005 186.905C313.2 185.865 314.11 185.15 315.15 185.15C315.15 185.15 315.15 185.15 315.215 185.15C328.28 185.475 351.615 170.655 362.34 155.315C371.83 141.795 374.105 124.635 369.295 102.925C368.84 101.235 369.165 99.415 370.075 97.855C370.985 96.295 372.48 95.19 374.235 94.735C376.315 94.215 378.59 94.735 380.215 96.1C414.015 122.685 421.295 171.175 396.855 206.535C390.745 215.18 383.53 222.85 375.34 229.545C371.245 232.925 366.695 235.785 361.885 238.06C361.885 238.06 361.82 238.06 361.82 238.125L359.61 239.035C359.545 239.035 359.48 239.1 359.415 239.1L358.05 239.555C356.815 239.685 355.84 239.815 354.865 239.815ZM344.725 233.705L347.26 234.16C348.82 234.42 350.12 234.68 351.16 234.94C353.955 235.525 354.995 235.72 356.75 235.265L357.985 234.875L360.065 234.03C364.55 231.95 368.775 229.285 372.61 226.1C380.475 219.73 387.495 212.255 393.345 204C416.485 170.525 409.595 124.635 377.55 99.48C377.55 99.48 377.485 99.48 377.485 99.415C376.9 98.895 376.055 98.7 375.34 98.895C374.69 99.025 374.17 99.48 373.845 100C373.52 100.585 373.39 101.235 373.585 101.82C378.72 124.895 376.185 143.095 365.98 157.72C354.865 173.645 331.725 188.4 317.1 189.375C314.76 204.13 318.205 214.79 328.54 224.8C332.96 229.22 338.55 232.34 344.725 233.705Z" fill="#221F1F"/>
<path d="M357.4 237.28L355.515 246.9C343.945 240.01 323.795 229.545 308.715 227.335C292.4 224.735 280.895 222.98 271.99 221.81L266.4 166.17C276.54 166.69 286.355 169.485 295.325 174.23C302.215 177.675 308.455 182.29 313.72 187.88L315.345 187.36C312.095 204.715 316.905 216.415 327.045 226.49C331.855 231.235 337.835 234.55 344.4 235.98C344.79 235.98 346.545 236.825 346.935 236.955C350.315 238.125 353.955 238.255 357.4 237.475" fill="#5A595C"/>
<path d="M355.515 249.11C355.125 249.11 354.735 248.98 354.41 248.785C347.845 244.885 325.03 231.885 308.39 229.545C291.815 226.88 280.505 225.19 271.665 224.02C270.69 223.89 269.91 223.11 269.78 222.07L264.19 166.43C264.125 165.78 264.32 165.195 264.775 164.74C265.23 164.285 265.815 164.025 266.465 164.09C276.8 164.61 287.135 167.535 296.235 172.41C302.995 175.725 309.04 180.145 314.305 185.475L314.695 185.345C315.41 185.085 316.19 185.28 316.775 185.8C317.36 186.32 317.62 187.1 317.49 187.815C314.63 203.025 318.075 214.53 328.605 224.995C333.09 229.48 338.745 232.535 344.92 233.9L347.455 234.355C348.82 234.55 349.925 234.81 350.9 235.005C353.955 235.59 354.995 235.785 356.815 235.265C357.53 235.07 358.31 235.265 358.895 235.785C359.48 236.305 359.675 237.085 359.545 237.8L357.66 247.42C357.53 248.135 357.075 248.72 356.425 248.98C356.165 249.045 355.84 249.11 355.515 249.11ZM344.27 238.19C348.04 240.14 351.355 241.96 354.02 243.52L354.735 239.88C353.37 239.88 352.005 239.62 350.12 239.23C349.145 239.035 348.04 238.84 346.675 238.645L344.27 238.19ZM274.005 219.925C282.65 221.095 293.57 222.72 309.105 225.255C315.345 226.165 322.365 228.44 329.06 231.17C327.825 230.195 326.655 229.22 325.55 228.115C314.565 217.195 310.535 205.365 312.745 189.96C312.485 189.83 312.29 189.7 312.095 189.505C306.96 184.045 300.98 179.625 294.285 176.31H294.22C286.355 172.085 277.645 169.485 268.805 168.64L274.005 219.925Z" fill="#221F1F"/>
<path d="M266.4 164.025H264.58V168.38H266.4V164.025Z" fill="#221F1F"/>
<path d="M357.79 235.2C360.65 238.84 360.065 244.04 356.425 246.9C356.1 247.16 355.775 247.355 355.45 247.55" fill="#F79422"/>
<path d="M356.555 249.435L354.345 245.665C354.605 245.535 354.865 245.34 355.06 245.145C357.725 243.065 358.18 239.165 356.1 236.5L359.48 233.835C363.055 238.385 362.275 245.015 357.725 248.59C357.4 248.915 357.01 249.175 356.555 249.435Z" fill="#221F1F"/>
<path d="M143.485 235.2C140.625 238.84 141.275 244.04 144.915 246.9C145.24 247.16 145.565 247.355 145.89 247.55" fill="#F79422"/>
<path d="M144.785 249.435C144.33 249.175 143.94 248.915 143.55 248.59C139 245.015 138.22 238.385 141.795 233.835L145.24 236.5C144.2 237.8 143.745 239.425 143.94 241.05C144.135 242.675 144.98 244.17 146.28 245.145C146.54 245.34 146.735 245.47 146.995 245.665L144.785 249.435Z" fill="#221F1F"/>
<path d="M237.41 347.13C236.24 347.13 235.07 347 233.9 346.74C232.73 346.48 232.015 345.31 232.21 344.14C232.47 342.97 233.64 342.255 234.81 342.45C237.475 343.035 240.27 342.71 242.74 341.475C242.805 341.475 242.87 341.41 242.935 341.41C246.38 340.11 248.72 336.99 249.045 333.415C249.045 332.765 249.045 332.115 249.11 331.53C249.24 330.425 250.215 329.58 251.32 329.58C252.425 329.58 253.4 330.49 253.465 331.66C253.53 332.31 253.465 332.96 253.465 333.545C253.725 337.12 256.13 340.24 259.575 341.475C259.64 341.475 259.77 341.54 259.835 341.605C262.24 342.775 265.1 343.165 267.7 342.58C268.87 342.32 270.04 343.1 270.3 344.27C270.56 345.44 269.78 346.61 268.61 346.87C265.035 347.65 261.265 347.195 258.015 345.635C255.155 344.595 252.75 342.71 251.19 340.24C249.63 342.645 247.355 344.53 244.56 345.635C242.35 346.545 239.945 347.13 237.41 347.13Z" fill="#171717"/>
<path d="M268.155 317.1C268.155 322.17 260.29 329.32 250.8 329.32C241.31 329.32 233.445 322.43 233.445 317.36C233.445 312.29 241.31 310.535 250.8 310.535C260.29 310.535 268.155 312.03 268.155 317.1Z" fill="#171717"/>
<path d="M258.015 315.15C258.015 316.32 254.7 317.945 250.605 317.945C246.51 317.945 243.195 316.32 243.195 315.15C243.195 313.98 246.51 314.175 250.605 314.175C254.7 314.24 258.015 313.98 258.015 315.15Z" fill="white"/>
<path d="M234.42 346.61H233.25C233.12 346.61 232.99 346.61 232.86 346.545C225.775 345.245 220.9 338.875 221.485 331.66C221.615 330.49 222.655 329.58 223.825 329.645C224.995 329.775 225.905 330.815 225.84 331.985C225.45 336.86 228.7 341.215 233.51 342.19H234.42C235.59 342.19 236.565 343.165 236.565 344.335C236.565 345.635 235.59 346.61 234.42 346.61Z" fill="#171717"/>
<path d="M251.255 333.935C250.085 333.935 249.11 332.96 249.11 331.79V325.81C249.11 324.64 250.085 323.665 251.255 323.665C252.425 323.665 253.4 324.64 253.4 325.81V331.79C253.465 332.96 252.49 333.935 251.255 333.935Z" fill="#171717"/>
<path d="M269.325 346.805H268.155C266.985 346.805 266.01 345.83 266.01 344.66C266.01 343.49 266.985 342.515 268.155 342.515H269.13C273.94 341.54 277.255 336.99 276.8 332.115C276.67 330.945 277.58 329.84 278.75 329.71C279.985 329.58 281.025 330.49 281.155 331.66C281.87 338.875 276.865 345.505 269.78 346.805C269.585 346.805 269.455 346.805 269.325 346.805Z" fill="#171717"/>
<path d="M396.92 206.47L393.345 204C416.485 170.525 409.595 124.57 377.55 99.4799L380.215 96.0349C414.08 122.555 421.36 171.045 396.92 206.47Z" fill="#221F1F"/>
<path d="M144.07 239.88C144.005 239.88 144.005 239.88 143.94 239.88C143.29 239.815 142.575 239.75 141.925 239.62C141.86 239.62 141.86 239.62 141.795 239.62C140.17 239.23 138.61 238.645 137.115 237.995C132.24 235.72 127.69 232.86 123.595 229.48C115.405 222.85 108.19 215.115 102.145 206.535C77.5747 171.045 84.9847 122.49 118.915 95.97C120.28 94.865 122.035 94.345 123.855 94.54C125.675 94.735 127.3 95.58 128.405 97.01C129.705 98.635 130.225 100.845 129.77 102.86C124.895 123.985 127.17 141.665 136.725 155.38C147.645 170.98 170.59 185.475 183.915 185.215C184.955 185.215 185.93 185.93 186.125 186.97C189.245 203.87 185.41 216.48 173.71 227.855C168.64 232.925 162.27 236.37 155.25 237.93H155.185L152.65 238.45C149.92 239.165 147.06 239.685 144.2 239.88C144.135 239.88 144.07 239.88 144.07 239.88ZM142.77 235.33C143.16 235.395 143.615 235.46 144.005 235.46C146.54 235.265 149.14 234.81 151.61 234.16C151.675 234.16 151.74 234.16 151.74 234.095L154.275 233.64C160.45 232.275 166.105 229.155 170.59 224.735C180.86 214.725 184.37 204.13 182.03 189.505C167.145 188.595 144.395 174.035 133.085 157.85C122.88 143.095 120.28 124.245 125.48 101.885C125.675 101.105 125.48 100.325 125.025 99.74C124.635 99.22 124.05 98.895 123.4 98.83C122.75 98.765 122.1 98.96 121.645 99.35C89.4697 124.505 82.4497 170.46 105.655 203.935C111.505 212.19 118.395 219.665 126.325 226.035C130.16 229.22 134.385 231.885 138.935 233.965C140.105 234.55 141.405 235.005 142.77 235.33Z" fill="#221F1F"/>
<path d="M219.145 288.76C219.145 298.25 213.555 305.855 206.73 305.855C199.84 305.855 194.315 298.185 194.315 288.76C194.315 280.44 198.67 273.485 204.26 271.925L218.105 282.455C218.755 284.47 219.08 286.615 219.145 288.76Z" fill="#221F1F"/>
<path d="M214.53 286.485C214.53 289.8 212.58 292.595 210.175 292.595C207.77 292.595 205.82 289.8 205.82 286.485C205.82 283.17 207.835 280.31 210.175 280.31C212.515 280.31 214.53 283.105 214.53 286.485Z" fill="white"/>
<path d="M203.935 301.565C199.19 305.465 194.835 309.885 190.87 314.63C188.985 316.97 187.425 319.505 186.125 322.235C184.825 324.965 183.915 327.89 183.46 330.945C183.2 332.44 183.005 334 182.81 335.495L182.615 337.835V340.175C182.42 343.295 182.42 346.48 182.615 349.6C182.875 352.785 183.33 355.905 183.98 359.025C184.305 360.585 184.63 362.145 185.085 363.705C185.475 365.2 185.995 366.63 186.645 368.06C185.8 366.695 185.15 365.2 184.565 363.705C183.98 362.21 183.46 360.715 182.94 359.35C181.965 356.23 181.12 353.11 180.535 349.925C179.95 346.74 179.495 343.49 179.235 340.24L179.105 337.835V335.3C179.105 333.675 179.17 331.985 179.3 330.36C179.56 326.98 180.275 323.6 181.445 320.35C182.615 317.165 184.11 314.045 185.995 311.25C189.7 305.725 193.925 300.59 198.67 295.845C200.23 294.35 202.765 294.415 204.26 296.04C205.625 297.535 205.69 299.81 204.39 301.305L203.935 301.565Z" fill="#221F1F"/>
<path d="M201.075 300.33C200.75 300.395 200.49 300.395 200.165 300.33H199.645H198.67L196.655 299.875C195.355 299.615 193.99 299.42 192.625 299.42C189.895 299.225 187.165 299.485 184.5 300.135C183.135 300.46 181.835 300.915 180.6 301.5C176.635 303.32 173.32 306.245 170.98 309.95C172.085 307.09 173.645 304.49 175.66 302.215C176.7 301.045 177.805 299.94 179.04 299.03C180.275 298.055 181.64 297.21 183.07 296.495C185.865 294.87 188.92 293.7 192.04 293.05C193.665 292.79 195.225 292.595 196.85 292.53C197.695 292.53 198.475 292.53 199.255 292.53H201.01C203.22 292.4 205.04 294.09 205.17 296.3C205.3 298.51 203.61 300.33 201.4 300.46C201.14 300.46 200.88 300.46 200.62 300.395" fill="#221F1F"/>
<path d="M308.325 288.76C308.325 298.25 302.735 305.855 295.91 305.855C289.085 305.855 283.495 298.185 283.495 288.76C283.495 286.615 283.755 284.47 284.34 282.39L298.25 271.99C304.035 273.485 308.325 280.44 308.325 288.76Z" fill="#221F1F"/>
<path d="M288.045 286.485C288.045 289.8 290.06 292.595 292.4 292.595C294.74 292.595 296.755 289.8 296.755 286.485C296.755 283.17 294.74 280.31 292.4 280.31C290.06 280.31 288.045 283.105 288.045 286.485Z" fill="white"/>
<path d="M304.035 295.845C308.585 300.525 312.745 305.53 316.45 310.99C318.335 313.72 319.895 316.645 321.195 319.7C322.43 322.82 323.34 326.07 323.73 329.385C324.12 332.635 324.12 335.95 323.73 339.265C323.405 342.45 322.885 345.635 322.235 348.755C321.585 351.875 320.805 354.93 319.83 357.985C319.31 359.48 318.855 360.975 318.205 362.34C317.62 363.835 316.97 365.33 316.125 366.695C316.775 365.265 317.295 363.835 317.75 362.34C318.205 360.845 318.53 359.35 318.855 357.79C319.505 354.735 319.96 351.615 320.285 348.56C320.61 345.44 320.74 342.32 320.74 339.2C320.74 336.145 320.415 333.155 319.765 330.23C319.05 327.37 318.01 324.575 316.58 321.91C315.15 319.31 313.46 316.84 311.575 314.5C307.61 309.755 303.255 305.4 298.51 301.435C296.95 299.875 296.95 297.405 298.445 295.845C299.81 294.415 302.02 294.285 303.645 295.455L303.97 295.715" fill="#221F1F"/>
<path d="M301.175 292.465H303.32C304.165 292.4 305.01 292.4 305.855 292.465C307.545 292.53 309.235 292.66 310.925 292.92C314.305 293.375 317.555 294.35 320.675 295.715C323.73 297.08 326.525 298.965 328.865 301.37C331.14 303.71 332.895 306.44 334.13 309.43C332.375 306.83 330.165 304.62 327.63 302.93C325.16 301.24 322.365 300.07 319.44 299.485C316.58 298.9 313.655 298.705 310.73 298.9C309.3 298.965 307.805 299.16 306.375 299.42L304.23 299.875H303.19H302.605H302.28H301.695C299.55 300.2 297.535 298.64 297.21 296.495C296.885 294.35 298.445 292.335 300.59 292.01C300.85 291.945 301.11 291.945 301.37 291.945" fill="#221F1F"/>
<path d="M250 0C388.071 0 500 111.929 500 250C500 388.071 388.071 500 250 500C111.929 500 0 388.071 0 250C0 111.929 111.929 0 250 0ZM249.5 38C132.139 38 37 133.139 37 250.5C37 367.861 132.139 463 249.5 463C366.861 463 462 367.861 462 250.5C462 133.139 366.861 38 249.5 38Z" fill="#0000FF"/>
<path d="M109 300C164.228 300 209 344.772 209 400C209 435.449 190.554 466.589 162.737 484.348C99.7039 460.867 48.6979 412.683 21.4922 351.566C38.5488 320.815 71.3432 300 109 300Z" fill="#0000FF"/>
<path d="M71.8381 362.031L76.5732 366.766L71.8381 371.501L67.103 366.766L71.8381 362.031ZM67.103 366.766L71.8381 371.501L67.103 376.236L62.3679 371.501L67.103 366.766ZM62.3679 362.031L67.103 366.766L62.3679 371.501L57.6328 366.766L62.3679 362.031ZM67.103 357.296L71.8381 362.031L67.103 366.766L62.3679 362.031L67.103 357.296ZM71.8381 352.561L76.5732 357.296L71.8381 362.031L67.103 357.296L71.8381 352.561ZM76.5732 347.826L81.3083 352.561L76.5732 357.296L71.8381 352.561L76.5732 347.826ZM81.3083 343.09L86.0434 347.826L81.3083 352.561L76.5732 347.826L81.3083 343.09ZM86.0434 338.355L90.7784 343.09L86.0434 347.826L81.3083 343.09L86.0434 338.355ZM90.7784 333.62L95.5135 338.355L90.7784 343.09L86.0434 338.355L90.7784 333.62ZM95.5135 328.885L100.249 333.62L95.5135 338.355L90.7784 333.62L95.5135 328.885ZM95.5135 338.355L100.249 343.09L95.5135 347.826L90.7784 343.09L95.5135 338.355ZM90.7784 343.09L95.5135 347.826L90.7784 352.561L86.0434 347.826L90.7784 343.09ZM86.0434 347.826L90.7784 352.561L86.0434 357.296L81.3083 352.561L86.0434 347.826ZM81.3083 352.561L86.0434 357.296L81.3083 362.031L76.5732 357.296L81.3083 352.561ZM76.5732 357.296L81.3083 362.031L76.5732 366.766L71.8381 362.031L76.5732 357.296ZM100.249 333.62L104.984 338.355L100.249 343.09L95.5135 338.355L100.249 333.62ZM104.984 328.885L109.719 333.62L104.984 338.355L100.249 333.62L104.984 328.885ZM104.984 319.415L109.719 324.15L104.984 328.885L100.249 324.15L104.984 319.415ZM109.719 324.15L114.454 328.885L109.719 333.62L104.984 328.885L109.719 324.15ZM100.249 324.15L104.984 328.885L100.249 333.62L95.5135 328.885L100.249 324.15ZM100.249 314.68L104.984 319.415L100.249 324.15L95.5135 319.415L100.249 314.68ZM95.5135 319.415L100.249 324.15L95.5135 328.885L90.7784 324.15L95.5135 319.415Z" fill="white"/>
<path d="M133.042 347.473L137.777 352.208L133.042 356.943L128.306 352.208L133.042 347.473ZM128.306 342.738L133.042 347.473L128.306 352.208L123.571 347.473L128.306 342.738ZM123.571 347.473L128.306 352.208L123.571 356.943L118.836 352.208L123.571 347.473ZM128.306 352.208L133.042 356.943L128.306 361.678L123.571 356.943L128.306 352.208ZM133.042 356.943L137.777 361.678L133.042 366.413L128.306 361.678L133.042 356.943ZM137.777 352.208L142.512 356.943L137.777 361.678L133.042 356.943L137.777 352.208ZM142.512 356.943L147.247 361.678L142.512 366.413L137.777 361.678L142.512 356.943ZM142.512 366.413L147.247 371.148L142.512 375.883L137.777 371.148L142.512 366.413ZM137.777 361.678L142.512 366.413L137.777 371.148L133.042 366.413L137.777 361.678ZM137.777 371.148L142.512 375.883L137.777 380.619L133.042 375.883L137.777 371.148ZM109.366 399.559L114.101 404.294L109.366 409.029L104.631 404.294L109.366 399.559ZM114.101 394.824L118.836 399.559L114.101 404.294L109.366 399.559L114.101 394.824ZM118.836 390.089L123.571 394.824L118.836 399.559L114.101 394.824L118.836 390.089ZM123.571 385.354L128.306 390.089L123.571 394.824L118.836 390.089L123.571 385.354ZM128.306 380.619L133.042 385.354L128.306 390.089L123.571 385.354L128.306 380.619ZM133.042 375.883L137.777 380.619L133.042 385.354L128.306 380.619L133.042 375.883ZM104.631 394.824L109.366 399.559L104.631 404.294L99.896 399.559L104.631 394.824ZM99.896 399.559L104.631 404.294L99.896 409.029L95.1609 404.294L99.896 399.559ZM95.1609 394.824L99.896 399.559L95.1609 404.294L90.4258 399.559L95.1609 394.824ZM99.896 390.089L104.631 394.824L99.896 399.559L95.1609 394.824L99.896 390.089ZM90.4258 390.089L95.1609 394.824L90.4258 399.559L85.6907 394.824L90.4258 390.089ZM85.6907 385.354L90.4258 390.089L85.6907 394.824L80.9556 390.089L85.6907 385.354ZM90.4258 380.619L95.1609 385.354L90.4258 390.089L85.6907 385.354L90.4258 380.619ZM95.1609 385.354L99.896 390.089L95.1609 394.824L90.4258 390.089L95.1609 385.354ZM95.1609 375.883L99.896 380.619L95.1609 385.354L90.4258 380.619L95.1609 375.883ZM85.6907 375.883L90.4258 380.619L85.6907 385.354L80.9556 380.619L85.6907 375.883ZM90.4258 371.148L95.1609 375.883L90.4258 380.619L85.6907 375.883L90.4258 371.148ZM95.1609 366.413L99.896 371.148L95.1609 375.883L90.4258 371.148L95.1609 366.413ZM99.896 361.678L104.631 366.413L99.896 371.148L95.1609 366.413L99.896 361.678ZM104.631 356.943L109.366 361.678L104.631 366.413L99.896 361.678L104.631 356.943ZM109.366 352.208L114.101 356.943L109.366 361.678L104.631 356.943L109.366 352.208ZM114.101 347.473L118.836 352.208L114.101 356.943L109.366 352.208L114.101 347.473ZM118.836 352.208L123.571 356.943L118.836 361.678L114.101 356.943L118.836 352.208ZM118.836 342.738L123.571 347.473L118.836 352.208L114.101 347.473L118.836 342.738ZM114.101 356.943L118.836 361.678L114.101 366.413L109.366 361.678L114.101 356.943ZM109.366 361.678L114.101 366.413L109.366 371.148L104.631 366.413L109.366 361.678ZM104.631 366.413L109.366 371.148L104.631 375.883L99.896 371.148L104.631 366.413ZM99.896 371.148L104.631 375.883L99.896 380.619L95.1609 375.883L99.896 371.148ZM133.042 366.413L137.777 371.148L133.042 375.883L128.306 371.148L133.042 366.413ZM128.306 371.148L133.042 375.883L128.306 380.619L123.571 375.883L128.306 371.148ZM123.571 375.883L128.306 380.619L123.571 385.354L118.836 380.619L123.571 375.883ZM118.836 380.619L123.571 385.354L118.836 390.089L114.101 385.354L118.836 380.619ZM114.101 385.354L118.836 390.089L114.101 394.824L109.366 390.089L114.101 385.354ZM109.366 390.089L114.101 394.824L109.366 399.559L104.631 394.824L109.366 390.089Z" fill="white"/>
<path d="M165.872 380.303L170.607 385.038L165.872 389.773L161.136 385.038L165.872 380.303ZM161.136 385.038L165.872 389.773L161.136 394.508L156.401 389.773L161.136 385.038ZM156.401 389.773L161.136 394.508L156.401 399.243L151.666 394.508L156.401 389.773ZM161.136 394.508L165.872 399.243L161.136 403.978L156.401 399.243L161.136 394.508ZM156.401 399.243L161.136 403.978L156.401 408.713L151.666 403.978L156.401 399.243ZM161.136 403.978L165.872 408.713L161.136 413.448L156.401 408.713L161.136 403.978ZM165.872 408.713L170.607 413.448L165.872 418.184L161.136 413.448L165.872 408.713ZM170.607 403.978L175.342 408.713L170.607 413.448L165.872 408.713L170.607 403.978ZM175.342 408.713L180.077 413.448L175.342 418.184L170.607 413.448L175.342 408.713ZM180.077 413.448L184.812 418.184L180.077 422.919L175.342 418.184L180.077 413.448ZM184.812 408.713L189.547 413.448L184.812 418.184L180.077 413.448L184.812 408.713ZM189.547 403.978L194.282 408.713L189.547 413.448L184.812 408.713L189.547 403.978ZM184.812 399.243L189.547 403.978L184.812 408.713L180.077 403.978L184.812 399.243ZM180.077 403.978L184.812 408.713L180.077 413.448L175.342 408.713L180.077 403.978ZM170.607 413.448L175.342 418.184L170.607 422.919L165.872 418.184L170.607 413.448ZM151.666 394.508L156.401 399.243L151.666 403.978L146.931 399.243L151.666 394.508ZM151.666 385.038L156.401 389.773L151.666 394.508L146.931 389.773L151.666 385.038ZM156.401 380.303L161.136 385.038L156.401 389.773L151.666 385.038L156.401 380.303ZM161.136 375.568L165.872 380.303L161.136 385.038L156.401 380.303L161.136 375.568ZM151.666 403.978L156.401 408.713L151.666 413.448L146.931 408.713L151.666 403.978ZM156.401 408.713L161.136 413.448L156.401 418.184L151.666 413.448L156.401 408.713ZM161.136 413.448L165.872 418.184L161.136 422.919L156.401 418.184L161.136 413.448ZM156.401 418.184L161.136 422.919L156.401 427.654L151.666 422.919L156.401 418.184ZM161.136 422.919L165.872 427.654L161.136 432.389L156.401 427.654L161.136 422.919ZM156.401 427.654L161.136 432.389L156.401 437.124L151.666 432.389L156.401 427.654ZM151.666 422.919L156.401 427.654L151.666 432.389L146.931 427.654L151.666 422.919ZM146.931 446.594L151.666 451.329L146.931 456.064L142.196 451.329L146.931 446.594ZM151.666 441.859L156.401 446.594L151.666 451.329L146.931 446.594L151.666 441.859ZM156.401 437.124L161.136 441.859L156.401 446.594L151.666 441.859L156.401 437.124ZM161.136 432.389L165.872 437.124L161.136 441.859L156.401 437.124L161.136 432.389ZM151.666 432.389L156.401 437.124L151.666 441.859L146.931 437.124L151.666 432.389ZM146.931 437.124L151.666 441.859L146.931 446.594L142.196 441.859L146.931 437.124ZM142.196 441.859L146.931 446.594L142.196 451.329L137.461 446.594L142.196 441.859ZM118.521 418.184L123.256 422.919L118.521 427.654L113.786 422.919L118.521 418.184ZM123.256 422.919L127.991 427.654L123.256 432.389L118.521 427.654L123.256 422.919ZM127.991 418.184L132.726 422.919L127.991 427.654L123.256 422.919L127.991 418.184ZM132.726 413.448L137.461 418.184L132.726 422.919L127.991 418.184L132.726 413.448ZM127.991 408.713L132.726 413.448L127.991 418.184L123.256 413.448L127.991 408.713ZM132.726 403.978L137.461 408.713L132.726 413.448L127.991 408.713L132.726 403.978ZM123.256 413.448L127.991 418.184L123.256 422.919L118.521 418.184L123.256 413.448ZM137.461 408.713L142.196 413.448L137.461 418.184L132.726 413.448L137.461 408.713ZM142.196 413.448L146.931 418.184L142.196 422.919L137.461 418.184L142.196 413.448ZM146.931 408.713L151.666 413.448L146.931 418.184L142.196 413.448L146.931 408.713ZM142.196 403.978L146.931 408.713L142.196 413.448L137.461 408.713L142.196 403.978ZM151.666 413.448L156.401 418.184L151.666 422.919L146.931 418.184L151.666 413.448Z" fill="white"/>
</g>
<defs>
<clipPath id="clip0_11_2534">
<rect width="500" height="500" fill="white"/>
</clipPath>
</defs>
</svg>
