<svg width="500" height="500" viewBox="0 0 500 500" fill="none" xmlns="http://www.w3.org/2000/svg">
<g clip-path="url(#clip0_11_3889)">
<circle cx="250" cy="250" r="215" fill="white"/>
<g clip-path="url(#clip1_11_3889)">
<path d="M250 465C368.741 465 465 368.741 465 250C465 131.259 368.741 35 250 35C131.259 35 35 131.259 35 250C35 368.741 131.259 465 250 465Z" fill="url(#paint0_linear_11_3889)"/>
<path fill-rule="evenodd" clip-rule="evenodd" d="M249.365 392.773C207.522 392.741 173.816 382.701 150.266 364.666C126.433 346.415 113.79 320.515 113.79 291.209C113.79 262.97 126.406 242.608 140.68 228.845C151.867 218.058 164.211 211.15 172.807 207.177C170.863 201.211 168.438 193.401 166.268 185.335C163.365 174.541 160.517 161.877 160.517 152.597C160.517 141.613 162.912 130.582 169.369 122.01C176.191 112.954 186.461 108.103 198.817 108.103C208.473 108.103 216.672 111.684 223.09 117.864C229.225 123.77 233.309 131.614 236.128 139.791C241.082 154.159 243.011 172.21 243.552 190.225H255.387C255.928 172.21 257.857 154.159 262.811 139.791C265.63 131.614 269.713 123.77 275.849 117.864C282.267 111.684 290.465 108.103 300.122 108.103C312.477 108.103 322.748 112.954 329.57 122.01C336.027 130.582 338.422 141.613 338.422 152.597C338.422 161.877 335.574 174.541 332.67 185.335C330.501 193.401 328.076 201.211 326.132 207.177C334.728 211.15 347.072 218.058 358.258 228.845C372.533 242.608 385.148 262.97 385.148 291.209C385.148 320.515 372.505 346.415 348.673 364.666C325.122 382.701 291.417 392.741 249.574 392.773H249.365Z" fill="#633001"/>
<path d="M198.817 118.549C180.72 118.549 172.389 132.188 172.389 151.05C172.389 166.042 182.069 196.068 186.04 207.757C186.933 210.386 185.529 213.266 182.97 214.286C168.466 220.063 125.663 241.216 125.663 289.661C125.663 340.693 169.16 379.17 249.373 379.231C249.405 379.231 249.437 379.231 249.469 379.231C249.501 379.231 249.533 379.231 249.565 379.231C329.777 379.17 373.275 340.693 373.275 289.661C373.275 241.216 330.472 220.063 315.968 214.286C313.408 213.266 312.005 210.386 312.898 207.757C316.869 196.068 326.548 166.042 326.548 151.05C326.548 132.188 318.218 118.549 300.121 118.549C274.071 118.549 267.578 155.826 267.115 195.834C267.084 198.504 264.946 200.671 262.302 200.671H236.636C233.991 200.671 231.854 198.504 231.823 195.834C231.36 155.826 224.866 118.549 198.817 118.549Z" fill="#D1884F"/>
<path d="M249.565 362.884C190.628 362.884 125.765 331.014 125.663 289.758C125.663 289.823 125.663 289.887 125.663 289.951C125.663 341.024 169.23 379.521 249.565 379.521C329.9 379.521 373.466 341.024 373.466 289.951C373.466 289.887 373.466 289.823 373.466 289.758C373.365 331.014 308.501 362.884 249.565 362.884Z" fill="#FEDC90"/>
<path d="M216.818 277.086C216.818 291.015 210.302 298.27 202.264 298.27C194.226 298.27 187.71 291.015 187.71 277.086C187.71 263.158 194.226 255.903 202.264 255.903C210.302 255.903 216.818 263.158 216.818 277.086Z" fill="#633001"/>
<path d="M311.419 277.086C311.419 291.015 304.903 298.27 296.865 298.27C288.827 298.27 282.311 291.015 282.311 277.086C282.311 263.158 288.827 255.903 296.865 255.903C304.903 255.903 311.419 263.158 311.419 277.086Z" fill="#633001"/>
</g>
<path d="M250 0C388.071 0 500 111.929 500 250C500 388.071 388.071 500 250 500C111.929 500 0 388.071 0 250C0 111.929 111.929 0 250 0ZM249.5 38C132.139 38 37 133.139 37 250.5C37 367.861 132.139 463 249.5 463C366.861 463 462 367.861 462 250.5C462 133.139 366.861 38 249.5 38Z" fill="#0000FF"/>
<path d="M109 300C164.228 300 209 344.772 209 400C209 435.449 190.554 466.589 162.737 484.348C99.7039 460.867 48.6979 412.683 21.4922 351.566C38.5488 320.815 71.3432 300 109 300Z" fill="#0000FF"/>
<path d="M71.8376 362.031L76.5727 366.766L71.8376 371.501L67.1025 366.766L71.8376 362.031ZM67.1025 366.766L71.8376 371.501L67.1025 376.236L62.3674 371.501L67.1025 366.766ZM62.3674 362.031L67.1025 366.766L62.3674 371.501L57.6323 366.766L62.3674 362.031ZM67.1025 357.296L71.8376 362.031L67.1025 366.766L62.3674 362.031L67.1025 357.296ZM71.8376 352.561L76.5727 357.296L71.8376 362.031L67.1025 357.296L71.8376 352.561ZM76.5727 347.826L81.3078 352.561L76.5727 357.296L71.8376 352.561L76.5727 347.826ZM81.3078 343.09L86.0429 347.826L81.3078 352.561L76.5727 347.826L81.3078 343.09ZM86.0429 338.355L90.778 343.09L86.0429 347.826L81.3078 343.09L86.0429 338.355ZM90.778 333.62L95.513 338.355L90.778 343.09L86.0429 338.355L90.778 333.62ZM95.513 328.885L100.248 333.62L95.513 338.355L90.778 333.62L95.513 328.885ZM95.513 338.355L100.248 343.09L95.513 347.826L90.778 343.09L95.513 338.355ZM90.778 343.09L95.513 347.826L90.778 352.561L86.0429 347.826L90.778 343.09ZM86.0429 347.826L90.778 352.561L86.0429 357.296L81.3078 352.561L86.0429 347.826ZM81.3078 352.561L86.0429 357.296L81.3078 362.031L76.5727 357.296L81.3078 352.561ZM76.5727 357.296L81.3078 362.031L76.5727 366.766L71.8376 362.031L76.5727 357.296ZM100.248 333.62L104.983 338.355L100.248 343.09L95.513 338.355L100.248 333.62ZM104.983 328.885L109.718 333.62L104.983 338.355L100.248 333.62L104.983 328.885ZM104.983 319.415L109.718 324.15L104.983 328.885L100.248 324.15L104.983 319.415ZM109.718 324.15L114.453 328.885L109.718 333.62L104.983 328.885L109.718 324.15ZM100.248 324.15L104.983 328.885L100.248 333.62L95.513 328.885L100.248 324.15ZM100.248 314.68L104.983 319.415L100.248 324.15L95.513 319.415L100.248 314.68ZM95.513 319.415L100.248 324.15L95.513 328.885L90.778 324.15L95.513 319.415Z" fill="white"/>
<path d="M133.041 347.473L137.776 352.208L133.041 356.943L128.306 352.208L133.041 347.473ZM128.306 342.738L133.041 347.473L128.306 352.208L123.571 347.473L128.306 342.738ZM123.571 347.473L128.306 352.208L123.571 356.943L118.836 352.208L123.571 347.473ZM128.306 352.208L133.041 356.943L128.306 361.678L123.571 356.943L128.306 352.208ZM133.041 356.943L137.776 361.678L133.041 366.413L128.306 361.678L133.041 356.943ZM137.776 352.208L142.511 356.943L137.776 361.678L133.041 356.943L137.776 352.208ZM142.511 356.943L147.246 361.678L142.511 366.413L137.776 361.678L142.511 356.943ZM142.511 366.413L147.246 371.148L142.511 375.883L137.776 371.148L142.511 366.413ZM137.776 361.678L142.511 366.413L137.776 371.148L133.041 366.413L137.776 361.678ZM137.776 371.148L142.511 375.883L137.776 380.619L133.041 375.883L137.776 371.148ZM109.366 399.559L114.101 404.294L109.366 409.029L104.631 404.294L109.366 399.559ZM114.101 394.824L118.836 399.559L114.101 404.294L109.366 399.559L114.101 394.824ZM118.836 390.089L123.571 394.824L118.836 399.559L114.101 394.824L118.836 390.089ZM123.571 385.354L128.306 390.089L123.571 394.824L118.836 390.089L123.571 385.354ZM128.306 380.619L133.041 385.354L128.306 390.089L123.571 385.354L128.306 380.619ZM133.041 375.883L137.776 380.619L133.041 385.354L128.306 380.619L133.041 375.883ZM104.631 394.824L109.366 399.559L104.631 404.294L99.8955 399.559L104.631 394.824ZM99.8955 399.559L104.631 404.294L99.8955 409.029L95.1604 404.294L99.8955 399.559ZM95.1604 394.824L99.8955 399.559L95.1604 404.294L90.4253 399.559L95.1604 394.824ZM99.8955 390.089L104.631 394.824L99.8955 399.559L95.1604 394.824L99.8955 390.089ZM90.4253 390.089L95.1604 394.824L90.4253 399.559L85.6902 394.824L90.4253 390.089ZM85.6902 385.354L90.4253 390.089L85.6902 394.824L80.9551 390.089L85.6902 385.354ZM90.4253 380.619L95.1604 385.354L90.4253 390.089L85.6902 385.354L90.4253 380.619ZM95.1604 385.354L99.8955 390.089L95.1604 394.824L90.4253 390.089L95.1604 385.354ZM95.1604 375.883L99.8955 380.619L95.1604 385.354L90.4253 380.619L95.1604 375.883ZM85.6902 375.883L90.4253 380.619L85.6902 385.354L80.9551 380.619L85.6902 375.883ZM90.4253 371.148L95.1604 375.883L90.4253 380.619L85.6902 375.883L90.4253 371.148ZM95.1604 366.413L99.8955 371.148L95.1604 375.883L90.4253 371.148L95.1604 366.413ZM99.8955 361.678L104.631 366.413L99.8955 371.148L95.1604 366.413L99.8955 361.678ZM104.631 356.943L109.366 361.678L104.631 366.413L99.8955 361.678L104.631 356.943ZM109.366 352.208L114.101 356.943L109.366 361.678L104.631 356.943L109.366 352.208ZM114.101 347.473L118.836 352.208L114.101 356.943L109.366 352.208L114.101 347.473ZM118.836 352.208L123.571 356.943L118.836 361.678L114.101 356.943L118.836 352.208ZM118.836 342.738L123.571 347.473L118.836 352.208L114.101 347.473L118.836 342.738ZM114.101 356.943L118.836 361.678L114.101 366.413L109.366 361.678L114.101 356.943ZM109.366 361.678L114.101 366.413L109.366 371.148L104.631 366.413L109.366 361.678ZM104.631 366.413L109.366 371.148L104.631 375.883L99.8955 371.148L104.631 366.413ZM99.8955 371.148L104.631 375.883L99.8955 380.619L95.1604 375.883L99.8955 371.148ZM133.041 366.413L137.776 371.148L133.041 375.883L128.306 371.148L133.041 366.413ZM128.306 371.148L133.041 375.883L128.306 380.619L123.571 375.883L128.306 371.148ZM123.571 375.883L128.306 380.619L123.571 385.354L118.836 380.619L123.571 375.883ZM118.836 380.619L123.571 385.354L118.836 390.089L114.101 385.354L118.836 380.619ZM114.101 385.354L118.836 390.089L114.101 394.824L109.366 390.089L114.101 385.354ZM109.366 390.089L114.101 394.824L109.366 399.559L104.631 394.824L109.366 390.089Z" fill="white"/>
<path d="M165.871 380.303L170.606 385.038L165.871 389.773L161.136 385.038L165.871 380.303ZM161.136 385.038L165.871 389.773L161.136 394.508L156.401 389.773L161.136 385.038ZM156.401 389.773L161.136 394.508L156.401 399.243L151.666 394.508L156.401 389.773ZM161.136 394.508L165.871 399.243L161.136 403.978L156.401 399.243L161.136 394.508ZM156.401 399.243L161.136 403.978L156.401 408.713L151.666 403.978L156.401 399.243ZM161.136 403.978L165.871 408.713L161.136 413.448L156.401 408.713L161.136 403.978ZM165.871 408.713L170.606 413.448L165.871 418.184L161.136 413.448L165.871 408.713ZM170.606 403.978L175.341 408.713L170.606 413.448L165.871 408.713L170.606 403.978ZM175.341 408.713L180.076 413.448L175.341 418.184L170.606 413.448L175.341 408.713ZM180.076 413.448L184.811 418.184L180.076 422.919L175.341 418.184L180.076 413.448ZM184.811 408.713L189.547 413.448L184.811 418.184L180.076 413.448L184.811 408.713ZM189.547 403.978L194.282 408.713L189.547 413.448L184.811 408.713L189.547 403.978ZM184.811 399.243L189.547 403.978L184.811 408.713L180.076 403.978L184.811 399.243ZM180.076 403.978L184.811 408.713L180.076 413.448L175.341 408.713L180.076 403.978ZM170.606 413.448L175.341 418.184L170.606 422.919L165.871 418.184L170.606 413.448ZM151.666 394.508L156.401 399.243L151.666 403.978L146.931 399.243L151.666 394.508ZM151.666 385.038L156.401 389.773L151.666 394.508L146.931 389.773L151.666 385.038ZM156.401 380.303L161.136 385.038L156.401 389.773L151.666 385.038L156.401 380.303ZM161.136 375.568L165.871 380.303L161.136 385.038L156.401 380.303L161.136 375.568ZM151.666 403.978L156.401 408.713L151.666 413.448L146.931 408.713L151.666 403.978ZM156.401 408.713L161.136 413.448L156.401 418.184L151.666 413.448L156.401 408.713ZM161.136 413.448L165.871 418.184L161.136 422.919L156.401 418.184L161.136 413.448ZM156.401 418.184L161.136 422.919L156.401 427.654L151.666 422.919L156.401 418.184ZM161.136 422.919L165.871 427.654L161.136 432.389L156.401 427.654L161.136 422.919ZM156.401 427.654L161.136 432.389L156.401 437.124L151.666 432.389L156.401 427.654ZM151.666 422.919L156.401 427.654L151.666 432.389L146.931 427.654L151.666 422.919ZM146.931 446.594L151.666 451.329L146.931 456.064L142.196 451.329L146.931 446.594ZM151.666 441.859L156.401 446.594L151.666 451.329L146.931 446.594L151.666 441.859ZM156.401 437.124L161.136 441.859L156.401 446.594L151.666 441.859L156.401 437.124ZM161.136 432.389L165.871 437.124L161.136 441.859L156.401 437.124L161.136 432.389ZM151.666 432.389L156.401 437.124L151.666 441.859L146.931 437.124L151.666 432.389ZM146.931 437.124L151.666 441.859L146.931 446.594L142.196 441.859L146.931 437.124ZM142.196 441.859L146.931 446.594L142.196 451.329L137.461 446.594L142.196 441.859ZM118.52 418.184L123.255 422.919L118.52 427.654L113.785 422.919L118.52 418.184ZM123.255 422.919L127.99 427.654L123.255 432.389L118.52 427.654L123.255 422.919ZM127.99 418.184L132.725 422.919L127.99 427.654L123.255 422.919L127.99 418.184ZM132.725 413.448L137.461 418.184L132.725 422.919L127.99 418.184L132.725 413.448ZM127.99 408.713L132.725 413.448L127.99 418.184L123.255 413.448L127.99 408.713ZM132.725 403.978L137.461 408.713L132.725 413.448L127.99 408.713L132.725 403.978ZM123.255 413.448L127.99 418.184L123.255 422.919L118.52 418.184L123.255 413.448ZM137.461 408.713L142.196 413.448L137.461 418.184L132.725 413.448L137.461 408.713ZM142.196 413.448L146.931 418.184L142.196 422.919L137.461 418.184L142.196 413.448ZM146.931 408.713L151.666 413.448L146.931 418.184L142.196 413.448L146.931 408.713ZM142.196 403.978L146.931 408.713L142.196 413.448L137.461 408.713L142.196 403.978ZM151.666 413.448L156.401 418.184L151.666 422.919L146.931 418.184L151.666 413.448Z" fill="white"/>
</g>
<defs>
<linearGradient id="paint0_linear_11_3889" x1="250" y1="35" x2="250" y2="465" gradientUnits="userSpaceOnUse">
<stop stop-color="#53DEE9"/>
<stop offset="1" stop-color="#1FC7D4"/>
</linearGradient>
<clipPath id="clip0_11_3889">
<rect width="500" height="500" fill="white"/>
</clipPath>
<clipPath id="clip1_11_3889">
<rect width="430" height="430" fill="white" transform="translate(35 35)"/>
</clipPath>
</defs>
</svg>
