<svg width="500" height="500" viewBox="0 0 500 500" fill="none" xmlns="http://www.w3.org/2000/svg">
<g clip-path="url(#clip0_11_3877)">
<circle cx="250" cy="250" r="215" fill="white"/>
<g clip-path="url(#clip1_11_3877)">
<path fill-rule="evenodd" clip-rule="evenodd" d="M313.56 258.362C341.307 248.644 367.363 232.146 387.327 214.179C388.117 213.501 388.568 212.484 388.681 211.354C388.794 210.337 388.455 209.207 387.778 208.416C387.102 207.512 386.199 206.947 385.184 206.834C384.169 206.608 383.041 206.834 382.139 207.399C362.174 219.377 340.067 228.869 317.395 234.632C318.072 226.044 317.959 217.343 316.831 208.642C314.237 189.432 307.807 170.335 294.272 155.758C279.271 139.147 254.681 132.932 233.476 139.599C207.985 147.17 186.779 170.222 185.99 197.681C184.975 233.841 218.587 263.221 252.764 266.611C256.712 267.063 260.772 267.289 264.833 267.289C258.516 281.075 250.395 294.296 241.597 306.5C214.752 262.091 174.372 225.705 126.547 205.817C115.268 200.958 103.763 197.229 91.9196 194.63C87.859 193.839 84.024 193.048 79.8506 192.596C78.8355 192.483 77.8203 192.822 76.918 193.387C76.0156 193.952 75.4516 194.856 75.226 195.873C74.8877 196.89 75.0005 197.907 75.4516 198.811C75.9028 199.715 76.6924 200.506 77.5947 200.845C104.327 214.066 128.916 231.355 150.347 252.147C178.094 278.928 199.976 311.246 214.64 346.841C221.069 362.209 241.259 367.859 254.794 357.915C256.824 356.333 258.742 354.638 260.434 352.717C272.503 339.609 283.218 325.145 292.242 309.664C301.491 294.07 309.048 276.555 313.56 258.362ZM253.553 328.761L253.892 329.439C253.779 329.213 253.666 328.987 253.553 328.761ZM274.195 240.056C276.338 231.016 277.353 221.75 277.015 212.484C276.112 195.873 269.683 172.369 249.944 172.03C232.912 171.804 217.347 187.963 222.197 205.026C229.416 229.999 250.959 239.039 274.195 240.056Z" fill="url(#paint0_linear_11_3877)"/>
<path d="M400.411 197.229C402.103 205.365 404.81 210.563 412.706 209.433C419.473 208.529 425 201.749 425 194.969C425 188.189 419.473 183.895 412.706 184.912C404.246 186.268 399.058 190.562 400.411 197.229Z" fill="url(#paint1_linear_11_3877)"/>
</g>
<path d="M250 0C388.071 0 500 111.929 500 250C500 388.071 388.071 500 250 500C111.929 500 0 388.071 0 250C0 111.929 111.929 0 250 0ZM249.5 38C132.139 38 37 133.139 37 250.5C37 367.861 132.139 463 249.5 463C366.861 463 462 367.861 462 250.5C462 133.139 366.861 38 249.5 38Z" fill="#0000FF"/>
<path d="M109 300C164.228 300 209 344.772 209 400C209 435.449 190.554 466.589 162.737 484.348C99.7039 460.867 48.6979 412.683 21.4922 351.566C38.5488 320.815 71.3432 300 109 300Z" fill="#0000FF"/>
<path d="M71.8381 362.031L76.5732 366.766L71.8381 371.501L67.103 366.766L71.8381 362.031ZM67.103 366.766L71.8381 371.501L67.103 376.236L62.3679 371.501L67.103 366.766ZM62.3679 362.031L67.103 366.766L62.3679 371.501L57.6328 366.766L62.3679 362.031ZM67.103 357.296L71.8381 362.031L67.103 366.766L62.3679 362.031L67.103 357.296ZM71.8381 352.561L76.5732 357.296L71.8381 362.031L67.103 357.296L71.8381 352.561ZM76.5732 347.826L81.3083 352.561L76.5732 357.296L71.8381 352.561L76.5732 347.826ZM81.3083 343.09L86.0434 347.826L81.3083 352.561L76.5732 347.826L81.3083 343.09ZM86.0434 338.355L90.7784 343.09L86.0434 347.826L81.3083 343.09L86.0434 338.355ZM90.7784 333.62L95.5135 338.355L90.7784 343.09L86.0434 338.355L90.7784 333.62ZM95.5135 328.885L100.249 333.62L95.5135 338.355L90.7784 333.62L95.5135 328.885ZM95.5135 338.355L100.249 343.09L95.5135 347.826L90.7784 343.09L95.5135 338.355ZM90.7784 343.09L95.5135 347.826L90.7784 352.561L86.0434 347.826L90.7784 343.09ZM86.0434 347.826L90.7784 352.561L86.0434 357.296L81.3083 352.561L86.0434 347.826ZM81.3083 352.561L86.0434 357.296L81.3083 362.031L76.5732 357.296L81.3083 352.561ZM76.5732 357.296L81.3083 362.031L76.5732 366.766L71.8381 362.031L76.5732 357.296ZM100.249 333.62L104.984 338.355L100.249 343.09L95.5135 338.355L100.249 333.62ZM104.984 328.885L109.719 333.62L104.984 338.355L100.249 333.62L104.984 328.885ZM104.984 319.415L109.719 324.15L104.984 328.885L100.249 324.15L104.984 319.415ZM109.719 324.15L114.454 328.885L109.719 333.62L104.984 328.885L109.719 324.15ZM100.249 324.15L104.984 328.885L100.249 333.62L95.5135 328.885L100.249 324.15ZM100.249 314.68L104.984 319.415L100.249 324.15L95.5135 319.415L100.249 314.68ZM95.5135 319.415L100.249 324.15L95.5135 328.885L90.7784 324.15L95.5135 319.415Z" fill="white"/>
<path d="M133.042 347.473L137.777 352.208L133.042 356.943L128.306 352.208L133.042 347.473ZM128.306 342.738L133.042 347.473L128.306 352.208L123.571 347.473L128.306 342.738ZM123.571 347.473L128.306 352.208L123.571 356.943L118.836 352.208L123.571 347.473ZM128.306 352.208L133.042 356.943L128.306 361.678L123.571 356.943L128.306 352.208ZM133.042 356.943L137.777 361.678L133.042 366.413L128.306 361.678L133.042 356.943ZM137.777 352.208L142.512 356.943L137.777 361.678L133.042 356.943L137.777 352.208ZM142.512 356.943L147.247 361.678L142.512 366.413L137.777 361.678L142.512 356.943ZM142.512 366.413L147.247 371.148L142.512 375.883L137.777 371.148L142.512 366.413ZM137.777 361.678L142.512 366.413L137.777 371.148L133.042 366.413L137.777 361.678ZM137.777 371.148L142.512 375.883L137.777 380.619L133.042 375.883L137.777 371.148ZM109.366 399.559L114.101 404.294L109.366 409.029L104.631 404.294L109.366 399.559ZM114.101 394.824L118.836 399.559L114.101 404.294L109.366 399.559L114.101 394.824ZM118.836 390.089L123.571 394.824L118.836 399.559L114.101 394.824L118.836 390.089ZM123.571 385.354L128.306 390.089L123.571 394.824L118.836 390.089L123.571 385.354ZM128.306 380.619L133.042 385.354L128.306 390.089L123.571 385.354L128.306 380.619ZM133.042 375.883L137.777 380.619L133.042 385.354L128.306 380.619L133.042 375.883ZM104.631 394.824L109.366 399.559L104.631 404.294L99.896 399.559L104.631 394.824ZM99.896 399.559L104.631 404.294L99.896 409.029L95.1609 404.294L99.896 399.559ZM95.1609 394.824L99.896 399.559L95.1609 404.294L90.4258 399.559L95.1609 394.824ZM99.896 390.089L104.631 394.824L99.896 399.559L95.1609 394.824L99.896 390.089ZM90.4258 390.089L95.1609 394.824L90.4258 399.559L85.6907 394.824L90.4258 390.089ZM85.6907 385.354L90.4258 390.089L85.6907 394.824L80.9556 390.089L85.6907 385.354ZM90.4258 380.619L95.1609 385.354L90.4258 390.089L85.6907 385.354L90.4258 380.619ZM95.1609 385.354L99.896 390.089L95.1609 394.824L90.4258 390.089L95.1609 385.354ZM95.1609 375.883L99.896 380.619L95.1609 385.354L90.4258 380.619L95.1609 375.883ZM85.6907 375.883L90.4258 380.619L85.6907 385.354L80.9556 380.619L85.6907 375.883ZM90.4258 371.148L95.1609 375.883L90.4258 380.619L85.6907 375.883L90.4258 371.148ZM95.1609 366.413L99.896 371.148L95.1609 375.883L90.4258 371.148L95.1609 366.413ZM99.896 361.678L104.631 366.413L99.896 371.148L95.1609 366.413L99.896 361.678ZM104.631 356.943L109.366 361.678L104.631 366.413L99.896 361.678L104.631 356.943ZM109.366 352.208L114.101 356.943L109.366 361.678L104.631 356.943L109.366 352.208ZM114.101 347.473L118.836 352.208L114.101 356.943L109.366 352.208L114.101 347.473ZM118.836 352.208L123.571 356.943L118.836 361.678L114.101 356.943L118.836 352.208ZM118.836 342.738L123.571 347.473L118.836 352.208L114.101 347.473L118.836 342.738ZM114.101 356.943L118.836 361.678L114.101 366.413L109.366 361.678L114.101 356.943ZM109.366 361.678L114.101 366.413L109.366 371.148L104.631 366.413L109.366 361.678ZM104.631 366.413L109.366 371.148L104.631 375.883L99.896 371.148L104.631 366.413ZM99.896 371.148L104.631 375.883L99.896 380.619L95.1609 375.883L99.896 371.148ZM133.042 366.413L137.777 371.148L133.042 375.883L128.306 371.148L133.042 366.413ZM128.306 371.148L133.042 375.883L128.306 380.619L123.571 375.883L128.306 371.148ZM123.571 375.883L128.306 380.619L123.571 385.354L118.836 380.619L123.571 375.883ZM118.836 380.619L123.571 385.354L118.836 390.089L114.101 385.354L118.836 380.619ZM114.101 385.354L118.836 390.089L114.101 394.824L109.366 390.089L114.101 385.354ZM109.366 390.089L114.101 394.824L109.366 399.559L104.631 394.824L109.366 390.089Z" fill="white"/>
<path d="M165.872 380.303L170.607 385.038L165.872 389.773L161.136 385.038L165.872 380.303ZM161.136 385.038L165.872 389.773L161.136 394.508L156.401 389.773L161.136 385.038ZM156.401 389.773L161.136 394.508L156.401 399.243L151.666 394.508L156.401 389.773ZM161.136 394.508L165.872 399.243L161.136 403.978L156.401 399.243L161.136 394.508ZM156.401 399.243L161.136 403.978L156.401 408.713L151.666 403.978L156.401 399.243ZM161.136 403.978L165.872 408.713L161.136 413.448L156.401 408.713L161.136 403.978ZM165.872 408.713L170.607 413.448L165.872 418.184L161.136 413.448L165.872 408.713ZM170.607 403.978L175.342 408.713L170.607 413.448L165.872 408.713L170.607 403.978ZM175.342 408.713L180.077 413.448L175.342 418.184L170.607 413.448L175.342 408.713ZM180.077 413.448L184.812 418.184L180.077 422.919L175.342 418.184L180.077 413.448ZM184.812 408.713L189.547 413.448L184.812 418.184L180.077 413.448L184.812 408.713ZM189.547 403.978L194.282 408.713L189.547 413.448L184.812 408.713L189.547 403.978ZM184.812 399.243L189.547 403.978L184.812 408.713L180.077 403.978L184.812 399.243ZM180.077 403.978L184.812 408.713L180.077 413.448L175.342 408.713L180.077 403.978ZM170.607 413.448L175.342 418.184L170.607 422.919L165.872 418.184L170.607 413.448ZM151.666 394.508L156.401 399.243L151.666 403.978L146.931 399.243L151.666 394.508ZM151.666 385.038L156.401 389.773L151.666 394.508L146.931 389.773L151.666 385.038ZM156.401 380.303L161.136 385.038L156.401 389.773L151.666 385.038L156.401 380.303ZM161.136 375.568L165.872 380.303L161.136 385.038L156.401 380.303L161.136 375.568ZM151.666 403.978L156.401 408.713L151.666 413.448L146.931 408.713L151.666 403.978ZM156.401 408.713L161.136 413.448L156.401 418.184L151.666 413.448L156.401 408.713ZM161.136 413.448L165.872 418.184L161.136 422.919L156.401 418.184L161.136 413.448ZM156.401 418.184L161.136 422.919L156.401 427.654L151.666 422.919L156.401 418.184ZM161.136 422.919L165.872 427.654L161.136 432.389L156.401 427.654L161.136 422.919ZM156.401 427.654L161.136 432.389L156.401 437.124L151.666 432.389L156.401 427.654ZM151.666 422.919L156.401 427.654L151.666 432.389L146.931 427.654L151.666 422.919ZM146.931 446.594L151.666 451.329L146.931 456.064L142.196 451.329L146.931 446.594ZM151.666 441.859L156.401 446.594L151.666 451.329L146.931 446.594L151.666 441.859ZM156.401 437.124L161.136 441.859L156.401 446.594L151.666 441.859L156.401 437.124ZM161.136 432.389L165.872 437.124L161.136 441.859L156.401 437.124L161.136 432.389ZM151.666 432.389L156.401 437.124L151.666 441.859L146.931 437.124L151.666 432.389ZM146.931 437.124L151.666 441.859L146.931 446.594L142.196 441.859L146.931 437.124ZM142.196 441.859L146.931 446.594L142.196 451.329L137.461 446.594L142.196 441.859ZM118.521 418.184L123.256 422.919L118.521 427.654L113.786 422.919L118.521 418.184ZM123.256 422.919L127.991 427.654L123.256 432.389L118.521 427.654L123.256 422.919ZM127.991 418.184L132.726 422.919L127.991 427.654L123.256 422.919L127.991 418.184ZM132.726 413.448L137.461 418.184L132.726 422.919L127.991 418.184L132.726 413.448ZM127.991 408.713L132.726 413.448L127.991 418.184L123.256 413.448L127.991 408.713ZM132.726 403.978L137.461 408.713L132.726 413.448L127.991 408.713L132.726 403.978ZM123.256 413.448L127.991 418.184L123.256 422.919L118.521 418.184L123.256 413.448ZM137.461 408.713L142.196 413.448L137.461 418.184L132.726 413.448L137.461 408.713ZM142.196 413.448L146.931 418.184L142.196 422.919L137.461 418.184L142.196 413.448ZM146.931 408.713L151.666 413.448L146.931 418.184L142.196 413.448L146.931 408.713ZM142.196 403.978L146.931 408.713L142.196 413.448L137.461 408.713L142.196 403.978ZM151.666 413.448L156.401 418.184L151.666 422.919L146.931 418.184L151.666 413.448Z" fill="white"/>
</g>
<defs>
<linearGradient id="paint0_linear_11_3877" x1="76.3815" y1="134.855" x2="426.418" y2="360.274" gradientUnits="userSpaceOnUse">
<stop stop-color="#44BCC3"/>
<stop offset="1" stop-color="#236D66"/>
</linearGradient>
<linearGradient id="paint1_linear_11_3877" x1="146.965" y1="25.2512" x2="497.001" y2="250.669" gradientUnits="userSpaceOnUse">
<stop stop-color="#44BCC3"/>
<stop offset="1" stop-color="#236D66"/>
</linearGradient>
<clipPath id="clip0_11_3877">
<rect width="500" height="500" fill="white"/>
</clipPath>
<clipPath id="clip1_11_3877">
<rect width="350" height="226" fill="white" transform="translate(75 137)"/>
</clipPath>
</defs>
</svg>
