<svg width="500" height="500" viewBox="0 0 500 500" fill="none" xmlns="http://www.w3.org/2000/svg">
<g clip-path="url(#clip0_11_5256)">
<circle cx="250" cy="250" r="215" fill="white"/>
<path d="M335.768 384.914C334.68 372.914 346.335 364.567 356.094 364.845C368.351 365.195 377.001 373.599 376.962 384.643C376.922 396.045 367.811 404.031 356.017 404.367C346.284 404.642 334.878 396.084 335.768 384.914ZM319.035 88.579C313.483 92.797 310.636 100.931 312.059 107.362C315.187 121.492 332.3 128.26 345.096 119.267C351.113 115.038 354.256 108.901 353.265 101.608C351.784 90.7153 343.473 84.1474 332.338 84.1877C327.142 84.2059 322.985 85.5785 319.035 88.579ZM74.0645 248.797C68.5142 253.474 66.1864 259.555 67.4548 266.942C69.4536 278.581 81.21 286.147 94.6643 282.09C105.991 278.675 112.778 265.633 106.019 254.165C102.01 247.365 95.8993 243.973 87.4139 244.155C82.6274 243.678 77.9504 245.522 74.0645 248.797ZM293.578 398.536C293.568 387.781 285.106 381.969 275.947 381.652C266.335 381.321 258.159 389.6 258.092 398.55C258.024 407.639 266.205 415.348 275.921 415.349C285.671 415.351 293.587 407.846 293.578 398.536ZM367.568 162.737C367.617 171.762 376.231 179.777 385.472 179.586C395.159 179.385 403.156 171.606 403.059 162.478C402.96 153.246 394.921 145.741 385.18 145.786C377.374 145.368 367.511 152.142 367.568 162.737ZM132.638 249.324C142.086 250.004 151.41 241.169 150.906 232.073C150.362 222.275 142.73 216.129 133.415 215.576C123.454 214.986 114.538 224.339 115.545 232.024C114.736 240.083 120.805 248.472 132.638 249.324ZM133.034 190.522C132.664 181.568 125.402 173.949 114.829 174.136C105.289 174.305 97.455 181.921 97.6762 190.695C97.9232 200.52 104.954 207.392 115.307 207.354C125.288 207.318 133.425 199.956 133.034 190.522ZM338.91 173.14C348.325 172.976 356.641 165.29 356.304 156.498C355.925 146.591 347.813 139.76 338.328 139.842C327.097 139.941 320.095 148.912 320.919 156.744C320.986 166.167 328.83 173.316 338.91 173.14ZM287.415 363.137C287.393 371.136 291.209 376.228 299.812 379.203C306.691 381.583 315.854 378.327 319.751 372.437C323.322 367.04 323.691 361.275 320.872 355.621C317.735 349.327 312.15 346.656 304.631 346.613C295.956 345.922 287.443 352.48 287.415 363.137ZM191.518 395.493C191.49 403.251 198.312 409.861 206.551 409.837C215.131 409.812 221.661 404.419 221.96 395.208C222.211 387.463 214.779 381.124 206.596 381.178C198.318 381.233 191.547 387.662 191.518 395.493ZM348.046 201.111C347.942 193.152 340.598 186.581 332.094 186.839C323.892 187.086 317.187 193.852 317.492 201.573C317.806 209.52 324.59 215.67 332.911 215.55C340.972 215.434 348.144 208.591 348.046 201.111ZM137.577 135.715C137.679 143.559 144.656 149.992 152.882 149.827C161.034 149.662 167.818 142.908 167.68 135.096C167.54 127.246 160.697 121.038 152.296 121.139C143.985 121.239 137.473 127.688 137.577 135.715ZM177.145 229.171C185.251 228.848 192.188 221.983 192.093 214.376C191.998 206.766 184.846 200.43 176.443 200.514C167.682 200.601 161.803 206.493 161.927 215.061C162.043 223.028 169.017 229.494 177.145 229.171ZM382.113 221.195C391.865 220.337 398.509 208.926 392.488 199.784C389.212 194.813 384.385 193.176 379.123 193.001C371.101 192.733 365.1 199.278 364.597 207.095C364.169 213.757 370.036 221.562 378.711 221.409C379.844 221.34 380.981 221.295 382.113 221.195ZM252.845 371.119C252.412 363.53 246.087 357.045 238.279 356.83C230.264 356.609 222.268 364.021 222.712 371.702C223.181 379.822 229.941 386.089 238.236 385.516C246.217 385.991 253.307 379.219 252.845 371.119ZM432.074 221.043C431.711 212.985 425.623 206.175 417.273 206.549C408.414 206.946 402.365 212.47 402.014 220.855C401.707 228.216 408.333 235.428 417.068 235.01C426.203 235.511 432.387 227.97 432.074 221.043ZM252.207 336.385C252.594 344.149 258.747 350.314 266.77 350.437C274.96 350.563 282.942 343.256 282.359 335.693C281.742 327.688 275.335 321.477 266.77 321.981C258.716 321.561 251.803 328.274 252.207 336.385ZM162.567 186.829C169.565 185.544 175.109 178.389 174.112 171.531C172.509 160.512 158.82 155.051 149.81 161.661C144.729 165.389 142.66 172.017 144.707 178.01C146.615 183.599 152.299 187.159 159.783 187.07C160.313 187.027 161.459 187.032 162.567 186.829ZM167.719 366.004C167.622 372.865 173.624 378.434 181.088 378.412C187.957 378.391 193.768 372.648 193.666 365.98C193.564 359.353 187.691 353.877 180.686 353.878C173.671 353.88 167.812 359.358 167.719 366.004ZM318.933 224.965C312.198 224.931 305.807 231.289 305.877 237.031C305.96 243.858 312.045 249.814 319.149 249.638C325.992 249.469 331.827 243.725 331.833 237.151C331.868 230.818 325.412 224.997 318.933 224.965ZM199.088 154.05C192.357 154.214 186.351 158.611 185.68 166.043C185.094 172.554 191.153 178.324 198.311 178.605C205.322 178.88 211.305 173.485 211.475 166.737C212.338 160.182 205.26 153.899 199.088 154.05ZM378.539 243.368C378.031 236.464 372.915 231.05 365.773 230.911C359.381 230.786 352.79 237.069 352.688 243.381C352.585 249.816 358.64 255.339 365.802 255.342C372.141 256.196 379.021 249.941 378.539 243.368ZM229.298 208.023C229.307 200.795 224.262 196.052 216.589 196.075C209.551 196.096 203.396 201.692 203.401 208.063C203.407 214.48 209.477 219.963 216.562 219.951C224.248 219.938 229.288 215.219 229.298 208.023ZM225.061 342.118C225.059 335.62 219.084 330.184 211.954 330.194C204.202 330.204 199.194 334.854 199.161 342.07C199.129 348.973 204.487 353.971 211.969 354.017C219.073 354.061 225.064 348.616 225.061 342.118ZM227.982 306.725C228.035 313.251 233.945 318.53 241.199 318.53C248.891 318.53 253.922 313.787 253.898 306.56C253.874 299.639 248.502 294.731 240.971 294.752C233.829 294.772 227.93 300.21 227.982 306.725ZM416.397 257.362C415.999 249.805 410.954 244.78 403.081 244.658C397.347 244.568 390.245 249.399 390.688 257.307C391.077 264.245 396.2 269.084 403.782 269.014C410.627 268.95 416.729 263.68 416.397 257.362ZM179.746 129.124C179.913 136.248 185.199 140.843 192.951 140.602C200.21 140.377 204.981 135.588 204.94 128.567C204.897 121.322 199.775 116.609 192.079 116.733C184.529 116.854 179.576 121.831 179.746 129.124ZM311.267 264.625C311.428 258.855 306.679 254.178 300.421 253.945C294.508 253.724 289.474 258.433 289.407 264.249C289.331 270.733 293.214 274.547 299.993 274.651C306.296 274.747 311.104 270.471 311.267 264.625ZM262.027 209.762C261.931 203.872 257.063 199.183 251.032 199.17C244.97 199.157 240.094 203.789 240.079 209.575C240.062 216.069 243.968 219.826 250.768 219.858C257.01 219.886 262.117 215.308 262.027 209.762ZM175.915 336.783C175.748 330.874 170.765 326.317 164.72 326.543C158.811 326.763 153.902 331.77 154.008 337.469C154.108 342.843 159.604 347.736 165.486 347.688C171.588 347.639 176.089 342.933 175.915 336.783ZM214.299 277.367C214.076 283.081 219.067 287.967 225.255 288.092C231.187 288.211 236.013 283.921 236.22 278.344C236.461 271.825 232.433 267.556 225.926 267.434C219.527 267.315 214.524 271.589 214.299 277.367ZM336.04 270.639C335.948 276.452 340.916 281.142 347.079 281.243C353.216 281.344 358.315 275.746 357.994 270.56C357.638 264.801 353.537 260.629 347.386 260.543C340.996 260.455 336.132 264.783 336.04 270.639ZM222.196 168.005C222.445 173.665 226.712 178.342 232.459 178.561C238.414 178.789 243.956 174.077 244.209 168.57C244.473 162.798 239.593 157.997 233.397 157.935C227.96 157.267 221.928 161.889 222.196 168.005ZM237.514 130.875C237.674 124.792 233.021 119.87 227.058 119.816C220.821 119.759 215.684 124.34 215.591 130.04C215.494 135.904 220.309 140.495 226.567 140.507C232.797 140.52 237.366 136.5 237.514 130.875ZM185.476 312.777C185.385 319.032 190.34 323.734 196.897 323.611C202.619 323.505 207.35 318.795 207.354 313.202C207.359 307.28 202.625 302.932 196.216 302.972C190.063 303.011 185.559 307.122 185.476 312.777ZM374.011 284.706C374.138 290.24 378.915 294.84 384.6 294.903C390.478 294.968 395.627 290.121 395.804 284.355C395.979 278.634 391.002 274.116 384.583 274.171C377.87 274.229 373.862 278.222 374.011 284.706ZM363.419 294.868C358.562 294.938 353.958 299.328 354.043 303.808C354.125 308.145 358.981 312.584 363.735 312.666C369.108 312.76 373.061 308.678 372.969 303.132C372.886 298.127 369.027 294.787 363.419 294.868ZM227.866 251.057C228.094 246.315 223.136 241.537 218.129 241.676C213.363 241.809 208.72 246.35 208.8 250.799C208.889 255.736 212.931 259.479 218.237 259.539C223.627 259.6 227.625 256.078 227.866 251.057ZM269.277 217.669C269.3 222.126 274.379 226.549 279.005 226.411C284.046 226.26 287.81 222.245 288.242 217.385C288.634 212.995 283.988 207.932 279.145 208.645C272.92 208.033 269.258 213.824 269.277 217.669ZM264.237 138.428C264.478 133.653 260.36 129.446 255.299 129.297C249.546 129.128 245.773 132.225 245.557 137.294C245.318 142.888 249.065 146.974 254.516 147.064C259.472 147.147 264 143.123 264.237 138.428ZM270.334 175.712C270.343 170.988 265.911 166.5 261.27 166.534C256.37 166.57 251.589 170.775 251.406 175.212C251.191 180.403 255.363 184.299 261.135 184.298C266.712 184.297 270.324 180.926 270.334 175.712ZM180.002 286.184C180.017 291.548 184.096 295.015 189.81 295.117C194.202 295.196 198.961 290.494 198.872 285.825C198.787 281.347 193.843 277.153 189.055 277.205C183.833 277.261 179.988 281.074 180.002 286.184ZM148.48 310.232C148.198 314.029 152.661 319.051 157.777 319.446C162.603 319.82 167.667 314.864 167.585 310.086C167.5 305.199 163.448 301.657 157.966 301.678C152.469 301.7 148.853 305.197 148.48 310.232ZM335.74 290.348C336.034 285.816 331.6 281.36 326.659 281.22C320.788 281.054 316.832 284.589 316.835 290C316.838 295.05 320.765 298.933 325.929 298.992C330.728 299.046 335.445 294.889 335.74 290.348ZM279.457 274.713C275.042 274.122 270.506 278.403 270.145 282.81C269.696 288.272 272.937 292.076 278.302 292.385C283.983 292.713 287.918 289.646 288.299 284.594C288.695 278.283 285.307 275.497 279.457 274.713ZM283.058 179.761C278.57 179.651 274.744 182.789 274.552 186.736C274.351 190.862 278.529 194.977 282.844 194.902C287.073 194.829 290.813 191.26 290.84 187.272C290.872 182.774 287.871 179.878 283.058 179.761ZM342.678 323.525C346.477 323.519 350.547 319.592 350.743 315.743C350.936 311.935 347.072 308.402 342.647 308.341C337.633 308.271 334.719 310.823 334.613 315.377C334.509 319.853 338.152 323.534 342.678 323.525ZM276.481 141.695C271.699 141.698 268.046 145.276 268.323 149.687C268.596 154.039 271.874 156.829 276.624 156.754C281.503 156.677 284.322 153.906 284.247 149.259C284.175 144.74 281.047 141.694 276.481 141.695ZM189.116 255.231C184.195 255.1 180.544 258.399 180.654 262.881C180.756 267.038 184.3 270.277 188.779 270.303C193.414 270.331 196.488 267.405 196.599 262.859C196.713 258.178 193.948 255.36 189.116 255.231ZM296.545 302.451C296.71 306.239 300.881 310.003 304.858 309.902C308.794 309.801 313.132 305.795 312.844 302.233C312.47 297.638 309.956 294.853 305.086 294.758C300.397 294.667 296.365 298.298 296.545 302.451ZM149.748 286.758C149.761 290.864 153.349 294.599 157.381 294.706C161.435 294.813 166.005 290.379 165.818 286.518C165.635 282.73 161.478 279.008 157.452 279.027C153.18 279.046 149.734 282.504 149.748 286.758ZM315.519 321.948C315.455 325.128 318.699 328.631 322.082 328.606C326.107 328.576 329.523 324.998 329.256 321.854C328.936 318.082 326.682 315.55 322.778 315.477C318.641 315.4 315.596 318.114 315.519 321.948ZM155.281 267.159C155.288 270.82 158.558 274.062 162.155 273.973C165.623 273.887 169.212 270.173 168.963 266.926C168.685 263.285 165.429 260.582 161.506 260.737C157.702 260.888 155.274 263.393 155.281 267.159ZM299.049 162.978C299.159 159.08 296.313 156.46 292.002 156.489C287.961 156.516 285.433 158.847 285.359 162.614C285.278 166.715 287.875 169.109 292.332 169.044C296.388 168.983 298.944 166.676 299.049 162.978Z" fill="black"/>
<path d="M250 0C388.071 0 500 111.929 500 250C500 388.071 388.071 500 250 500C111.929 500 0 388.071 0 250C0 111.929 111.929 0 250 0ZM249.5 38C132.139 38 37 133.139 37 250.5C37 367.861 132.139 463 249.5 463C366.861 463 462 367.861 462 250.5C462 133.139 366.861 38 249.5 38Z" fill="#0000FF"/>
<path d="M109 300C164.228 300 209 344.772 209 400C209 435.449 190.554 466.589 162.737 484.348C99.7039 460.867 48.6979 412.683 21.4922 351.566C38.5488 320.815 71.3432 300 109 300Z" fill="#0000FF"/>
<path d="M71.8376 362.031L76.5727 366.766L71.8376 371.501L67.1025 366.766L71.8376 362.031ZM67.1025 366.766L71.8376 371.501L67.1025 376.236L62.3674 371.501L67.1025 366.766ZM62.3674 362.031L67.1025 366.766L62.3674 371.501L57.6323 366.766L62.3674 362.031ZM67.1025 357.296L71.8376 362.031L67.1025 366.766L62.3674 362.031L67.1025 357.296ZM71.8376 352.561L76.5727 357.296L71.8376 362.031L67.1025 357.296L71.8376 352.561ZM76.5727 347.826L81.3078 352.561L76.5727 357.296L71.8376 352.561L76.5727 347.826ZM81.3078 343.09L86.0429 347.826L81.3078 352.561L76.5727 347.826L81.3078 343.09ZM86.0429 338.355L90.778 343.09L86.0429 347.826L81.3078 343.09L86.0429 338.355ZM90.778 333.62L95.513 338.355L90.778 343.09L86.0429 338.355L90.778 333.62ZM95.513 328.885L100.248 333.62L95.513 338.355L90.778 333.62L95.513 328.885ZM95.513 338.355L100.248 343.09L95.513 347.826L90.778 343.09L95.513 338.355ZM90.778 343.09L95.513 347.826L90.778 352.561L86.0429 347.826L90.778 343.09ZM86.0429 347.826L90.778 352.561L86.0429 357.296L81.3078 352.561L86.0429 347.826ZM81.3078 352.561L86.0429 357.296L81.3078 362.031L76.5727 357.296L81.3078 352.561ZM76.5727 357.296L81.3078 362.031L76.5727 366.766L71.8376 362.031L76.5727 357.296ZM100.248 333.62L104.983 338.355L100.248 343.09L95.513 338.355L100.248 333.62ZM104.983 328.885L109.718 333.62L104.983 338.355L100.248 333.62L104.983 328.885ZM104.983 319.415L109.718 324.15L104.983 328.885L100.248 324.15L104.983 319.415ZM109.718 324.15L114.453 328.885L109.718 333.62L104.983 328.885L109.718 324.15ZM100.248 324.15L104.983 328.885L100.248 333.62L95.513 328.885L100.248 324.15ZM100.248 314.68L104.983 319.415L100.248 324.15L95.513 319.415L100.248 314.68ZM95.513 319.415L100.248 324.15L95.513 328.885L90.778 324.15L95.513 319.415Z" fill="white"/>
<path d="M133.041 347.473L137.776 352.208L133.041 356.943L128.306 352.208L133.041 347.473ZM128.306 342.738L133.041 347.473L128.306 352.208L123.571 347.473L128.306 342.738ZM123.571 347.473L128.306 352.208L123.571 356.943L118.836 352.208L123.571 347.473ZM128.306 352.208L133.041 356.943L128.306 361.678L123.571 356.943L128.306 352.208ZM133.041 356.943L137.776 361.678L133.041 366.413L128.306 361.678L133.041 356.943ZM137.776 352.208L142.511 356.943L137.776 361.678L133.041 356.943L137.776 352.208ZM142.511 356.943L147.246 361.678L142.511 366.413L137.776 361.678L142.511 356.943ZM142.511 366.413L147.246 371.148L142.511 375.883L137.776 371.148L142.511 366.413ZM137.776 361.678L142.511 366.413L137.776 371.148L133.041 366.413L137.776 361.678ZM137.776 371.148L142.511 375.883L137.776 380.619L133.041 375.883L137.776 371.148ZM109.366 399.559L114.101 404.294L109.366 409.029L104.631 404.294L109.366 399.559ZM114.101 394.824L118.836 399.559L114.101 404.294L109.366 399.559L114.101 394.824ZM118.836 390.089L123.571 394.824L118.836 399.559L114.101 394.824L118.836 390.089ZM123.571 385.354L128.306 390.089L123.571 394.824L118.836 390.089L123.571 385.354ZM128.306 380.619L133.041 385.354L128.306 390.089L123.571 385.354L128.306 380.619ZM133.041 375.883L137.776 380.619L133.041 385.354L128.306 380.619L133.041 375.883ZM104.631 394.824L109.366 399.559L104.631 404.294L99.8955 399.559L104.631 394.824ZM99.8955 399.559L104.631 404.294L99.8955 409.029L95.1604 404.294L99.8955 399.559ZM95.1604 394.824L99.8955 399.559L95.1604 404.294L90.4253 399.559L95.1604 394.824ZM99.8955 390.089L104.631 394.824L99.8955 399.559L95.1604 394.824L99.8955 390.089ZM90.4253 390.089L95.1604 394.824L90.4253 399.559L85.6902 394.824L90.4253 390.089ZM85.6902 385.354L90.4253 390.089L85.6902 394.824L80.9551 390.089L85.6902 385.354ZM90.4253 380.619L95.1604 385.354L90.4253 390.089L85.6902 385.354L90.4253 380.619ZM95.1604 385.354L99.8955 390.089L95.1604 394.824L90.4253 390.089L95.1604 385.354ZM95.1604 375.883L99.8955 380.619L95.1604 385.354L90.4253 380.619L95.1604 375.883ZM85.6902 375.883L90.4253 380.619L85.6902 385.354L80.9551 380.619L85.6902 375.883ZM90.4253 371.148L95.1604 375.883L90.4253 380.619L85.6902 375.883L90.4253 371.148ZM95.1604 366.413L99.8955 371.148L95.1604 375.883L90.4253 371.148L95.1604 366.413ZM99.8955 361.678L104.631 366.413L99.8955 371.148L95.1604 366.413L99.8955 361.678ZM104.631 356.943L109.366 361.678L104.631 366.413L99.8955 361.678L104.631 356.943ZM109.366 352.208L114.101 356.943L109.366 361.678L104.631 356.943L109.366 352.208ZM114.101 347.473L118.836 352.208L114.101 356.943L109.366 352.208L114.101 347.473ZM118.836 352.208L123.571 356.943L118.836 361.678L114.101 356.943L118.836 352.208ZM118.836 342.738L123.571 347.473L118.836 352.208L114.101 347.473L118.836 342.738ZM114.101 356.943L118.836 361.678L114.101 366.413L109.366 361.678L114.101 356.943ZM109.366 361.678L114.101 366.413L109.366 371.148L104.631 366.413L109.366 361.678ZM104.631 366.413L109.366 371.148L104.631 375.883L99.8955 371.148L104.631 366.413ZM99.8955 371.148L104.631 375.883L99.8955 380.619L95.1604 375.883L99.8955 371.148ZM133.041 366.413L137.776 371.148L133.041 375.883L128.306 371.148L133.041 366.413ZM128.306 371.148L133.041 375.883L128.306 380.619L123.571 375.883L128.306 371.148ZM123.571 375.883L128.306 380.619L123.571 385.354L118.836 380.619L123.571 375.883ZM118.836 380.619L123.571 385.354L118.836 390.089L114.101 385.354L118.836 380.619ZM114.101 385.354L118.836 390.089L114.101 394.824L109.366 390.089L114.101 385.354ZM109.366 390.089L114.101 394.824L109.366 399.559L104.631 394.824L109.366 390.089Z" fill="white"/>
<path d="M165.871 380.303L170.606 385.038L165.871 389.773L161.136 385.038L165.871 380.303ZM161.136 385.038L165.871 389.773L161.136 394.508L156.401 389.773L161.136 385.038ZM156.401 389.773L161.136 394.508L156.401 399.243L151.666 394.508L156.401 389.773ZM161.136 394.508L165.871 399.243L161.136 403.978L156.401 399.243L161.136 394.508ZM156.401 399.243L161.136 403.978L156.401 408.713L151.666 403.978L156.401 399.243ZM161.136 403.978L165.871 408.713L161.136 413.448L156.401 408.713L161.136 403.978ZM165.871 408.713L170.606 413.448L165.871 418.184L161.136 413.448L165.871 408.713ZM170.606 403.978L175.341 408.713L170.606 413.448L165.871 408.713L170.606 403.978ZM175.341 408.713L180.076 413.448L175.341 418.184L170.606 413.448L175.341 408.713ZM180.076 413.448L184.811 418.184L180.076 422.919L175.341 418.184L180.076 413.448ZM184.811 408.713L189.547 413.448L184.811 418.184L180.076 413.448L184.811 408.713ZM189.547 403.978L194.282 408.713L189.547 413.448L184.811 408.713L189.547 403.978ZM184.811 399.243L189.547 403.978L184.811 408.713L180.076 403.978L184.811 399.243ZM180.076 403.978L184.811 408.713L180.076 413.448L175.341 408.713L180.076 403.978ZM170.606 413.448L175.341 418.184L170.606 422.919L165.871 418.184L170.606 413.448ZM151.666 394.508L156.401 399.243L151.666 403.978L146.931 399.243L151.666 394.508ZM151.666 385.038L156.401 389.773L151.666 394.508L146.931 389.773L151.666 385.038ZM156.401 380.303L161.136 385.038L156.401 389.773L151.666 385.038L156.401 380.303ZM161.136 375.568L165.871 380.303L161.136 385.038L156.401 380.303L161.136 375.568ZM151.666 403.978L156.401 408.713L151.666 413.448L146.931 408.713L151.666 403.978ZM156.401 408.713L161.136 413.448L156.401 418.184L151.666 413.448L156.401 408.713ZM161.136 413.448L165.871 418.184L161.136 422.919L156.401 418.184L161.136 413.448ZM156.401 418.184L161.136 422.919L156.401 427.654L151.666 422.919L156.401 418.184ZM161.136 422.919L165.871 427.654L161.136 432.389L156.401 427.654L161.136 422.919ZM156.401 427.654L161.136 432.389L156.401 437.124L151.666 432.389L156.401 427.654ZM151.666 422.919L156.401 427.654L151.666 432.389L146.931 427.654L151.666 422.919ZM146.931 446.594L151.666 451.329L146.931 456.064L142.196 451.329L146.931 446.594ZM151.666 441.859L156.401 446.594L151.666 451.329L146.931 446.594L151.666 441.859ZM156.401 437.124L161.136 441.859L156.401 446.594L151.666 441.859L156.401 437.124ZM161.136 432.389L165.871 437.124L161.136 441.859L156.401 437.124L161.136 432.389ZM151.666 432.389L156.401 437.124L151.666 441.859L146.931 437.124L151.666 432.389ZM146.931 437.124L151.666 441.859L146.931 446.594L142.196 441.859L146.931 437.124ZM142.196 441.859L146.931 446.594L142.196 451.329L137.461 446.594L142.196 441.859ZM118.52 418.184L123.255 422.919L118.52 427.654L113.785 422.919L118.52 418.184ZM123.255 422.919L127.99 427.654L123.255 432.389L118.52 427.654L123.255 422.919ZM127.99 418.184L132.725 422.919L127.99 427.654L123.255 422.919L127.99 418.184ZM132.725 413.448L137.461 418.184L132.725 422.919L127.99 418.184L132.725 413.448ZM127.99 408.713L132.725 413.448L127.99 418.184L123.255 413.448L127.99 408.713ZM132.725 403.978L137.461 408.713L132.725 413.448L127.99 408.713L132.725 403.978ZM123.255 413.448L127.99 418.184L123.255 422.919L118.52 418.184L123.255 413.448ZM137.461 408.713L142.196 413.448L137.461 418.184L132.725 413.448L137.461 408.713ZM142.196 413.448L146.931 418.184L142.196 422.919L137.461 418.184L142.196 413.448ZM146.931 408.713L151.666 413.448L146.931 418.184L142.196 413.448L146.931 408.713ZM142.196 403.978L146.931 408.713L142.196 413.448L137.461 408.713L142.196 403.978ZM151.666 413.448L156.401 418.184L151.666 422.919L146.931 418.184L151.666 413.448Z" fill="white"/>
</g>
<defs>
<clipPath id="clip0_11_5256">
<rect width="500" height="500" fill="white"/>
</clipPath>
</defs>
</svg>
